<svg width="20" height="20" viewBox="0 0 20 20" fill="none" xmlns="http://www.w3.org/2000/svg">
<path fill-rule="evenodd" clip-rule="evenodd" d="M5.83268 13.2514V15.8296L10.0512 13.3368L10.4921 13.3296C12.2454 13.3009 13.8232 13.1244 15.003 12.9449C15.7476 12.8316 16.2649 12.3119 16.3773 11.6594C16.5332 10.7544 16.666 9.60776 16.666 8.33366C16.666 7.05956 16.5332 5.91293 16.3773 5.00788C16.2649 4.35539 15.7476 3.83576 15.003 3.72247C13.7126 3.52613 11.948 3.33366 9.99935 3.33366C8.05074 3.33366 6.28608 3.52613 4.9957 3.72247C4.25113 3.83576 3.73377 4.3554 3.62138 5.00788C3.46548 5.91293 3.33268 7.05956 3.33268 8.33366C3.33268 9.60776 3.46548 10.7544 3.62138 11.6594C3.71897 12.226 4.1148 12.6802 4.69192 12.8721L5.83268 13.2514ZM1.9789 4.72497C2.22072 3.32106 3.33662 2.28906 4.74499 2.07476C6.09444 1.86944 7.94567 1.66699 9.99935 1.66699C12.053 1.66699 13.9043 1.86944 15.2537 2.07476C16.6621 2.28906 17.778 3.32105 18.0198 4.72497C18.1883 5.70342 18.3327 6.94637 18.3327 8.33366C18.3327 9.72095 18.1883 10.9639 18.0198 11.9424C17.778 13.3463 16.6621 14.3783 15.2537 14.5926C14.0192 14.7804 12.3647 14.9658 10.5194 14.996L5.42329 18.0074C4.86778 18.3356 4.16602 17.9352 4.16602 17.29V14.4536C3.03815 14.0786 2.18648 13.1475 1.9789 11.9424C1.81036 10.9639 1.66602 9.72095 1.66602 8.33366C1.66602 6.94637 1.81036 5.70342 1.9789 4.72497Z" fill="#828FA2"/>
<path fill-rule="evenodd" clip-rule="evenodd" d="M5.83333 5.83301C5.3731 5.83301 5 6.2061 5 6.66634C5 7.12658 5.3731 7.49967 5.83333 7.49967H14.1667C14.6269 7.49967 15 7.12658 15 6.66634C15 6.2061 14.6269 5.83301 14.1667 5.83301H5.83333ZM5.83333 9.16634C5.3731 9.16634 5 9.53944 5 9.99967C5 10.4599 5.3731 10.833 5.83333 10.833H9.16667C9.6269 10.833 10 10.4599 10 9.99967C10 9.53944 9.6269 9.16634 9.16667 9.16634H5.83333Z" fill="#828FA2"/>
</svg>
