<svg width="20" height="20" viewBox="0 0 20 20" fill="none" xmlns="http://www.w3.org/2000/svg">
<path fill-rule="evenodd" clip-rule="evenodd" d="M2.50033 11.6667C2.96056 11.6667 3.33366 12.0398 3.33366 12.5001V15.8334C3.33366 16.0544 3.42146 16.2664 3.57774 16.4227C3.73402 16.579 3.94598 16.6667 4.16699 16.6667H15.8337C16.0547 16.6667 16.2666 16.579 16.4229 16.4227C16.5792 16.2664 16.667 16.0544 16.667 15.8334V12.5001C16.667 12.0398 17.0401 11.6667 17.5003 11.6667C17.9606 11.6667 18.3337 12.0398 18.3337 12.5001V15.8334C18.3337 16.4965 18.0703 17.1323 17.6014 17.6012C17.1326 18.07 16.4967 18.3334 15.8337 18.3334H4.16699C3.50395 18.3334 2.86807 18.07 2.39923 17.6012C1.93038 17.1323 1.66699 16.4965 1.66699 15.8334V12.5001C1.66699 12.0398 2.04009 11.6667 2.50033 11.6667Z" fill="#2D2D2D"/>
<path fill-rule="evenodd" clip-rule="evenodd" d="M5.24408 7.74408C5.56951 7.41864 6.09715 7.41864 6.42259 7.74408L10 11.3215L13.5774 7.74408C13.9028 7.41864 14.4305 7.41864 14.7559 7.74408C15.0814 8.06951 15.0814 8.59715 14.7559 8.92259L10.5893 13.0893C10.2638 13.4147 9.73618 13.4147 9.41074 13.0893L5.24408 8.92259C4.91864 8.59715 4.91864 8.06951 5.24408 7.74408Z" fill="#2D2D2D"/>
<path fill-rule="evenodd" clip-rule="evenodd" d="M10.0003 1.66675C10.4606 1.66675 10.8337 2.03984 10.8337 2.50008V12.5001C10.8337 12.9603 10.4606 13.3334 10.0003 13.3334C9.54009 13.3334 9.16699 12.9603 9.16699 12.5001V2.50008C9.16699 2.03984 9.54009 1.66675 10.0003 1.66675Z" fill="#2D2D2D"/>
</svg>
