<svg width="20" height="20" viewBox="0 0 20 20" fill="none" xmlns="http://www.w3.org/2000/svg">
<path fill-rule="evenodd" clip-rule="evenodd" d="M9.99935 0C10.4596 0 10.8327 0.373096 10.8327 0.833333V19.1667C10.8327 19.6269 10.4596 20 9.99935 20C9.53911 20 9.16602 19.6269 9.16602 19.1667V0.833333C9.16602 0.373096 9.53911 0 9.99935 0Z" fill="#2D2D2D"/>
<path fill-rule="evenodd" clip-rule="evenodd" d="M5.26437 4.43168C5.96763 3.72842 6.92145 3.33333 7.91602 3.33333H14.166C14.6263 3.33333 14.9993 3.70643 14.9993 4.16667C14.9993 4.6269 14.6263 5 14.166 5H7.91602C7.36348 5 6.83358 5.21949 6.44288 5.61019C6.05218 6.0009 5.83268 6.5308 5.83268 7.08333C5.83268 7.63587 6.05218 8.16577 6.44288 8.55647C6.83358 8.94717 7.36348 9.16667 7.91602 9.16667H12.0827C13.0772 9.16667 14.0311 9.56175 14.7343 10.265C15.4376 10.9683 15.8327 11.9221 15.8327 12.9167C15.8327 13.9112 15.4376 14.8651 14.7343 15.5683C14.0311 16.2716 13.0772 16.6667 12.0827 16.6667H4.99935C4.53911 16.6667 4.16602 16.2936 4.16602 15.8333C4.16602 15.3731 4.53911 15 4.99935 15H12.0827C12.6352 15 13.1651 14.7805 13.5558 14.3898C13.9465 13.9991 14.166 13.4692 14.166 12.9167C14.166 12.3641 13.9465 11.8342 13.5558 11.4435C13.1651 11.0528 12.6352 10.8333 12.0827 10.8333H7.91602C6.92145 10.8333 5.96763 10.4382 5.26437 9.73498C4.5611 9.03172 4.16602 8.0779 4.16602 7.08333C4.16602 6.08877 4.5611 5.13494 5.26437 4.43168Z" fill="#2D2D2D"/>
</svg>
