<svg width="20" height="20" viewBox="0 0 20 20" fill="none" xmlns="http://www.w3.org/2000/svg">
<path fill-rule="evenodd" clip-rule="evenodd" d="M9.16699 3.33341C5.94533 3.33341 3.33366 5.94509 3.33366 9.16675C3.33366 12.3884 5.94533 15.0001 9.16699 15.0001C12.3887 15.0001 15.0003 12.3884 15.0003 9.16675C15.0003 5.94509 12.3887 3.33341 9.16699 3.33341ZM1.66699 9.16675C1.66699 5.02461 5.02486 1.66675 9.16699 1.66675C13.3091 1.66675 16.667 5.02461 16.667 9.16675C16.667 13.3089 13.3091 16.6667 9.16699 16.6667C5.02486 16.6667 1.66699 13.3089 1.66699 9.16675Z" fill="#36414F"/>
<path fill-rule="evenodd" clip-rule="evenodd" d="M13.2861 13.2858C13.6115 12.9604 14.1391 12.9604 14.4646 13.2858L18.0896 16.9108C18.415 17.2363 18.415 17.7639 18.0896 18.0893C17.7641 18.4148 17.2365 18.4148 16.9111 18.0893L13.2861 14.4643C12.9606 14.1389 12.9606 13.6113 13.2861 13.2858Z" fill="#36414F"/>
</svg>
