<svg width="147" height="195" viewBox="0 0 147 195" fill="none" xmlns="http://www.w3.org/2000/svg">
<path d="M28.8476 42.8338L0.84577 98.8375C-0.119064 100.767 -0.264812 103.004 0.441508 105.043L29.7423 189.609C31.1887 193.784 35.7418 195.999 39.9193 194.561L124.924 165.302C129.136 163.852 131.356 159.245 129.866 155.047L99.8432 70.4902C99.1319 68.4868 97.6533 66.8482 95.7332 65.9355L39.4524 39.1813C35.5126 37.3084 30.7985 38.9321 28.8476 42.8338Z" fill="#FF8B6A"/>
<path d="M42.5806 27.631L14.5788 83.6347C13.6139 85.5644 13.4682 87.8016 14.1745 89.8402L43.4753 174.406C44.9217 178.581 49.4748 180.796 53.6523 179.358L138.657 150.099C142.869 148.649 145.089 144.042 143.599 139.844L113.576 55.2874C112.865 53.284 111.386 51.6454 109.466 50.7326L53.1854 23.9785C49.2456 22.1056 44.5315 23.7293 42.5806 27.631Z" stroke="#2D2D2D" stroke-width="1.5"/>
<path d="M65.2855 51.9949C65.2855 56.7265 61.4498 60.5622 56.7183 60.5622C51.9867 60.5622 48.151 56.7265 48.151 51.9949C48.151 47.2633 51.9867 43.4276 56.7183 43.4276C61.4498 43.4276 65.2855 47.2633 65.2855 51.9949Z" fill="white" stroke="#2D2D2D" stroke-width="1.5"/>
<path d="M57.8623 51.8308C52.4675 32.5948 37.9177 -3.12689 20.9161 2.62364C9.79958 6.38363 17.3741 36.7361 25.9839 49.5419" stroke="#2D2D2D" stroke-width="4"/>
<path d="M145.722 94.5008C145.722 106.276 136.176 115.822 124.401 115.822C112.626 115.822 103.08 106.276 103.08 94.5008C103.08 82.7257 112.626 73.18 124.401 73.18C136.176 73.18 145.722 82.7257 145.722 94.5008Z" fill="white" stroke="#2D2D2D" stroke-width="1.5"/>
<ellipse cx="124.4" cy="94.5003" rx="16.5539" ry="16.5539" fill="#5564D7"/>
<path d="M123.416 97.6518C123.416 95.52 123.416 95.5299 121.205 95.52C120.652 95.52 120.1 95.52 119.547 95.51C118.984 95.5001 118.677 95.2324 118.677 94.6771C118.677 94.102 118.974 93.755 119.567 93.7451C120.591 93.7153 121.615 93.7054 122.628 93.7451C123.242 93.7649 123.457 93.5567 123.426 92.9617C123.385 92.0594 123.416 91.1571 123.416 90.2448C123.416 89.6102 123.641 89.1045 124.399 89.1045C125.146 89.1045 125.381 89.5805 125.381 90.2349C125.381 91.1372 125.412 92.0495 125.371 92.9518C125.351 93.5269 125.535 93.7748 126.159 93.7451C127.121 93.7054 128.083 93.7451 129.046 93.7351C129.701 93.7351 130.131 93.9731 130.12 94.6672C130.12 95.3316 129.68 95.5299 129.076 95.5299C128.145 95.5299 127.213 95.5497 126.272 95.5299C125.617 95.51 125.31 95.6984 125.361 96.4025C125.422 97.275 125.371 98.1575 125.371 99.0301C125.371 99.6647 125.156 100.2 124.429 100.22C123.631 100.25 123.426 99.6746 123.406 99.0202C123.416 98.5641 123.416 98.1079 123.416 97.6518Z" fill="white"/>
</svg>
