<svg width="20" height="20" viewBox="0 0 20 20" fill="none" xmlns="http://www.w3.org/2000/svg">
<path fill-rule="evenodd" clip-rule="evenodd" d="M4.33366 1.16732C4.49104 0.957479 4.73803 0.833984 5.00033 0.833984H15.0003C15.2626 0.833984 15.5096 0.957479 15.667 1.16732L18.167 4.50065C18.2752 4.6449 18.3337 4.82034 18.3337 5.00065V16.6673C18.3337 17.3304 18.0703 17.9662 17.6014 18.4351C17.1326 18.9039 16.4967 19.1673 15.8337 19.1673H4.16699C3.50395 19.1673 2.86807 18.9039 2.39923 18.4351C1.93038 17.9662 1.66699 17.3304 1.66699 16.6673V5.00065C1.66699 4.82034 1.72547 4.6449 1.83366 4.50065L4.33366 1.16732ZM5.41699 2.50065L3.33366 5.27843V5.83398V16.6673C3.33366 16.8883 3.42146 17.1003 3.57774 17.2566C3.73402 17.4129 3.94598 17.5006 4.16699 17.5006H15.8337C16.0547 17.5006 16.2666 17.4129 16.4229 17.2566C16.5792 17.1003 16.667 16.8883 16.667 16.6673V5.83398V5.27843L14.5837 2.50065H5.41699Z" fill="#FF8B6A"/>
<path fill-rule="evenodd" clip-rule="evenodd" d="M1.66699 5.00065C1.66699 4.54041 2.04009 4.16732 2.50033 4.16732H17.5003C17.9606 4.16732 18.3337 4.54041 18.3337 5.00065C18.3337 5.46089 17.9606 5.83398 17.5003 5.83398H16.667H3.33366H2.50033C2.04009 5.83398 1.66699 5.46089 1.66699 5.00065Z" fill="#FF8B6A"/>
<path fill-rule="evenodd" clip-rule="evenodd" d="M3.33366 5.83398V16.6673C3.33366 16.8883 3.42146 17.1003 3.57774 17.2566C3.73402 17.4129 3.94598 17.5006 4.16699 17.5006H15.8337C16.0547 17.5006 16.2666 17.4129 16.4229 17.2566C16.5792 17.1003 16.667 16.8883 16.667 16.6673V5.83398H3.33366ZM6.66699 7.50065C7.12723 7.50065 7.50033 7.87375 7.50033 8.33398C7.50033 8.99702 7.76372 9.63291 8.23256 10.1018C8.7014 10.5706 9.33728 10.834 10.0003 10.834C10.6634 10.834 11.2993 10.5706 11.7681 10.1018C12.2369 9.63291 12.5003 8.99702 12.5003 8.33398C12.5003 7.87375 12.8734 7.50065 13.3337 7.50065C13.7939 7.50065 14.167 7.87375 14.167 8.33398C14.167 9.43905 13.728 10.4989 12.9466 11.2803C12.1652 12.0617 11.1054 12.5007 10.0003 12.5007C8.89526 12.5007 7.83545 12.0617 7.05405 11.2803C6.27265 10.4989 5.83366 9.43905 5.83366 8.33398C5.83366 7.87375 6.20676 7.50065 6.66699 7.50065Z" fill="#FF8B6A"/>
</svg>
