<svg width="20" height="20" viewBox="0 0 20 20" fill="none" xmlns="http://www.w3.org/2000/svg">
<g clip-path="url(#clip0_0_1074)">
<path d="M13.3329 19.1665C12.8329 19.1665 12.4996 18.8331 12.4996 18.3331V15.0831C12.5829 14.4165 12.3329 13.9165 11.9162 13.4998C11.6662 13.2498 11.5829 12.9165 11.7496 12.6665C11.8329 12.3331 12.1662 12.1665 12.4162 12.0831C14.8329 11.8331 17.0829 10.9998 17.0829 7.08313C17.0829 6.16646 16.7496 5.24979 16.0829 4.49979C15.8329 4.24979 15.8329 3.91646 15.9162 3.66646C16.1662 2.99979 16.1662 2.33312 15.9996 1.66646C15.5829 1.74979 14.9162 1.99979 13.8329 2.74979C13.6662 2.91646 13.4162 2.91646 13.1662 2.83313C11.4162 2.33313 9.49956 2.33313 7.74956 2.83313C7.49956 2.91646 7.24956 2.91646 6.99956 2.74979C5.99956 1.99979 5.24956 1.74979 4.83289 1.66646C4.66623 2.33312 4.66623 2.99979 4.91623 3.66646C4.99956 3.99979 4.99956 4.33313 4.74956 4.49979C4.08289 5.24979 3.74956 6.16646 3.74956 7.08313C3.74956 10.9998 5.99956 11.8331 8.41623 12.0831C8.74956 12.0831 8.99956 12.3331 9.08289 12.6665C9.16623 12.9998 9.08289 13.3331 8.91623 13.4998C8.49956 13.9165 8.33289 14.4165 8.33289 14.9998V15.7498V15.8331V18.2498C8.33289 18.7498 7.99956 19.0831 7.49956 19.0831C6.99956 19.0831 6.66623 18.7498 6.66623 18.2498V16.8331C4.16623 17.2498 3.08289 15.8331 2.33289 14.9165C1.99956 14.4998 1.74956 14.1665 1.41623 14.0831C0.999559 13.9998 0.666226 13.4998 0.832893 13.0831C0.916226 12.6665 1.41623 12.3331 1.83289 12.4998C2.66623 12.7498 3.16623 13.3331 3.66623 13.9165C4.33289 14.8331 4.91623 15.4998 6.66623 15.1665V15.0831C6.66623 14.5831 6.74956 13.9998 6.91623 13.5831C4.58289 13.0831 2.08289 11.5831 2.08289 7.16646C2.08289 5.91646 2.49956 4.74979 3.24956 3.83313C2.91623 2.66646 2.99956 1.58312 3.49956 0.499792C3.58289 0.249792 3.74956 0.0831249 3.99956 -0.000208437C4.33289 -0.0835418 5.41623 -0.250208 7.66623 1.16646C9.49956 0.749792 11.4162 0.749792 13.1662 1.16646C15.3329 -0.250208 16.4996 -0.0835418 16.8329 -0.000208437C17.0829 0.0831249 17.2496 0.249792 17.3329 0.499792C17.7496 1.58312 17.8329 2.66646 17.5829 3.74979C18.3329 4.66646 18.7496 5.83313 18.7496 7.08313C18.7496 11.8331 15.9162 13.0831 13.9162 13.5831C14.0829 14.0831 14.1662 14.6665 14.1662 15.1665V18.3331C14.1662 18.8331 13.8329 19.1665 13.3329 19.1665Z" fill="#2D2D2D"/>
</g>
<defs>
<clipPath id="clip0_0_1074">
<rect width="20" height="20" fill="white"/>
</clipPath>
</defs>
</svg>
