<svg width="627" height="484" viewBox="0 0 627 484" fill="none" xmlns="http://www.w3.org/2000/svg">
<path d="M541.147 397.959C541.147 398.749 539.832 399.461 537.175 399.789H530.42C527.765 399.461 526.451 398.749 526.451 397.94C526.451 397.131 527.765 396.438 530.42 396.091H537.175C539.832 396.438 541.147 397.131 541.147 397.959ZM570.535 397.755C570.587 398.145 570.307 398.545 569.633 398.921C568.957 399.306 567.861 399.66 566.566 399.789H559.812C557.156 399.461 555.842 398.749 555.842 397.94C555.842 397.131 557.156 396.438 559.812 396.091H566.566C567.932 396.297 568.817 396.466 569.459 396.727C570.104 396.995 570.48 397.346 570.535 397.755ZM584.516 372.68C585.219 372.68 585.854 374.156 586.146 377.14C586.18 379.545 586.179 382.535 585.43 385.171C584.285 388.247 582.865 389.147 582.292 388.745C581.643 388.315 581.877 386.794 582.266 384.14C582.877 381.916 582.879 379.777 582.851 377.14C583.161 374.156 583.778 372.68 584.516 372.68ZM584.516 339.69C585.219 339.69 585.854 341.165 586.146 344.149V351.73C585.854 354.71 585.219 356.185 584.499 356.185C583.778 356.185 583.161 354.71 582.851 351.73V344.149C583.161 341.165 583.778 339.69 584.516 339.69ZM584.516 306.699C585.219 306.699 585.854 308.175 586.146 311.158V318.739C585.854 321.719 585.219 323.195 584.499 323.195C583.778 323.195 583.161 321.719 582.851 318.739V311.158C583.161 308.175 583.778 306.699 584.516 306.699ZM576.438 276.914C576.753 276.267 578.384 276.278 580.726 278.329C582.496 280.275 583.914 282.631 584.835 285.219C585.628 288.435 585.007 290.13 584.337 290.209C583.588 290.321 582.935 288.963 581.78 286.603C581.029 284.49 579.868 282.562 578.419 280.969C576.914 278.865 576.05 277.664 576.438 276.914ZM547.442 274.353C547.442 273.565 548.757 272.851 551.414 272.524H558.168C560.823 272.851 562.138 273.565 562.138 274.374C562.138 275.182 560.823 275.876 558.168 276.223H551.414C548.757 275.876 547.442 275.182 547.442 274.353ZM518.397 276.717C518.054 276.085 518.875 274.504 521.632 273.256C524.009 272.443 526.629 272.504 528.775 272.524C531.432 272.851 532.747 273.565 532.747 274.374C532.747 275.182 531.432 275.876 528.775 276.223C526.431 276.205 524.48 276.156 522.509 276.821C520.139 277.225 518.78 277.468 518.397 276.717ZM510.016 306.291C509.313 306.291 508.678 304.815 508.386 301.832V294.251C508.493 292.803 508.856 291.533 509.19 290.799C509.531 290.048 509.894 289.74 510.249 289.806C510.604 289.871 510.91 290.297 511.142 291.024C511.384 291.768 511.49 292.716 511.681 294.251V301.832C511.371 304.815 510.754 306.291 510.016 306.291ZM510.016 339.281C509.313 339.281 508.678 337.806 508.386 334.822V327.241C508.678 324.261 509.313 322.786 510.033 322.786C510.754 322.786 511.371 324.261 511.681 327.241V334.822C511.371 337.806 510.754 339.281 510.016 339.281ZM510.016 372.271C509.313 372.271 508.678 370.796 508.386 367.813V360.232C508.678 357.252 509.313 355.776 510.033 355.776C510.754 355.776 511.371 357.252 511.681 360.232V367.813C511.371 370.796 510.754 372.271 510.016 372.271ZM523.626 397.687C523.537 398.417 522.01 399.06 519.172 398.069C516.899 396.954 514.846 395.293 513.17 393.248C511.42 390.561 511.46 388.732 512.061 388.391C512.726 387.987 513.768 388.992 515.592 390.741C516.964 392.416 518.644 393.776 520.501 394.685C522.565 396.055 523.752 396.831 523.626 397.687Z" fill="#BBCAEA"/>
<path d="M327.767 263.136C327.558 263.299 327.287 263.362 326.956 263.388C325.373 268.015 307.844 318.878 286.546 348.9C275.76 364.095 264.021 373.944 252.884 369.722C218.763 356.726 205.641 331.125 205.641 331.125L241.454 284.653C241.454 284.653 247.596 290.941 254.388 297.378C262.249 304.818 270.96 312.424 272.047 310.685C273.77 307.971 301.336 264.756 310.288 251.346C310.288 251.346 310.288 251.346 310.293 251.327C310.103 246.672 309.824 234.786 311.356 233.116C313.308 231.039 316.312 240.686 316.208 243.505C316.103 246.324 340.751 207.591 342.338 223.216C343.925 238.841 330.374 261.188 327.767 263.136Z" fill="#FEC9AC"/>
<path opacity="0.5" d="M285.343 350.559C274.884 364.648 263.418 373.707 252.377 369.577C218.548 356.866 205.29 332.652 205.29 332.652L240.068 289.608C240.068 289.608 246.205 295.6 252.986 301.741C255.284 312.244 258.803 322.38 264.325 331.178C269.6 339.581 276.966 346.635 285.343 350.559Z" fill="#FFAB90"/>
<path d="M56.3157 366.301C57.0124 366.692 57.709 367.009 58.4055 367.241L56.0001 393.606L54.479 438.39H220.51L214.524 362.538L213.022 351.775C214.209 352.679 216.124 353.192 218.453 352.899C218.552 352.886 218.649 352.874 218.747 352.862C218.9 352.837 219.063 352.801 219.226 352.776C219.422 352.74 219.629 352.691 219.836 352.642C219.879 352.63 219.923 352.618 219.966 352.605C220.217 352.544 220.467 352.471 220.717 352.385C221.164 352.239 221.621 352.068 222.089 351.86C222.154 351.836 222.23 351.811 222.306 351.775C222.568 351.652 222.829 351.518 223.101 351.384C223.242 351.31 223.384 351.237 223.525 351.151C223.667 351.078 223.797 350.993 223.95 350.907C224.102 350.822 224.244 350.736 224.396 350.639C224.668 350.467 224.951 350.272 225.234 350.077C225.539 349.869 225.855 349.637 226.159 349.392C226.431 349.172 226.704 348.94 226.987 348.708C227.128 348.586 227.27 348.464 227.422 348.317C227.574 348.183 227.727 348.048 227.868 347.902C229.196 346.656 230.546 345.116 231.873 343.272C232.026 343.064 232.167 342.856 232.32 342.636C232.461 342.429 232.613 342.209 232.755 341.989C236.009 337.114 239.122 330.297 241.658 320.951C241.799 320.426 241.941 319.888 242.082 319.351C242.779 316.639 243.432 313.719 244.02 310.591C244.139 309.968 244.259 309.333 244.368 308.685C244.488 308.05 244.597 307.391 244.706 306.731C245.032 304.751 245.337 302.687 245.62 300.537C245.707 299.84 245.805 299.132 245.892 298.411C246.001 297.446 246.109 296.469 246.218 295.479C246.436 293.427 246.643 291.301 246.817 289.114C246.817 289.114 242.268 276.677 223.014 256.702C216.037 249.477 204.107 238.31 195.935 232.879C174.612 218.628 150.528 214.924 125.897 219.135C123.219 219.599 120.564 220.149 117.93 220.809C94.8558 226.441 73.6646 239.098 56.4682 256.739C50.9501 262.408 46.0196 267.832 41.7097 272.841C27.419 289.407 19.8546 301.282 19.8546 301.282C19.8546 301.282 20.3879 302.846 21.3676 305.509C26.1782 318.618 41.7097 358.274 56.3157 366.301Z" fill="#FF8B6A"/>
<path d="M163.911 222.411C161.715 229.709 153.568 234.724 147.394 236.627C141.538 238.433 135.336 238.584 129.461 236.843C116.228 232.919 115.9 223.719 115.9 223.719C118.135 222.909 119.223 216.509 119.733 209.622C120.379 200.941 120.128 191.493 120.128 191.493H155.272C155.272 191.493 156.303 203.482 157.42 212.714C157.651 214.574 158.229 216.357 159.134 217.903C159.934 219.297 160.984 220.519 162.255 221.438C163.208 222.13 163.911 222.411 163.911 222.411Z" fill="#FEC9AC"/>
<path opacity="0.5" d="M159.135 217.903C147.125 222.779 132.948 221.189 122.778 212.541C121.709 211.633 120.697 210.66 119.734 209.622C120.38 200.941 120.129 191.493 120.129 191.493H155.273C155.273 191.493 156.304 203.482 157.421 212.714C157.652 214.574 158.23 216.357 159.135 217.903Z" fill="#FFAB90"/>
<path d="M167.063 178.168C166.117 185.723 164.75 193.691 160.154 199.309C156.074 204.291 149.933 206.663 143.907 206.982C140.637 207.159 137.324 206.781 134.233 205.565C127.965 203.111 123.117 197.515 118.764 191.908C117.147 189.839 115.555 187.726 114.054 185.54C112.5 183.278 110.559 181.415 108.477 179.774C108.467 179.766 108.457 179.758 108.447 179.751C106.786 178.441 105.429 176.693 104.146 174.946C103.116 173.554 102.075 172.078 101.812 170.319C101.57 168.725 102.012 167.061 102.832 165.751C103.337 164.972 103.947 164.299 104.641 163.732C103.295 155.564 104.073 146.924 106.965 139.263C110.814 129.065 118.353 120.695 127.492 116.505L161.532 110.509C161.679 116.221 163.856 121.569 165.402 126.999C170.092 143.383 169.188 161.112 167.063 178.168Z" fill="#FEC9AC"/>
<path d="M180.831 128.762C179.467 132.317 177.755 135.786 175.218 138.415C172.682 141.045 169.219 142.736 165.795 142.245C162.95 141.826 160.452 139.99 157.813 138.69C156.062 137.809 153.693 138.083 151.569 138.849C149.252 139.716 146.818 140.15 144.385 139.904L142.248 139.702C142.57 137.967 144.759 137.895 145.982 136.768C137.356 135.742 128.435 141.783 125.216 150.828C124.044 154.153 120.44 166.06 120.44 166.06C120.44 166.06 116.874 163.343 115.316 162.664C113.243 161.768 110.887 161.118 108.686 161.739C106.961 162.216 105.364 163.603 104.875 165.525C104.051 161.637 102.316 158.496 100.833 155.121C98.607 150.058 97.846 144.297 98.3095 138.676C98.7568 133.116 100.266 127.46 101.682 122.201C103.021 117.274 104.399 112.274 106.922 107.968C110.45 101.956 116.037 97.6931 122.088 95.2799C128.125 92.8668 134.627 92.188 141.038 92.2599C145.158 92.3178 149.303 92.6791 153.243 94.0522C157.169 95.4246 160.877 97.8956 163.387 101.566C165.376 104.494 166.497 107.934 168.202 111.06C170.7 115.641 174.459 119.355 178.823 121.552C179.596 121.942 180.42 122.303 180.973 123.04C182.132 124.572 181.552 126.913 180.831 128.762Z" fill="#2E363A"/>
<path opacity="0.5" d="M113.811 176.927C113.888 177.794 113.27 178.661 112.51 178.762C112.137 178.82 111.776 178.719 111.429 178.559C110.219 178.025 109.292 176.898 108.494 175.742C107.039 173.646 105.751 171.219 105.7 168.56C105.687 167.721 105.816 166.826 106.318 166.204C107.026 165.323 108.275 165.265 109.305 165.583C111.377 166.204 113.09 168.126 113.669 170.439L113.811 176.927Z" fill="#FFAB90"/>
<path d="M162.692 122.173C160.13 123.965 156.809 123.343 153.886 122.491C149.329 121.161 144.707 119.384 140.034 120.049C135.399 120.684 131.112 123.878 128.757 128.387C128.177 129.514 127.701 130.713 127.006 131.754C125.306 134.283 122.435 135.525 119.629 135.757C116.809 135.988 114.016 135.323 111.261 134.658C108.557 134.022 105.867 133.373 103.176 132.722C101.876 132.404 100.601 132.1 99.2752 132.028C99.9318 128.719 100.807 125.453 101.683 122.201C103.021 117.274 104.399 112.274 106.922 107.968C110.45 101.956 116.037 97.6931 122.088 95.2799C128.126 92.8668 134.627 92.188 141.038 92.2599C145.158 92.3178 149.303 92.6791 153.243 94.0522C157.169 95.4246 160.877 97.8956 163.387 101.566C164.173 102.723 164.829 103.979 165.447 105.266C165.679 107.404 166.065 109.557 166.207 111.711C166.477 115.627 165.666 120.107 162.692 122.173Z" fill="#3A4146"/>
<path d="M131.181 156.973C131.044 156.882 131.023 156.543 131.239 155.981C131.458 155.431 131.929 154.645 132.829 153.919C134.401 152.786 136.425 152.429 138.231 152.965C139.285 153.346 139.947 153.931 140.306 154.38C140.664 154.841 140.735 155.173 140.628 155.309C140.384 155.634 139.565 154.998 137.853 154.645C136.426 154.227 134.892 154.498 133.647 155.387C132.113 156.314 131.509 157.202 131.181 156.973ZM153.247 152.002C153.039 151.777 153.499 150.618 155.347 149.512C156.951 148.729 158.725 148.418 160.466 148.613C162.525 149.032 163.278 149.978 163.138 150.271C162.987 150.651 162.067 150.389 160.316 150.337C158.841 150.169 157.318 150.437 155.959 151.103C154.305 151.753 153.5 152.319 153.247 152.002ZM146.049 181.505C146.18 181.372 146.615 181.761 147.428 182.398C147.833 182.702 148.36 183.059 148.98 183.207C149.569 183.35 150.411 183.226 150.844 182.685C151.628 181.892 151.066 179.498 150.871 177.636C150.595 175.687 150.23 173.753 149.783 171.843C148.838 167.308 148.236 165.062 148.579 164.911C148.861 164.78 150.024 166.809 151.276 171.402C151.99 174.453 152.466 177.407 152.757 180.397C152.799 180.929 152.826 181.504 152.731 182.125C152.64 182.742 152.385 183.415 151.931 183.915C150.786 185.032 149.503 184.907 148.626 184.586C147.73 184.214 147.195 183.633 146.818 183.171C146.091 182.212 145.93 181.622 146.049 181.505ZM148.505 192.724C148.543 192.889 148.218 193.195 147.457 193.467C146.701 193.729 145.49 193.995 143.875 193.796C141.166 193.334 138.574 191.953 136.662 189.631C135.594 188.187 135.23 186.698 135.277 185.743C135.319 184.773 135.619 184.375 135.763 184.414C136.146 184.465 135.834 186.227 137.813 188.477C139.405 190.421 141.728 191.692 144.102 192.082C146.914 192.661 148.416 192.275 148.505 192.724Z" fill="#4F2D2A"/>
<path d="M158.698 167.311C159.675 167.311 160.467 165.713 160.467 163.742C160.467 161.771 159.675 160.174 158.698 160.174C157.722 160.174 156.93 161.771 156.93 163.742C156.93 165.713 157.722 167.311 158.698 167.311Z" fill="#4F2D2A"/>
<path d="M137.962 169.274C138.938 169.274 139.73 167.676 139.73 165.705C139.73 163.734 138.938 162.137 137.962 162.137C136.985 162.137 136.193 163.734 136.193 165.705C136.193 167.676 136.985 169.274 137.962 169.274Z" fill="#4F2D2A"/>
<path d="M246.813 289.118C241.806 351.217 218.852 356.214 213.018 351.779L214.52 362.542C207.957 345.133 201.383 327.711 194.809 310.302C197.835 316.863 206.988 316.667 211.831 311.671C216.686 306.674 218.264 298.916 219.374 291.647C221.148 280.078 222.356 268.41 223.009 256.707C242.263 276.681 246.813 289.118 246.813 289.118Z" fill="#FF8B6A"/>
<path d="M210.137 326.657C208.026 322.857 205.86 319.082 203.672 315.319C202.257 312.876 200.842 310.432 199.416 308.001C198.6 309.712 197.729 311.386 196.793 313.035C196.619 313.365 196.423 313.707 196.227 314.036C186.519 330.847 171.619 343.87 154.662 350.162C135.713 357.187 114.391 355.745 96.3348 346.216C96.1802 346.134 96.0301 346.046 95.876 345.963C86.257 349.534 78.6074 358.082 70.8263 365.042C66.3079 369.083 61.8671 373.238 57.4725 377.455L55.999 393.606L54.478 438.39H220.509L214.523 362.538L213.021 351.775C214.208 352.679 216.123 353.192 218.452 352.899C218.55 352.887 218.648 352.874 218.746 352.862C218.899 352.837 219.062 352.801 219.225 352.776C219.421 352.74 219.628 352.691 219.835 352.642C219.878 352.63 219.922 352.618 219.965 352.605C220.216 352.544 220.466 352.471 220.716 352.386C221.162 352.239 221.62 352.068 222.088 351.86C222.153 351.836 222.229 351.811 222.305 351.775C222.567 351.652 222.828 351.518 223.1 351.384C219.095 342.966 214.697 334.756 210.137 326.657Z" fill="#FF8B6A"/>
<path d="M65.5389 353.675C65.3619 353.991 63.9854 353.52 61.5344 351.91C59.1097 350.277 55.5853 347.484 51.6305 342.809C44.7417 334.209 41.8565 327.012 37.2401 314.842C33.1501 303.182 31.5775 297.195 32.2406 296.879C32.9037 296.563 35.6298 302.001 40.2729 313.399C44.8583 325.481 47.6074 332.256 54.0803 340.336C57.61 344.988 60.6799 348.049 62.6986 350.136C64.7382 352.2 65.7464 353.308 65.5389 353.675Z" fill="white"/>
<path d="M158.838 237.34C159.075 237.595 158.45 238.972 156.547 241.139C154.639 243.264 151.371 246.2 146.216 248.454C137.396 251.989 127.367 251.338 118.939 246.816C114.027 244.11 110.865 240.409 109.844 237.342C108.783 234.239 109.487 232.552 109.757 232.615C110.184 232.602 110.259 234.118 111.584 236.323C112.89 238.542 115.697 241.248 120.349 243.473C128.014 247.584 137.125 248.174 145.12 244.966C149.899 243.224 153.163 240.954 155.312 239.426C157.456 237.866 158.559 237.033 158.838 237.34Z" fill="white"/>
<path d="M91.3359 438.39H323.19C324.245 438.39 325.1 437.43 325.1 436.246V429.901C325.1 428.717 324.245 427.757 323.19 427.757H91.3359C90.2808 427.757 89.4255 428.717 89.4255 429.901V436.246C89.4255 437.43 90.2808 438.39 91.3359 438.39Z" fill="#2E363A"/>
<path d="M145.1 427.773H320.032L327.266 396.962L351.198 294.77C352.542 289.058 349.454 284.436 344.364 284.436H187.903C186.388 284.436 184.901 284.822 183.471 285.56C180.069 287.229 177.21 290.727 176.266 294.77L145.1 427.773Z" fill="#4A5258"/>
<path d="M145.1 427.773H320.032L327.266 396.962C322.319 397.924 317.315 398.598 312.283 398.952C280.688 401.102 248.492 388.938 224.445 365.765C203.201 345.288 188.561 316.434 183.471 285.56C180.069 287.229 177.21 290.727 176.266 294.77L145.1 427.773Z" fill="#3A4146"/>
<path d="M173.691 427.781H145.098L145.612 425.631C152.36 424.99 163.797 425.823 173.691 427.781Z" fill="#3A4146"/>
<path d="M263.551 362.066C265.959 353.909 262.945 345.448 256.819 343.17C250.693 340.891 243.775 345.657 241.367 353.814C238.958 361.972 241.972 370.432 248.098 372.711C254.224 374.989 261.142 370.224 263.551 362.066Z" fill="#3A4146"/>
<path d="M261.689 361.374C263.694 354.584 261.186 347.543 256.087 345.646C250.988 343.749 245.23 347.716 243.225 354.506C241.221 361.296 243.729 368.337 248.828 370.234C253.926 372.131 259.685 368.164 261.689 361.374Z" fill="white"/>
<path d="M136.643 434.047C136.654 440.088 105.019 445.383 83.3821 439.802C78.3217 438.484 71.5008 435.178 63.9156 430.405C39.0346 414.745 6.07025 383.51 1.04306 356.588C0.301256 352.536 -0.0309873 348.721 0.00226478 345.166C0.201636 317.722 20.7863 304.348 20.7863 304.348C20.9081 304.56 21.0299 304.771 21.174 304.995C21.174 305.007 21.1849 305.007 21.1849 305.019C21.2404 305.181 21.2956 305.343 21.3621 305.504C25.891 317.822 39.8651 353.581 53.662 364.506C53.3741 364.804 53.1084 365.065 52.8759 365.326C52.8094 365.401 52.7541 365.488 52.7541 365.587C50.5728 371.031 86.6597 412.507 86.6597 412.507C86.6597 412.507 91.0667 415.466 97.0905 413.452C103.136 411.438 114.508 407.511 115.937 413.365C117.343 419.244 91.4322 426.565 101.52 425.471C109.891 424.589 128.471 426.913 134.628 431.189C135.89 432.046 136.643 433.016 136.643 434.047Z" fill="#FEC9AC"/>
<path opacity="0.5" d="M53.6617 364.506C53.3738 364.804 53.1081 365.065 52.8756 365.326C52.8091 365.401 52.7538 365.488 52.7538 365.587C43.1424 356.713 31.693 350.361 19.5569 347.304C13.1457 345.675 6.57926 344.979 0.00195314 345.166C0.201324 317.722 20.786 304.348 20.786 304.348C20.9078 304.56 21.0296 304.771 21.1737 304.995C21.1737 305.007 21.1846 305.007 21.1846 305.019C21.24 305.181 21.2953 305.343 21.3618 305.504C25.8907 317.822 39.8648 353.581 53.6617 364.506Z" fill="#FFAB90"/>
<path d="M136.808 434.053C136.829 440.094 105.196 445.395 83.5392 439.808C78.4974 438.494 71.6687 435.176 64.074 430.4C48.7785 420.776 30.3982 405.231 17.3576 388.444H66.9674C76.3062 400.408 86.8154 412.514 86.8154 412.514C86.8154 412.514 91.2402 415.476 97.2607 413.446C99.4733 412.705 102.387 411.726 105.281 411.033L102.345 423.594C99.239 425.074 97.8352 425.886 101.686 425.481C101.749 425.481 101.834 425.456 101.919 425.456C106.94 424.979 115.449 425.6 122.81 427.056C127.83 428.059 132.319 429.468 134.787 431.188C136.063 432.047 136.808 433.026 136.808 434.053Z" fill="#FEC9AC"/>
<path d="M627 475.534V476.525C627 480.415 624.188 483.571 620.709 483.571H79.6435C76.165 483.571 73.3525 480.415 73.3525 476.525V475.534C73.3525 471.645 70.54 468.488 67.0751 468.488H22.3859C18.9212 468.488 16.1085 465.331 16.1085 461.442V459.779C16.1085 455.89 18.9212 452.733 22.3859 452.733H32.9432C36.4081 452.733 39.2208 449.575 39.2208 445.687C39.2208 441.782 42.0333 438.625 45.5116 438.625H600.288C603.752 438.625 606.565 441.782 606.565 445.687C606.565 447.638 605.858 449.393 604.731 450.674C603.589 451.94 602.027 452.733 600.288 452.733H596.401C592.937 452.733 590.124 455.89 590.124 459.779V461.442C590.124 465.331 592.937 468.488 596.401 468.488H620.709C624.188 468.488 627 471.645 627 475.534Z" fill="#CE704C"/>
<path d="M620.709 468.487H596.401C594.592 468.487 592.973 467.614 591.827 466.238H17.8117C18.9578 467.614 20.5763 468.487 22.3853 468.487H67.0745C70.5394 468.487 73.3519 471.645 73.3519 475.534V476.525C73.3519 480.414 76.1644 483.571 79.6429 483.571H620.709C624.187 483.571 627 480.414 627 476.525V475.534C627 471.645 624.187 468.487 620.709 468.487Z" fill="#C16244"/>
<path d="M462.933 300.14C462.23 300.14 461.595 300.049 461.303 299.865V299.398C461.595 299.214 462.23 299.123 462.951 299.123C463.671 299.123 464.289 299.214 464.598 299.398V299.865C464.289 300.049 463.671 300.14 462.933 300.14Z" fill="#F3F6FD"/>
<path d="M431.082 240.036V315.281C431.082 318.431 433.357 320.984 436.163 320.984H542.415C545.221 320.984 547.496 318.431 547.496 315.281V240.036H431.082Z" fill="#F6F6FE"/>
<path d="M547.496 240.037V228.837C547.496 225.687 545.221 223.134 542.415 223.134H436.163C433.357 223.134 431.082 225.687 431.082 228.837V240.037H547.496Z" fill="#64D3FF"/>
<path d="M461.967 256.938V263.628C461.967 265.268 460.785 266.595 459.34 266.595H446.812C445.351 266.595 444.168 265.268 444.168 263.628V256.938C444.168 255.316 445.351 253.989 446.812 253.989H459.34C460.785 253.989 461.967 255.316 461.967 256.938ZM486.114 256.938V263.628C486.114 265.268 484.932 266.595 483.487 266.595H470.959C469.498 266.595 468.315 265.268 468.315 263.628V256.938C468.315 255.316 469.498 253.989 470.959 253.989H483.487C484.932 253.989 486.114 255.316 486.114 256.938ZM510.261 256.938V263.628C510.261 265.268 509.079 266.595 507.634 266.595H495.106C493.645 266.595 492.462 265.268 492.462 263.628V256.938C492.462 255.316 493.645 253.989 495.106 253.989H507.634C509.079 253.989 510.261 255.316 510.261 256.938ZM534.408 256.938V263.628C534.408 265.268 533.226 266.595 531.781 266.595H519.253C517.791 266.595 516.609 265.268 516.609 263.628V256.938C516.609 255.316 517.791 253.989 519.253 253.989H531.781C533.226 253.989 534.408 255.316 534.408 256.938Z" fill="#D1DCF8"/>
<path d="M461.968 277.156V283.846C461.968 285.487 460.786 286.813 459.341 286.813H446.813C445.352 286.813 444.169 285.487 444.169 283.846V277.156C444.169 275.534 445.352 274.207 446.813 274.207H459.341C460.786 274.207 461.968 275.534 461.968 277.156ZM486.115 277.156V283.846C486.115 285.487 484.933 286.813 483.488 286.813H470.96C469.499 286.813 468.316 285.487 468.316 283.846V277.156C468.316 275.534 469.499 274.207 470.96 274.207H483.488C484.933 274.207 486.115 275.534 486.115 277.156ZM510.262 277.156V283.846C510.262 285.487 509.08 286.813 507.635 286.813H495.107C493.645 286.813 492.463 285.487 492.463 283.846V277.156C492.463 275.534 493.645 274.207 495.107 274.207H507.635C509.08 274.207 510.262 275.534 510.262 277.156ZM534.409 277.156V283.846C534.409 285.487 533.227 286.813 531.782 286.813H519.254C517.792 286.813 516.61 285.487 516.61 283.846V277.156C516.61 275.534 517.792 274.207 519.254 274.207H531.782C533.227 274.207 534.409 275.534 534.409 277.156Z" fill="#D1DCF8"/>
<path d="M461.968 297.374V304.064C461.968 305.705 460.786 307.032 459.341 307.032H446.813C445.352 307.032 444.169 305.705 444.169 304.064V297.374C444.169 295.752 445.352 294.425 446.813 294.425H459.341C460.786 294.425 461.968 295.752 461.968 297.374ZM486.115 297.374V304.064C486.115 305.705 484.933 307.032 483.488 307.032H470.96C469.499 307.032 468.316 305.705 468.316 304.064V297.374C468.316 295.752 469.499 294.425 470.96 294.425H483.488C484.933 294.425 486.115 295.752 486.115 297.374ZM510.262 297.374V304.064C510.262 305.705 509.08 307.032 507.635 307.032H495.107C493.645 307.032 492.463 305.705 492.463 304.064V297.374C492.463 295.752 493.645 294.425 495.107 294.425H507.635C509.08 294.425 510.262 295.752 510.262 297.374ZM534.409 297.374V304.064C534.409 305.705 533.227 307.032 531.782 307.032H519.254C517.792 307.032 516.61 305.705 516.61 304.064V297.374C516.61 295.752 517.792 294.425 519.254 294.425H531.782C533.227 294.425 534.409 295.752 534.409 297.374Z" fill="#D1DCF8"/>
<path d="M455.471 223.112V231.482C455.471 234.107 457.359 236.245 459.698 236.245C462.037 236.245 463.941 234.107 463.941 231.482V223.112H455.471Z" fill="#42C1F4"/>
<path d="M462.666 217.222V229.626C462.666 232.251 460.763 234.388 458.424 234.388C456.084 234.388 454.197 232.251 454.197 229.626V217.222C454.197 214.596 456.084 212.459 458.424 212.459C459.585 212.459 460.65 213.002 461.424 213.853C462.199 214.722 462.666 215.9 462.666 217.222Z" fill="#E4ECF9"/>
<path d="M515.912 223.112V231.482C515.912 234.107 517.8 236.245 520.139 236.245C522.478 236.245 524.382 234.107 524.382 231.482V223.112H515.912Z" fill="#42C1F4"/>
<path d="M523.107 217.222V229.626C523.107 232.251 521.204 234.388 518.865 234.388C516.525 234.388 514.638 232.251 514.638 229.626V217.222C514.638 214.596 516.525 212.459 518.865 212.459C520.026 212.459 521.091 213.002 521.865 213.853C522.639 214.722 523.107 215.9 523.107 217.222Z" fill="#E4ECF9"/>
<path d="M552.666 113.723C580.643 113.723 603.323 88.2655 603.323 56.8617C603.323 25.4578 580.643 0 552.666 0C524.689 0 502.009 25.4578 502.009 56.8617C502.009 88.2655 524.689 113.723 552.666 113.723Z" fill="#D1DCF8"/>
<path d="M552.666 107.4C577.532 107.4 597.69 84.7733 597.69 56.8617C597.69 28.95 577.532 6.32317 552.666 6.32317C527.8 6.32317 507.642 28.95 507.642 56.8617C507.642 84.7733 527.8 107.4 552.666 107.4Z" fill="#F3F6FD"/>
<path d="M572.359 58.0622H546.626C546.053 58.0622 545.59 57.5422 545.59 56.8997C545.59 56.2571 546.053 55.7371 546.626 55.7371H572.359C572.932 55.7371 573.395 56.2571 573.395 56.8997C573.395 57.5422 572.932 58.0622 572.359 58.0622Z" fill="#D1DCF8"/>
<path d="M552.655 64.1215C552.37 64.1215 552.137 63.8615 552.137 63.5402V16.182C552.137 15.8607 552.37 15.6007 552.655 15.6007C552.94 15.6007 553.173 15.8607 553.173 16.182V63.5402C553.173 63.8615 552.94 64.1215 552.655 64.1215Z" fill="#FE4C40"/>
<path d="M535.975 80.3806C535.859 80.3806 535.742 80.3375 535.647 80.2489C535.424 80.0457 535.392 79.6801 535.574 79.4315L556.18 51.1537C556.36 50.9051 556.689 50.8676 556.908 51.072C557.13 51.2752 557.163 51.6408 556.981 51.8894L536.375 80.1672C536.274 80.308 536.124 80.3806 535.975 80.3806Z" fill="#D1DCF8"/>
<path d="M552.655 58.8631C553.599 58.8631 554.365 58.0039 554.365 56.9441C554.365 55.8843 553.599 55.0252 552.655 55.0252C551.711 55.0252 550.946 55.8843 550.946 56.9441C550.946 58.0039 551.711 58.8631 552.655 58.8631Z" fill="white"/>
<path d="M597.684 56.8613C597.684 84.7866 577.529 107.41 552.671 107.41C535.002 107.41 519.714 95.9937 512.34 79.3923C520.605 90.5762 533.075 97.7143 547.037 97.7143C571.894 97.7143 592.07 75.0672 592.07 47.1653C592.07 39.1203 590.392 31.4937 587.389 24.7277C593.831 33.4703 597.684 44.6542 597.684 56.8613Z" fill="#E4ECF9"/>
<path d="M491.51 217.948C492.216 217.936 492.864 219.4 493.224 222.358C493.289 224.869 493.37 227.383 493.531 229.85C493.419 232.829 493.084 234.053 492.463 234.388C491.752 234.758 490.711 233.108 490.245 230.126C490.078 227.548 489.997 225.006 489.931 222.46C490.17 219.449 490.775 217.961 491.51 217.948ZM491.733 184.95C492.436 184.974 493.047 186.469 493.292 189.454L493.172 197.022C492.833 199.992 492.175 201.461 491.454 201.455C490.733 201.449 490.14 199.965 489.878 196.971L489.998 189.367C490.354 186.383 490.995 184.926 491.733 184.95ZM474.593 172.073C474.593 171.283 475.908 170.571 478.567 170.244H485.325C487.982 170.571 489.297 171.283 489.297 172.092C489.297 172.901 487.982 173.595 485.325 173.941H478.567C475.908 173.595 474.593 172.901 474.593 172.073ZM445.206 172.073C445.206 171.283 446.52 170.571 449.178 170.244H455.933C458.588 170.571 459.903 171.283 459.903 172.092C459.903 172.901 458.588 173.595 455.933 173.941H449.178C446.52 173.595 445.206 172.901 445.206 172.073ZM415.797 172.073C415.797 171.283 417.113 170.571 419.772 170.244H426.532C429.189 170.571 430.504 171.283 430.504 172.092C430.504 172.901 429.189 173.595 426.532 173.941H419.772C417.113 173.595 415.797 172.901 415.797 172.073ZM413.768 141.4C414.471 141.4 415.106 142.875 415.398 145.858V153.44C415.106 156.42 414.471 157.895 413.75 157.895C413.03 157.895 412.412 156.42 412.103 153.44V145.858C412.412 142.875 413.03 141.4 413.768 141.4ZM413.768 108.41C414.471 108.41 415.106 109.885 415.398 112.868V120.449C415.106 123.429 414.471 124.905 413.75 124.905C413.03 124.905 412.412 123.429 412.103 120.449V112.868C412.412 109.885 413.03 108.41 413.768 108.41ZM413.768 75.4192C414.471 75.4192 415.106 76.8945 415.398 79.8772V87.459C415.106 90.4391 414.471 91.9144 413.75 91.9144C413.03 91.9144 412.412 90.4391 412.103 87.459V79.8772C412.412 76.8945 413.03 75.4192 413.768 75.4192ZM395.73 62.6357C395.73 61.8464 397.045 61.1336 399.703 60.8067H406.456C409.111 61.1336 410.426 61.8464 410.426 62.6551C410.426 63.4646 409.111 64.1579 406.456 64.5043H399.703C397.045 64.1579 395.73 63.4646 395.73 62.6357ZM366.34 62.6357C366.34 61.8464 367.654 61.1336 370.312 60.8067H377.066C379.721 61.1336 381.035 61.8464 381.035 62.6551C381.035 63.4646 379.721 64.1579 377.066 64.5043H370.312C367.654 64.1579 366.34 63.4646 366.34 62.6357ZM342.468 62.6357C342.468 61.8464 343.288 61.1336 344.948 60.8067H349.166C350.824 61.1336 351.644 61.8464 351.644 62.6551C351.644 63.4646 350.824 64.1579 349.166 64.5043H344.948C343.288 64.1579 342.468 63.4646 342.468 62.6357Z" fill="#BBCAEA"/>
<path d="M310.435 134.436L308.303 123.807L298.691 123.14C297.533 120.666 296.103 118.406 294.456 116.392L297.125 106.006L288.918 100.186L281.702 107.345C279.382 106.536 276.95 106.054 274.462 105.94L269.805 96.4779L260.329 98.8729L259.742 109.66C257.537 110.961 255.524 112.566 253.73 114.414L244.477 111.418L239.284 120.626L245.662 128.725C244.943 131.337 244.514 134.066 244.412 136.859L235.982 142.086L238.115 152.715L247.726 153.382C248.885 155.857 250.315 158.117 251.96 160.123L249.291 170.509L257.5 176.337L264.716 169.178C267.042 169.985 269.474 170.467 271.962 170.581L276.613 180.045L286.088 177.65L286.683 166.86C288.887 165.56 290.9 163.955 292.688 162.108L301.94 165.104L307.132 155.89L300.755 147.79C301.475 145.186 301.904 142.456 302.006 139.663L310.435 134.436ZM277.784 161.069C266.593 163.898 255.477 156.007 252.957 143.445C250.437 130.883 257.467 118.406 268.658 115.577C279.85 112.749 290.965 120.639 293.485 133.201C296.005 145.763 288.976 158.241 277.784 161.069Z" fill="#E2E8ED"/>
<path d="M273.223 155.613C281.729 155.613 288.626 147.872 288.626 138.323C288.626 128.774 281.729 121.033 273.223 121.033C264.716 121.033 257.819 128.774 257.819 138.323C257.819 147.872 264.716 155.613 273.223 155.613Z" fill="#E2E8ED"/>
<path d="M386.992 50.5007L382.479 35.9477L368.877 36.7384C366.895 33.4697 364.564 30.551 361.962 28.0176L364.231 12.9423L351.866 6.23903L342.748 17.5964C339.372 16.8772 335.886 16.6381 332.373 16.9244L324.478 4.46518L311.504 9.53466L312.218 24.7998C309.306 27.0238 306.705 29.6412 304.448 32.5614L291.018 30.0146L285.034 43.8874L295.152 54.1228C294.515 57.9219 294.302 61.835 294.557 65.7781L283.457 74.6395L287.97 89.1926L301.573 88.4016C303.554 91.6703 305.886 94.589 308.484 97.1126L306.216 112.188L318.584 118.901L327.702 107.544C331.087 108.259 334.573 108.499 338.086 108.212L345.971 120.675L358.945 115.605L358.241 100.337C361.153 98.113 363.753 95.4953 366.001 92.5789L379.431 95.1254L385.412 81.2426L375.294 71.0074C375.935 67.2181 376.148 63.305 375.893 59.3618L386.992 50.5007ZM344.909 93.7987C329.586 99.786 312.84 90.6959 307.506 73.4961C302.172 56.2962 310.27 37.4987 325.593 31.5113C340.916 25.524 357.662 34.6138 362.996 51.8137C368.33 69.0135 360.233 87.8113 344.909 93.7987Z" fill="#E2E8ED"/>
<path d="M335.253 87.1084C347.285 87.1084 357.039 76.1599 357.039 62.6543C357.039 49.1486 347.285 38.2001 335.253 38.2001C323.221 38.2001 313.467 49.1486 313.467 62.6543C313.467 76.1599 323.221 87.1084 335.253 87.1084Z" fill="#E2E8ED"/>
<path d="M427.712 203.304C451.082 195.361 464.29 167.658 457.215 141.427C450.139 115.195 425.458 100.369 402.089 108.311C378.72 116.253 365.511 143.956 372.587 170.188C379.662 196.42 404.343 211.246 427.712 203.304Z" fill="#FE4C40"/>
<path d="M427.912 188.603C444.049 180.537 451.304 159.314 444.118 141.201C436.931 123.088 418.024 114.944 401.888 123.011C385.751 131.077 378.496 152.3 385.682 170.413C392.869 188.526 411.776 196.67 427.912 188.603Z" fill="#E4ECF9"/>
<path d="M392.931 155.809C392.931 169.428 402.767 180.469 414.9 180.469C427.034 180.469 436.87 169.428 436.87 155.809C436.87 142.189 427.034 131.148 414.9 131.148C402.767 131.148 392.931 142.189 392.931 155.809Z" fill="#FE4C40"/>
<path d="M403.39 155.809C403.39 162.943 408.543 168.727 414.898 168.727C421.255 168.727 426.407 162.943 426.407 155.809C426.407 148.674 421.255 142.89 414.898 142.89C408.543 142.89 403.39 148.674 403.39 155.809Z" fill="#E4ECF9"/>
<path d="M413.117 157.807H420.345L413.117 149.697V157.807Z" fill="#22252D"/>
<path d="M459.978 105.209H468.247V102.87H462.062V95.9278H459.978V105.209Z" fill="#2E363A"/>
<path d="M463.762 100.962H472.031V98.6193H465.847V91.6803H463.762V100.962Z" fill="#2E363A"/>
<path d="M464.413 98.5804L414.409 154.706L415.883 156.36L465.886 100.235L464.413 98.5804Z" fill="#2E363A"/>
</svg>
