<svg width="18" height="18" viewBox="0 0 18 18" fill="none" xmlns="http://www.w3.org/2000/svg">
<path d="M9.1375 3.68106C10.4062 3.68029 11.6342 4.12178 12.604 4.92729L15.3204 2.38003C14.2777 1.43323 13.0252 0.738785 11.6623 0.351816C10.2994 -0.0351539 8.86373 -0.103999 7.46913 0.150743C6.07453 0.405486 4.75942 0.976804 3.62817 1.81936C2.49692 2.66191 1.58068 3.7525 0.952148 5.00459L4.01454 7.32894C4.37169 6.26844 5.05863 5.34546 5.97808 4.69076C6.89752 4.03606 8.00285 3.68281 9.1375 3.68106Z" fill="#E04343"/>
<path d="M3.73817 8.99782C3.73893 8.43044 3.83233 7.86687 4.01479 7.32869L0.952399 5.00433C0.325987 6.2452 0 7.61209 0 8.99782C0 10.3835 0.325987 11.7504 0.952399 12.9913L4.01479 10.667C3.83233 10.1288 3.73893 9.5652 3.73817 8.99782Z" fill="#FFC95F"/>
<path d="M17.9011 7.36237H9.17871V11.0434H14.1214C13.8274 12.0842 13.1537 12.9816 12.2295 13.5636L15.2682 15.8704C17.21 14.1542 18.3509 11.3636 17.9011 7.36237Z" fill="#5564D7"/>
<path d="M12.2285 13.564C11.2895 14.0932 10.2189 14.3536 9.1375 14.3157C8.00285 14.3139 6.89752 13.9607 5.97808 13.306C5.05864 12.6513 4.37169 11.7283 4.01454 10.6678L0.952148 12.9922C1.70856 14.4937 2.87542 15.7575 4.32146 16.6416C5.76751 17.5258 7.43539 17.995 9.1375 17.9967C11.3772 18.0566 13.5604 17.2991 15.2673 15.8699L12.2285 13.564Z" fill="#FF8B6A"/>
</svg>
