<svg width="32" height="32" viewBox="0 0 32 32" fill="none" xmlns="http://www.w3.org/2000/svg">
<path fill-rule="evenodd" clip-rule="evenodd" d="M14.666 5.33366C9.51136 5.33366 5.33268 9.51233 5.33268 14.667C5.33268 19.8217 9.51136 24.0003 14.666 24.0003C19.8207 24.0003 23.9993 19.8217 23.9993 14.667C23.9993 9.51233 19.8207 5.33366 14.666 5.33366ZM2.66602 14.667C2.66602 8.03958 8.0386 2.66699 14.666 2.66699C21.2934 2.66699 26.666 8.03958 26.666 14.667C26.666 21.2944 21.2934 26.667 14.666 26.667C8.0386 26.667 2.66602 21.2944 2.66602 14.667Z" fill="#828FA2"/>
<path fill-rule="evenodd" clip-rule="evenodd" d="M21.2577 21.2567C21.7784 20.736 22.6226 20.736 23.1433 21.2567L28.9433 27.0567C29.464 27.5774 29.464 28.4217 28.9433 28.9424C28.4226 29.4631 27.5784 29.4631 27.0577 28.9424L21.2577 23.1424C20.737 22.6217 20.737 21.7774 21.2577 21.2567Z" fill="#828FA2"/>
</svg>
