<svg width="172" height="176" viewBox="0 0 172 176" fill="none" xmlns="http://www.w3.org/2000/svg">
<path d="M163.784 42.6458L161.134 42.0676L160.531 39.4232C160.521 39.3779 160.496 39.3374 160.459 39.3084C160.423 39.2794 160.378 39.2636 160.332 39.2636C160.285 39.264 160.24 39.2798 160.203 39.3087C160.167 39.3376 160.141 39.3779 160.13 39.4232L159.527 42.0801L156.877 42.7082C156.832 42.7194 156.791 42.7456 156.762 42.7827C156.733 42.8198 156.718 42.8655 156.718 42.9125C156.718 42.959 156.734 43.0039 156.764 43.0398C156.793 43.0757 156.834 43.1003 156.88 43.1094L159.529 43.6877L160.13 46.3321C160.141 46.3774 160.167 46.4176 160.203 46.4465C160.24 46.4754 160.285 46.4913 160.332 46.4916C160.378 46.4916 160.423 46.4758 160.459 46.4468C160.496 46.4178 160.521 46.3774 160.531 46.3321L161.137 43.6752L163.786 43.0471C163.833 43.0381 163.875 43.0131 163.905 42.9765C163.935 42.9399 163.952 42.8939 163.952 42.8465C163.952 42.799 163.935 42.7531 163.905 42.7164C163.875 42.6798 163.833 42.6549 163.786 42.6458H163.784ZM9.2546 81.0289L6.60518 80.4506L6.00201 77.8062C5.99182 77.7609 5.96653 77.7205 5.93029 77.6915C5.89405 77.6625 5.84903 77.6467 5.80262 77.6467C5.75602 77.647 5.71085 77.6629 5.67428 77.6918C5.63771 77.7207 5.61183 77.7609 5.60074 77.8062L4.99757 80.4631L2.34815 81.0912C2.30247 81.1024 2.26188 81.1286 2.23295 81.1657C2.20401 81.2028 2.1884 81.2485 2.18863 81.2956C2.18886 81.342 2.20511 81.387 2.23462 81.4228C2.26413 81.4587 2.3051 81.4833 2.35064 81.4925L5.00007 82.0707L5.60074 84.7152C5.61183 84.7604 5.63771 84.8007 5.67428 84.8296C5.71085 84.8585 5.75602 84.8743 5.80262 84.8747C5.84903 84.8747 5.89405 84.8589 5.93029 84.8299C5.96653 84.8009 5.99182 84.7604 6.00201 84.7152L6.60767 82.0583L9.25709 81.4302C9.30367 81.4211 9.34566 81.3962 9.37585 81.3596C9.40604 81.323 9.42256 81.277 9.42256 81.2295C9.42256 81.1821 9.40604 81.1361 9.37585 81.0995C9.34566 81.0629 9.30367 81.0379 9.25709 81.0289H9.2546ZM150.402 32.0357L149.031 31.7366L148.722 30.3683C148.717 30.3444 148.704 30.323 148.685 30.3077C148.666 30.2924 148.642 30.2841 148.617 30.2841C148.593 30.2841 148.569 30.2924 148.55 30.3077C148.531 30.323 148.518 30.3444 148.513 30.3683L148.201 31.7441L146.83 32.0681C146.807 32.0737 146.786 32.0871 146.771 32.1061C146.756 32.1251 146.748 32.1486 146.748 32.1728C146.748 32.197 146.757 32.2204 146.772 32.239C146.788 32.2576 146.809 32.2703 146.833 32.2749L148.204 32.574L148.513 33.9424C148.518 33.9662 148.531 33.9876 148.55 34.0029C148.569 34.0182 148.593 34.0266 148.617 34.0266C148.642 34.0266 148.666 34.0182 148.685 34.0029C148.704 33.9876 148.717 33.9662 148.722 33.9424L149.034 32.5666L150.404 32.2425C150.428 32.2365 150.448 32.223 150.463 32.2041C150.478 32.1852 150.486 32.1619 150.487 32.1379C150.487 32.1137 150.478 32.0902 150.463 32.0716C150.447 32.053 150.426 32.0403 150.402 32.0357Z" fill="#4F3CC9"/>
<path d="M7.42253 7.27648L7.59201 2.96462C7.61199 2.4748 7.7482 1.99677 7.98939 1.56998C8.23059 1.1432 8.56985 0.779912 8.97916 0.510123C9.38847 0.240334 9.85609 0.071784 10.3434 0.0183884C10.8307 -0.0350072 11.3237 0.0282836 11.7817 0.203037C12.2402 0.37811 12.6503 0.659914 12.9781 1.02509C13.3059 1.39027 13.5419 1.82832 13.6667 2.30292C13.7914 2.77753 13.8013 3.27503 13.6954 3.75419C13.5895 4.23336 13.371 4.68039 13.0579 5.05825L10.3162 8.38311L7.42253 7.27648ZM6.2486 10.3696L3.50696 13.6944C3.19438 14.0723 2.97628 14.5191 2.8707 14.998C2.76512 15.4769 2.77509 15.974 2.89981 16.4482C3.02452 16.9225 3.26038 17.3602 3.58787 17.7252C3.91536 18.0902 4.32506 18.3719 4.78307 18.5471C5.24107 18.7225 5.73424 18.7862 6.22177 18.7331C6.7093 18.6799 7.17716 18.5114 7.58663 18.2415C7.9961 17.9716 8.3354 17.6081 8.57645 17.181C8.8175 16.7539 8.95337 16.2756 8.9728 15.7856L9.14478 11.4737L6.2486 10.3696Z" fill="#FF8B6A"/>
<path d="M4.51644 7.9771L5.86234 10.8309C6.12369 11.384 6.5939 11.8106 7.16967 12.0172C7.74544 12.2238 8.37966 12.1933 8.93298 11.9326L11.6896 10.634L10.3462 7.7802C10.0848 7.22717 9.61472 6.80036 9.0391 6.59338C8.46347 6.3864 7.82927 6.41614 7.27553 6.67607L4.51644 7.9771Z" fill="#4F3CC9"/>
<path d="M3.64472 9.69664C4.80237 9.69664 5.74083 8.75818 5.74083 7.60052C5.74083 6.44287 4.80237 5.50441 3.64472 5.50441C2.48707 5.50441 1.54861 6.44287 1.54861 7.60052C1.54861 8.75818 2.48707 9.69664 3.64472 9.69664Z" fill="#4F3CC9"/>
<path d="M0.499866 5.67495L1.49078 4.55493L2.90387 5.80513L1.91296 6.92515L0.499866 5.67495Z" fill="#4F3CC9"/>
<path d="M0 8.42716L0.00991808 6.93175L1.89663 6.94426L1.88671 8.43967L0 8.42716Z" fill="#4F3CC9"/>
<path d="M48.824 101.325L47.3609 101.024C47.5005 100.348 47.6326 99.6655 47.7597 98.9926L49.2278 99.2643C49.1031 99.9497 48.9661 100.643 48.824 101.325ZM49.8509 95.5506L48.3729 95.3437C48.5573 94.0975 48.7143 92.8663 48.8439 91.6674L50.3394 91.8244C50.1998 93.0357 50.0428 94.2919 49.8509 95.5531V95.5506ZM50.6434 88.0534L49.148 87.9637C49.2228 86.7175 49.2651 85.4713 49.2726 84.2675H50.7681C50.7606 85.5062 50.7182 86.7773 50.6434 88.0559V88.0534ZM49.1879 80.5762C49.1181 79.33 49.0084 78.0838 48.8589 76.9074L50.3543 76.723C50.5064 77.9392 50.621 79.2154 50.6908 80.494L49.1879 80.5762ZM48.2582 73.2834C48.009 72.0646 47.6974 70.8708 47.3485 69.7342L48.7766 69.2956C49.1405 70.4745 49.4596 71.7132 49.7237 72.9794L48.2582 73.2834ZM34.55 66.8032C34.1088 66.8032 33.6602 66.7857 33.2141 66.7533L33.3262 65.2579C33.735 65.2903 34.1612 65.3003 34.55 65.3052C35.3287 65.306 36.1063 65.2452 36.8754 65.1233L37.1246 66.5988C36.2764 66.7331 35.4187 66.799 34.56 66.7957L34.55 66.8032ZM46.0799 66.3047C45.6 65.1921 45.0523 64.11 44.4398 63.0646L45.7309 62.3168C46.3742 63.4197 46.9494 64.5608 47.4532 65.7339L46.0799 66.3047ZM29.3558 65.8611C28.1085 65.3223 26.9922 64.5206 26.0833 63.5107L27.1999 62.5138C27.9663 63.3638 28.9076 64.038 29.959 64.4902L29.3558 65.8611ZM40.8956 65.4548L40.2676 64.0989C41.3334 63.6097 42.3184 62.9609 43.1887 62.1748L44.1981 63.2789C43.2106 64.169 42.0927 64.9028 40.8832 65.4548H40.8956ZM42.4235 60.0537C41.6773 59.1025 40.8599 58.2093 39.9784 57.3819L41.0003 56.2902C41.9335 57.1695 42.7983 58.1185 43.5874 59.1291L42.4235 60.0537ZM46.4936 60.0537L45.1776 59.3434C45.7549 58.2791 46.2547 57.1746 46.673 56.0385L48.0763 56.5569C47.6289 57.7559 47.0958 58.9212 46.4811 60.0438L46.4936 60.0537ZM24.1542 59.9765C24.025 59.529 23.9251 59.0736 23.8551 58.6131C23.8032 58.2834 23.7774 57.95 23.7778 57.6162C23.7778 57.0257 23.8617 56.4383 24.027 55.8715L25.4627 56.2877C25.3395 56.7172 25.2775 57.1619 25.2782 57.6087C25.2782 57.8657 25.2982 58.1224 25.3381 58.3764C25.3966 58.7741 25.4798 59.1679 25.5873 59.5553L24.1542 59.9765ZM37.1471 55.1562C36.2435 54.5421 35.2716 54.0353 34.2509 53.6458L34.0191 53.581L34.4129 52.1379L34.6796 52.2126C35.8417 52.6374 36.9461 53.2059 37.9671 53.905L37.1471 55.1562ZM27.3395 53.8153L26.5593 52.5416C27.7507 51.851 29.1108 51.5058 30.4874 51.5447H30.5372L30.5248 53.0401H30.4874C29.3834 52.9974 28.2892 53.2623 27.327 53.8053L27.3395 53.8153ZM49.1156 52.8382L47.6451 52.5616C47.8689 51.3806 47.9857 50.1819 47.994 48.98H49.4895C49.4762 50.2717 49.3469 51.5597 49.1031 52.8283L49.1156 52.8382ZM47.6949 45.4009C47.4851 44.2154 47.1809 43.0486 46.7852 41.9115L48.1984 41.413C48.6214 42.6269 48.9457 43.8731 49.1679 45.1392L47.6949 45.4009ZM45.3571 38.5742C44.8005 37.4903 44.1822 36.4393 43.5052 35.4263L44.7514 34.5988C45.4596 35.6591 46.1062 36.7592 46.688 37.8938L45.3571 38.5742ZM41.3194 32.4653C40.5716 31.5431 39.7541 30.6135 38.8868 29.6987L39.971 28.6694C40.8657 29.6115 41.7157 30.5711 42.4808 31.5232L41.3194 32.4653ZM36.2548 27.1091C35.375 26.2966 34.4353 25.4766 33.4633 24.674L34.4179 23.5201C35.4148 24.3401 36.3694 25.1775 37.2692 26.0125L36.2548 27.1091ZM30.5472 22.3736C29.5801 21.6508 28.5533 20.9255 27.5264 20.2176L28.3688 18.9714C29.4231 19.6917 30.4575 20.432 31.442 21.1672L30.5472 22.3736ZM24.4159 18.1838C23.3765 17.5333 22.3023 16.8878 21.2281 16.2672L21.9758 14.9711C23.065 15.6017 24.1542 16.2547 25.2159 16.9177L24.4159 18.1838ZM17.9705 14.4701C15.9417 13.4009 14.6556 12.8227 14.6431 12.8152L15.2563 11.4518C15.3111 11.4768 16.5922 12.055 18.6684 13.1467L17.9705 14.4701Z" fill="#4F3CC9"/>
<path d="M123.046 52.5717L117.014 50.5429L116.418 33.3927C123.791 27.7972 119.658 23.7869 119.658 23.7869L119.344 15.9408H89.9215C84.4382 47.9159 98.3807 44.8527 98.3807 44.8527L98.0268 51.5149L90.6243 54.8224L90.9184 67.6782H124.067L123.046 52.5717Z" fill="white"/>
<path d="M124.867 68.4253H90.1882L89.8666 54.3482L97.304 51.0234L97.5881 45.6846C96.5781 45.7014 95.5749 45.517 94.637 45.1422C93.699 44.7673 92.845 44.2095 92.1248 43.5013C87.7431 39.3165 86.7536 29.9999 89.1837 15.8107L89.2909 15.1901H120.08L120.411 23.4873C121.234 24.5092 121.645 25.8016 121.565 27.1112C121.428 29.3394 119.957 31.5701 117.191 33.746L117.757 49.9965L123.768 52.0203L124.867 68.4253ZM91.6487 66.9299H123.267L122.323 53.1195L116.276 51.0857L115.658 33.0332L115.967 32.7989C118.532 30.8498 119.955 28.8534 120.06 27.0265C120.123 26.0401 119.793 25.0686 119.142 24.3247L118.928 24.1179L118.629 16.6905H90.5521C87.8104 33.2575 90.4399 39.83 93.1566 42.4246C95.5294 44.6877 98.1938 44.1369 98.2187 44.1294L99.1783 43.92L98.7496 52.0178L91.3845 55.3103L91.6487 66.9299Z" fill="#4F3CC9"/>
<path d="M106.673 17.66C106.673 17.66 100.377 21.7351 89.6371 17.66L89.1162 21.4136C89.1162 21.4136 84.3806 18.0414 85.6517 11.8004C85.6517 11.8004 86.2898 7.84994 92.9146 7.08477C92.9146 7.08477 95.716 1.35223 101.832 3.77236C101.832 3.77236 106.418 0.970895 110.877 5.17558C110.877 5.17558 114.825 5.04847 115.463 8.23127C115.463 8.23127 121.959 7.46859 123.743 13.4653C123.743 13.4653 124.763 21.1145 119.284 24.4319C119.284 24.4319 115.334 21.8772 113.552 27.2284L111.259 27.8664L110.748 24.2998C110.748 24.2998 107.308 23.2655 106.673 17.66Z" fill="#4F3CC9"/>
<path d="M91.4495 31.1513C90.5321 31.1513 89.6353 30.8792 88.8725 30.3696C88.1098 29.8599 87.5152 29.1355 87.1642 28.2879C86.8131 27.4404 86.7213 26.5078 86.9002 25.608C87.0792 24.7083 87.521 23.8818 88.1697 23.2331C88.8183 22.5844 89.6448 22.1426 90.5446 21.9637C91.4443 21.7847 92.3769 21.8766 93.2245 22.2276C94.072 22.5787 94.7965 23.1732 95.3061 23.936C95.8158 24.6987 96.0878 25.5955 96.0878 26.5129C96.0865 27.7427 95.5974 28.9217 94.7278 29.7913C93.8583 30.6609 92.6792 31.15 91.4495 31.1513ZM91.4495 22.8715C90.7293 22.8715 90.0252 23.0851 89.4264 23.4852C88.8276 23.8853 88.3609 24.454 88.0853 25.1194C87.8097 25.7848 87.7375 26.517 87.878 27.2233C88.0185 27.9297 88.3654 28.5785 88.8746 29.0878C89.3839 29.597 90.0327 29.9438 90.7391 30.0843C91.4454 30.2249 92.1776 30.1527 92.843 29.8771C93.5084 29.6015 94.0771 29.1348 94.4772 28.536C94.8773 27.9371 95.0909 27.2331 95.0909 26.5129C95.0902 25.5474 94.7064 24.6215 94.0236 23.9388C93.3409 23.256 92.415 22.8722 91.4495 22.8715ZM101.387 31.1513C100.469 31.1513 99.5725 30.8792 98.8098 30.3696C98.047 29.8599 97.4525 29.1355 97.1014 28.2879C96.7503 27.4404 96.6585 26.5078 96.8374 25.608C97.0164 24.7083 97.4582 23.8818 98.1069 23.2331C98.7556 22.5844 99.582 22.1426 100.482 21.9637C101.382 21.7847 102.314 21.8766 103.162 22.2276C104.009 22.5787 104.734 23.1732 105.243 23.936C105.753 24.6987 106.025 25.5955 106.025 26.5129C106.024 27.7427 105.535 28.9217 104.665 29.7913C103.795 30.6609 102.616 31.15 101.387 31.1513ZM101.387 22.8715C100.666 22.8715 99.9625 23.0851 99.3636 23.4852C98.7648 23.8853 98.2981 24.454 98.0225 25.1194C97.7469 25.7848 97.6748 26.517 97.8153 27.2233C97.9558 27.9297 98.3026 28.5785 98.8118 29.0878C99.3211 29.597 99.9699 29.9438 100.676 30.0843C101.383 30.2249 102.115 30.1527 102.78 29.8771C103.446 29.6015 104.014 29.1348 104.414 28.536C104.815 27.9371 105.028 27.2331 105.028 26.5129C105.027 25.5474 104.644 24.6215 103.961 23.9388C103.278 23.256 102.352 22.8722 101.387 22.8715Z" fill="#4F3CC9"/>
<path d="M91.5116 28.2331C92.1448 28.2331 92.6581 27.7198 92.6581 27.0866C92.6581 26.4534 92.1448 25.9401 91.5116 25.9401C90.8784 25.9401 90.3651 26.4534 90.3651 27.0866C90.3651 27.7198 90.8784 28.2331 91.5116 28.2331Z" fill="#4F3CC9"/>
<path d="M101.386 28.2978C102.02 28.2978 102.533 27.7845 102.533 27.1513C102.533 26.5181 102.02 26.0048 101.386 26.0048C100.753 26.0048 100.24 26.5181 100.24 27.1513C100.24 27.7845 100.753 28.2978 101.386 28.2978Z" fill="#4F3CC9"/>
<path d="M105.453 25.5147L111.088 24.6877L111.233 25.6741L105.598 26.5011L105.453 25.5147Z" fill="#4F3CC9"/>
<path d="M97.8322 34.2061L93.5179 33.76L96.1947 25.7544L97.1418 26.0709L94.8588 32.8951L97.9344 33.2142L97.8322 34.2061ZM95.2127 22.3822C95.1928 22.3647 93.1939 20.8045 89.2733 21.2955L89.1487 20.2985C93.5229 19.7527 95.7486 21.5248 95.8408 21.5995L95.2102 22.3722L95.5243 21.9859L95.2127 22.3822ZM98.2609 22.2551L97.5132 21.607C97.5431 21.5721 100.454 18.2622 105.225 21.2581L104.694 22.103C100.664 19.5732 98.3557 22.1454 98.2609 22.2551ZM94.5348 38.5155C94.4291 38.4117 94.3478 38.2856 94.2969 38.1464C94.246 38.0073 94.2268 37.8585 94.2407 37.711C94.2545 37.5634 94.3011 37.4208 94.377 37.2936C94.4528 37.1663 94.5562 37.0575 94.6794 36.9752C95.0559 36.7189 95.4977 36.5753 95.953 36.5615C97.1394 36.5266 98.7096 37.2892 99.4423 37.683C99.4909 37.7089 99.5324 37.746 99.5635 37.7914C99.5946 37.8367 99.6143 37.8888 99.6209 37.9434C99.6275 37.998 99.6208 38.0533 99.6014 38.1048C99.5821 38.1562 99.5506 38.2022 99.5096 38.2389C98.6871 38.9616 96.1823 40.2303 94.5348 38.5155Z" fill="#4F3CC9"/>
<path d="M93.4107 53.4703C93.4107 53.4703 94.4077 65.4339 107.867 64.9354C107.867 64.9354 118.958 63.8138 122.198 52.3487C122.198 52.3487 137.018 56.0525 149.076 62.4928C151.305 63.6847 153.263 65.3237 154.83 67.3072C156.396 69.2906 157.536 71.576 158.178 74.0202L168.681 109.549L142.013 109.799L138.897 104.191L143.633 167.747H75.0916L73.3469 115.656L51.4137 112.914L63.9231 73.7834C64.8467 70.8882 66.3774 68.2234 68.4129 65.967C70.4485 63.7105 72.9421 61.9143 75.7271 60.6983L93.4107 53.4703Z" fill="#FF8B6A"/>
<path d="M144.438 168.495H74.3688L72.6241 116.319L50.4267 113.537L63.2103 73.5369C64.1673 70.5424 65.7515 67.7863 67.8574 65.4522C69.9633 63.1181 72.5425 61.2596 75.423 60.0006L94.0662 52.3863L94.151 53.4007C94.1933 53.8768 95.285 64.634 107.807 64.1828C108.48 64.1081 118.454 62.8195 121.473 52.1371L121.67 51.4392L122.375 51.6161C122.525 51.6535 137.422 55.4171 149.423 61.835C151.739 63.0791 153.775 64.7859 155.404 66.8495C157.033 68.913 158.221 71.2893 158.894 73.831L169.678 110.297L141.574 110.547L139.897 107.523L144.438 168.495ZM75.8144 167H142.828L137.898 100.854L142.451 109.051L167.684 108.802L157.466 74.2322C156.847 71.885 155.752 69.6902 154.248 67.7842C152.745 65.8783 150.866 64.3021 148.727 63.1535C138.354 57.6129 125.76 54.0712 122.709 53.2537C121.339 57.6922 118.272 61.4104 114.175 63.5996C112.241 64.6645 110.13 65.3688 107.944 65.6783H107.897C107.615 65.6783 107.341 65.6932 107.069 65.6932C100.31 65.6932 96.7655 62.5204 94.971 59.7962C93.9235 58.1892 93.1933 56.3964 92.82 54.5148L76.0137 61.3789C73.3302 62.5531 70.9277 64.2857 68.9663 66.4612C67.0048 68.6366 65.5294 71.2051 64.6384 73.9954L52.4007 112.291L74.0722 115.001L75.8144 167Z" fill="#4F3CC9"/>
<path d="M31.5994 93.8475H125.812V167.623H31.5994V93.8475Z" fill="#5564D7"/>
<path d="M126.56 168.371H30.8516V93.1006H126.56V168.371ZM32.347 166.876H125.064V94.596H32.347V166.876Z" fill="#4F3CC9"/>
<path d="M10.2894 113.663H67.1162L90.0464 93.9729H31.4749L10.2894 113.663Z" fill="white"/>
<path d="M67.3922 114.41H8.38697L31.18 93.2241H92.0645L67.3922 114.41ZM12.1904 112.914H66.8389L88.0243 94.7195H31.7682L12.1904 112.914Z" fill="#4F3CC9"/>
<path d="M89.6721 93.8475H125.812V167.623H89.6721V93.8475Z" fill="#4F3CC9"/>
<path d="M141.14 113.663H101.76L89.7966 93.9729H125.936L141.14 113.663Z" fill="white"/>
<path d="M142.663 114.41H101.339L88.4685 93.2241H126.311L142.663 114.41ZM102.182 112.914H139.618L125.563 94.7195H91.1254L102.182 112.914Z" fill="#4F3CC9"/>
<path d="M31.5988 139.21C31.5988 139.21 24.7422 143.367 25.0662 150.924C25.1328 152.463 25.6378 153.952 26.5218 155.214C28.234 157.654 32.1122 161.47 39.8237 162.14C39.8237 162.14 43.3131 162.638 42.3161 160.146C42.3161 160.146 44.8085 158.9 43.8116 156.657C43.8116 156.657 46.0547 154.663 44.8085 152.918C44.8085 152.918 46.5532 150.426 45.0578 149.429C43.5623 148.432 36.8328 147.186 36.8328 147.186C36.8328 147.186 41.8177 146.189 41.0699 143.945C40.3222 141.702 31.5988 142.034 31.5988 142.034V139.21Z" fill="white"/>
<path d="M40.5046 162.932C40.2487 162.933 39.993 162.916 39.7394 162.882C31.6441 162.172 27.6014 158.039 25.9115 155.637C24.9435 154.259 24.3916 152.633 24.3214 150.951C23.9799 143.045 30.9163 138.738 31.2129 138.569L32.3469 137.881V141.265C35.0886 141.216 41.0056 141.388 41.7807 143.708C41.8795 143.994 41.9145 144.299 41.883 144.601C41.8516 144.902 41.7546 145.193 41.5987 145.453C41.2149 146.116 40.4797 146.624 39.7045 147.003C41.8181 147.472 44.5099 148.159 45.4719 148.8C45.7058 148.953 45.9061 149.151 46.0604 149.384C46.2147 149.617 46.3198 149.879 46.3692 150.153C46.5636 151.185 46.0302 152.324 45.6813 152.927C46.3717 154.395 45.4919 155.951 44.6843 156.846C45.1654 158.53 44.1385 159.806 43.2039 160.477C43.2709 160.747 43.2765 161.029 43.2205 161.302C43.1644 161.575 43.048 161.832 42.8798 162.055C42.3016 162.787 41.2498 162.932 40.5046 162.932ZM30.8515 140.687C29.0071 142.203 25.5925 145.729 25.8143 150.886C25.8738 152.282 26.3312 153.632 27.1328 154.777C28.6756 156.968 32.3818 160.741 39.889 161.394H39.9288C40.5943 161.486 41.4866 161.394 41.6984 161.13C41.7857 161.02 41.7558 160.754 41.6212 160.417L41.3719 159.779L41.9876 159.472C42.1745 159.375 43.812 158.476 43.1341 156.955L42.9122 156.457L43.321 156.095C43.336 156.08 45.0432 154.523 44.2058 153.354L43.8942 152.917L44.1958 152.484C44.5273 152.005 45.0133 151.023 44.8987 150.428C44.8872 150.35 44.859 150.275 44.816 150.21C44.7729 150.144 44.7161 150.088 44.6494 150.046C43.6525 149.381 39.2459 148.386 36.7012 147.915L32.8853 147.207L36.6912 146.447C37.8327 146.218 39.8266 145.54 40.3127 144.702C40.362 144.625 40.3924 144.537 40.4015 144.446C40.4106 144.354 40.3981 144.262 40.365 144.177C40.031 143.167 35.4924 142.629 31.6416 142.776L30.8664 142.806L30.8515 140.687Z" fill="#4F3CC9"/>
<path d="M167.786 109.371L142.76 109.62L145.699 117.912L107.692 157.14C107.692 157.14 98.9686 151.323 93.7944 150.909C93.5374 150.89 93.2791 150.923 93.0355 151.007C92.7918 151.091 92.5679 151.224 92.3775 151.398C92.187 151.571 92.0341 151.782 91.928 152.017C91.8219 152.252 91.765 152.506 91.7606 152.764C91.7431 154.149 92.3862 156.178 95.4319 158.209C95.4319 158.209 90.6963 161.838 87.3341 163.693C86.7368 164.012 86.259 164.516 85.9719 165.129C85.6848 165.742 85.6039 166.432 85.7414 167.095C86.058 168.468 87.3191 169.837 91.1051 169.807C91.1051 169.807 91.1051 173.712 96.1522 172.631C96.1522 172.631 97.5953 176.237 101.922 174.433C101.922 174.433 103.131 176.833 108.774 173.353L166.241 133.502C168.198 132.146 169.69 130.219 170.515 127.986C171.339 125.752 171.456 123.318 170.85 121.015L167.786 109.371Z" fill="white"/>
<path d="M103.772 176C103.421 176.003 103.073 175.958 102.735 175.866C102.357 175.763 102.007 175.579 101.708 175.327C100.297 175.826 99.0186 175.826 97.897 175.352C97.0054 174.965 96.2563 174.31 95.7536 173.478C94.0512 173.747 92.7028 173.478 91.7383 172.708C91.0789 172.157 90.6256 171.398 90.4522 170.557C86.569 170.415 85.3453 168.717 85.0138 167.274C84.8407 166.453 84.9381 165.598 85.2912 164.837C85.6443 164.076 86.2342 163.45 86.9728 163.052C89.4228 161.696 92.6779 159.341 94.1684 158.234C91.5538 156.201 90.9956 154.167 91.013 152.766C91.0184 152.406 91.0975 152.051 91.2453 151.723C91.3931 151.395 91.6066 151.1 91.8725 150.857C92.1385 150.615 92.4513 150.429 92.7917 150.312C93.1321 150.195 93.4929 150.149 93.8519 150.176C98.4778 150.535 105.591 154.912 107.583 156.178L144.839 117.725L141.706 108.882L168.36 108.618L171.573 120.831C172.213 123.282 172.086 125.872 171.209 128.249C170.332 130.626 168.747 132.677 166.667 134.125L109.183 174.004H109.165C107.009 175.332 105.2 176 103.772 176ZM102.585 174.103C102.894 174.545 104.489 175.128 108.363 172.743L165.815 132.889C167.642 131.616 169.035 129.813 169.806 127.724C170.577 125.635 170.689 123.359 170.127 121.205L167.211 110.123L143.815 110.358L146.556 118.099L107.794 158.107L107.276 157.761C107.191 157.706 98.6547 152.051 93.7372 151.667C93.5816 151.655 93.4251 151.675 93.2776 151.726C93.13 151.777 92.9946 151.858 92.8798 151.963C92.7645 152.067 92.672 152.193 92.608 152.334C92.5441 152.476 92.5102 152.628 92.5084 152.783C92.486 154.463 93.64 156.128 95.8483 157.599L96.7181 158.179L95.8856 158.815C95.6912 158.965 91.0579 162.501 87.6956 164.361C87.2404 164.601 86.8751 164.982 86.6545 165.447C86.4339 165.912 86.3698 166.436 86.4718 166.94C86.8008 168.376 88.3611 169.094 91.1002 169.071H91.8479V169.819C91.8642 170.151 91.9466 170.476 92.0904 170.776C92.2343 171.076 92.4365 171.343 92.6854 171.564C93.3858 172.122 94.4974 172.242 95.9928 171.923L96.6085 171.791L96.8427 172.376C97.18 173.094 97.7637 173.667 98.4877 173.991C99.3551 174.35 100.412 174.273 101.631 173.767L102.333 173.473L102.585 174.103Z" fill="#4F3CC9"/>
<path d="M97.964 88.047L103.944 75.0863L105.302 75.7128L99.3219 88.6736L97.964 88.047Z" fill="#4F3CC9"/>
<path d="M84.9361 68.9227H86.4316V88.3635H84.9361V68.9227Z" fill="#4F3CC9"/>
<path d="M66.7978 75.6562L68.1943 75.1213L72.6816 86.8355L71.2851 87.3705L66.7978 75.6562Z" fill="#4F3CC9"/>
</svg>
