<svg width="212" height="223" viewBox="0 0 212 223" fill="none" xmlns="http://www.w3.org/2000/svg">
<path d="M77.3386 164.933C66.4382 163.981 56.5449 157.972 48.1123 150.835C41.893 145.567 36.1716 139.536 32.1877 132.354C28.2038 125.172 26.0459 116.728 27.1968 108.55C28.1706 101.622 31.4352 95.071 31.4905 88.0771C31.5348 82.5328 29.5318 77.1213 29.5761 71.566C29.6425 64.2069 33.4272 57.1797 38.8829 52.3879C44.3386 47.5962 51.3215 44.896 58.4151 43.7119C72.4473 41.3769 86.8447 44.7189 100.169 49.8205C113.493 54.9221 126.119 61.7612 139.454 66.8296C148.064 70.1052 156.961 72.6394 165.217 76.7561C173.472 80.8728 181.23 86.8044 185.546 95.1042C192.031 107.576 189.386 123.722 180.998 134.932C172.609 146.142 159.352 152.771 145.784 155.239C138.912 156.49 131.907 156.755 124.935 156.423C119.147 156.146 112.928 154.321 107.163 154.708C102.072 155.04 99.1284 158.647 94.901 161.104C89.6223 164.147 83.3588 165.464 77.3386 164.933Z" fill="#FFEDDC"/>
<path d="M35.7286 161.348C35.4076 161.182 35.0757 161.005 34.7658 160.828C33.0505 159.843 31.4127 158.77 29.974 157.63C28.2588 156.236 26.6763 154.675 25.293 152.949C24.3744 151.82 23.3895 150.204 22.7588 148.677C22.3272 147.67 21.8402 146.065 21.5525 144.793C21.3865 144.096 21.2316 143.376 21.1099 142.657C21.4751 142.668 21.8402 142.668 22.1944 142.668C23.5555 142.668 24.8946 142.358 26.1672 141.905C27.1853 141.561 28.137 141.041 29.0113 140.411C29.631 139.979 30.2175 139.503 30.7155 138.939C32.0103 137.511 32.6964 135.685 33.1612 133.848C33.46 132.753 33.4932 131.591 33.2718 130.473C33.0948 129.233 32.5304 128.049 31.3905 127.452C30.306 126.865 28.5465 126.732 27.3402 126.976C26.3443 127.208 25.4147 127.684 24.5736 128.26C23.799 128.824 23.1903 129.577 22.7034 130.407C21.9952 131.635 21.5304 132.974 21.132 134.324C20.6672 135.851 20.3574 137.434 20.3463 139.027C20.3352 140.09 20.4237 141.141 20.5787 142.192C17.9781 142.048 16.2738 141.252 13.8835 139.769C10.4861 137.666 8.28391 134.955 6.31409 131.436C5.42878 129.864 4.5656 128.282 3.83522 126.633C2.75071 124.209 1.799 121.299 1.25675 118.51C0.957954 116.95 0.814091 115.644 0.703427 114.039C0.559564 112.634 0.515298 111.228 0.482099 109.823C0.371435 107.289 0.437833 104.744 0.692361 102.209C1.53341 93.7104 4.6984 85.322 9.18029 77.9186C10.5747 75.6168 12.1018 73.3814 13.7064 71.4116C14.7467 70.1721 15.7316 68.7888 17.0706 67.8482C16.2407 68.2466 15.5324 68.8331 14.8795 69.475C13.8282 70.482 12.9429 71.6329 12.0686 72.7949C9.76681 75.8824 7.79699 79.2023 6.0817 82.6329C3.23763 88.4317 1.20142 94.6067 0.404634 100.97C-0.0490879 104.401 -0.071221 107.864 0.0947749 111.306C0.116908 112.523 0.249705 113.741 0.349302 114.958C0.4489 116.352 0.659161 117.736 0.935821 119.108C1.74367 122.959 3.17123 126.677 5.08572 130.119C5.93783 131.712 6.83421 133.295 7.88552 134.767C9.23562 136.637 10.8734 138.286 12.7769 139.592C14.3151 140.621 15.9308 141.595 17.6903 142.181C18.6531 142.48 19.6491 142.613 20.6451 142.668C20.7557 143.376 20.8996 144.074 21.0656 144.771C21.464 146.497 21.973 148.212 22.7588 149.806C23.6883 151.743 24.9942 153.458 26.466 155.007C27.8936 156.534 29.4761 157.918 31.1803 159.113C32.6632 160.164 34.2899 160.994 36.0274 161.547C36.4368 161.691 35.8171 161.404 35.7286 161.348ZM21.0435 136.593C21.2869 135.331 21.6632 134.103 22.0726 132.896C22.7256 131.104 23.6551 129.245 25.3372 128.326C26.2004 127.85 26.8533 127.518 27.8493 127.363C28.6018 127.264 30.1954 127.396 30.8704 127.717C32.1652 128.271 32.6632 129.333 32.8734 130.783C32.962 131.292 33.0284 132.1 32.9288 132.786C32.9066 133.051 32.6853 134.047 32.5193 134.523C32.0545 136.172 31.3684 137.644 30.2286 138.839C28.967 140.112 27.3956 141.086 25.7024 141.617C24.2085 142.126 22.9358 142.303 21.3755 142.248C21.2537 142.248 21.132 142.248 21.0213 142.237C20.7447 140.333 20.6893 138.408 21.0435 136.593ZM211.673 117.946C211.596 116.917 211.463 115.899 211.363 114.88C210.965 112.379 210.356 109.912 209.626 107.477C208.652 104.334 207.236 101.379 205.686 98.4911C205.199 97.6168 204.701 96.7426 204.214 95.8683C203.672 95.0162 203.13 94.153 202.588 93.3009C202.079 92.6037 201.57 91.9176 201.05 91.2315C200.031 89.9589 198.925 88.7637 197.785 87.6017C196.302 86.0635 194.686 84.6581 193.004 83.3301C194.731 85.2224 196.59 86.982 198.36 88.8412C199.08 89.5605 200.031 90.7114 200.563 91.309C201.105 92.0393 201.647 92.7808 202.189 93.5112C202.721 94.3412 203.241 95.1822 203.772 96.0122C205.111 98.2919 206.561 101.047 207.568 103.261L208.464 105.419C209.117 107.278 209.703 109.17 210.146 111.096C210.356 111.926 210.556 112.767 210.688 113.608C210.91 114.725 211.009 115.6 211.12 116.773C211.264 117.935 211.275 119.108 211.341 120.27C211.363 120.657 211.363 121.044 211.352 121.432C211.352 128.381 210.39 135.021 208.541 141.705C207.523 145.025 206.24 148.212 204.89 151.256C204.248 152.705 203.639 154.166 202.931 155.583C203.794 154.365 204.513 153.059 205.155 151.72C206.616 148.489 207.933 145.191 208.973 141.805C210.821 135.165 211.817 128.271 211.795 121.365C211.806 120.214 211.706 119.086 211.673 117.946Z" fill="#EFC7A5"/>
<path d="M101.02 5.01365L100.633 8.20077M99.2166 19.898L97.8997 30.8094L99.2166 19.898ZM99.5818 16.8768L99.2166 19.898L99.5818 16.8768Z" stroke="#FF8B17" stroke-width="10" stroke-miterlimit="10" stroke-linecap="round" stroke-linejoin="round"/>
<path d="M118.66 5.01365L114.598 13.9221M110.548 22.8305L105.07 34.8265L110.548 22.8305Z" stroke="#279145" stroke-width="10" stroke-miterlimit="10" stroke-linecap="round" stroke-linejoin="round"/>
<path d="M147.787 11.0005L113.88 41.5437" stroke="#5288FF" stroke-width="10" stroke-miterlimit="10" stroke-linecap="round" stroke-linejoin="round"/>
<path d="M127.47 59.2501L157.78 53.9493M131.453 46.3024L163.269 32.3366L131.453 46.3024ZM116.016 53.075L126.064 48.6706L116.016 53.075Z" stroke="#FF8B17" stroke-width="10" stroke-miterlimit="10" stroke-linecap="round" stroke-linejoin="round"/>
<path d="M202.08 38.7218C205.283 38.7218 207.879 36.1256 207.879 32.923C207.879 29.7204 205.283 27.1242 202.08 27.1242C198.877 27.1242 196.281 29.7204 196.281 32.923C196.281 36.1256 198.877 38.7218 202.08 38.7218Z" fill="#FF8B17"/>
<path d="M18.0877 51.7909C21.2902 51.7909 23.8864 49.1947 23.8864 45.9921C23.8864 42.7896 21.2902 40.1934 18.0877 40.1934C14.8851 40.1934 12.2889 42.7896 12.2889 45.9921C12.2889 49.1947 14.8851 51.7909 18.0877 51.7909Z" fill="#FF8B6A"/>
<path d="M14.3488 37.0125L14.506 36.8266L28.0855 48.3095L27.9283 48.4954L14.3488 37.0125Z" fill="white"/>
<path d="M13.5185 37.9905L13.6757 37.8046L27.2552 49.2875L27.098 49.4734L13.5185 37.9905Z" fill="white"/>
<path d="M12.6961 38.9754L12.8533 38.7895L26.4329 50.2724L26.2757 50.4583L12.6961 38.9754Z" fill="white"/>
<path d="M11.8738 39.9457L12.031 39.7598L25.6105 51.2426L25.4533 51.4286L11.8738 39.9457Z" fill="white"/>
<path d="M11.0455 40.9237L11.2027 40.7378L24.7822 52.2207L24.625 52.4066L11.0455 40.9237Z" fill="white"/>
<path d="M10.2211 41.893L10.3783 41.7071L23.9579 53.19L23.8007 53.3759L10.2211 41.893Z" fill="white"/>
<path d="M9.39287 42.871L9.55008 42.6851L23.1296 54.168L22.9724 54.3539L9.39287 42.871Z" fill="white"/>
<path d="M8.57832 43.8481L8.73552 43.6622L22.315 55.1451L22.1578 55.331L8.57832 43.8481Z" fill="white"/>
<path d="M193.735 195.145C196.937 195.145 199.533 192.549 199.533 189.347C199.533 186.144 196.937 183.548 193.735 183.548C190.532 183.548 187.936 186.144 187.936 189.347C187.936 192.549 190.532 195.145 193.735 195.145Z" fill="#279145"/>
<path d="M189.275 198.484L203.28 187.523L203.43 187.715L189.425 198.676L189.275 198.484Z" fill="white"/>
<path d="M188.488 197.476L202.493 186.515L202.643 186.707L188.638 197.667L188.488 197.476Z" fill="white"/>
<path d="M187.701 196.468L201.705 185.508L201.855 185.699L187.851 196.66L187.701 196.468Z" fill="white"/>
<path d="M186.914 195.459L200.918 184.498L201.068 184.69L187.064 195.65L186.914 195.459Z" fill="white"/>
<path d="M186.129 194.451L200.133 183.491L200.283 183.683L186.279 194.643L186.129 194.451Z" fill="white"/>
<path d="M185.341 193.443L199.346 182.482L199.496 182.674L185.491 193.635L185.341 193.443Z" fill="white"/>
<path d="M184.546 192.442L198.551 181.482L198.701 181.674L184.696 192.634L184.546 192.442Z" fill="white"/>
<path d="M183.759 191.434L197.764 180.473L197.914 180.665L183.909 191.626L183.759 191.434Z" fill="white"/>
<path d="M33.1393 27.8994C34.0438 27.8994 34.7771 27.1661 34.7771 26.2616C34.7771 25.357 34.0438 24.6237 33.1393 24.6237C32.2348 24.6237 31.5015 25.357 31.5015 26.2616C31.5015 27.1661 32.2348 27.8994 33.1393 27.8994Z" fill="#FFC95F"/>
<path d="M34.5432 23.3949C35.4478 23.3949 36.1811 22.6616 36.1811 21.757C36.1811 20.8525 35.4478 20.1192 34.5432 20.1192C33.6387 20.1192 32.9054 20.8525 32.9054 21.757C32.9054 22.6616 33.6387 23.3949 34.5432 23.3949Z" fill="#FFC95F"/>
<path d="M37.731 29.3268C38.6355 29.3268 39.3688 28.5935 39.3688 27.689C39.3688 26.7845 38.6355 26.0512 37.731 26.0512C36.8264 26.0512 36.0932 26.7845 36.0932 27.689C36.0932 28.5935 36.8264 29.3268 37.731 29.3268Z" fill="#FFC95F"/>
<path d="M39.1369 24.8223C40.0414 24.8223 40.7747 24.089 40.7747 23.1845C40.7747 22.2799 40.0414 21.5466 39.1369 21.5466C38.2323 21.5466 37.499 22.2799 37.499 23.1845C37.499 24.089 38.2323 24.8223 39.1369 24.8223Z" fill="#FFC95F"/>
<path d="M179.161 13.302C180.065 13.302 180.798 12.5687 180.798 11.6641C180.798 10.7596 180.065 10.0263 179.161 10.0263C178.256 10.0263 177.523 10.7596 177.523 11.6641C177.523 12.5687 178.256 13.302 179.161 13.302Z" fill="#FFC95F"/>
<path d="M183.609 11.7424C184.514 11.7424 185.247 11.0091 185.247 10.1045C185.247 9.19999 184.514 8.46671 183.609 8.46671C182.705 8.46671 181.972 9.19999 181.972 10.1045C181.972 11.0091 182.705 11.7424 183.609 11.7424Z" fill="#FFC95F"/>
<path d="M180.754 17.8398C181.659 17.8398 182.392 17.1065 182.392 16.202C182.392 15.2974 181.659 14.5641 180.754 14.5641C179.85 14.5641 179.117 15.2974 179.117 16.202C179.117 17.1065 179.85 17.8398 180.754 17.8398Z" fill="#FFC95F"/>
<path d="M185.203 16.2792C186.108 16.2792 186.841 15.5459 186.841 14.6414C186.841 13.7368 186.108 13.0036 185.203 13.0036C184.299 13.0036 183.565 13.7368 183.565 14.6414C183.565 15.5459 184.299 16.2792 185.203 16.2792Z" fill="#FFC95F"/>
<path d="M203.917 211.258C204.821 211.258 205.554 210.525 205.554 209.62C205.554 208.716 204.821 207.983 203.917 207.983C203.012 207.983 202.279 208.716 202.279 209.62C202.279 210.525 203.012 211.258 203.917 211.258Z" fill="#A288FF"/>
<path d="M208.365 209.698C209.27 209.698 210.003 208.964 210.003 208.06C210.003 207.155 209.27 206.422 208.365 206.422C207.461 206.422 206.727 207.155 206.727 208.06C206.727 208.964 207.461 209.698 208.365 209.698Z" fill="#A288FF"/>
<path d="M205.51 215.795C206.415 215.795 207.148 215.062 207.148 214.157C207.148 213.253 206.415 212.519 205.51 212.519C204.606 212.519 203.873 213.253 203.873 214.157C203.873 215.062 204.606 215.795 205.51 215.795Z" fill="#A288FF"/>
<path d="M209.959 214.234C210.864 214.234 211.597 213.501 211.597 212.597C211.597 211.692 210.864 210.959 209.959 210.959C209.055 210.959 208.321 211.692 208.321 212.597C208.321 213.501 209.055 214.234 209.959 214.234Z" fill="#A288FF"/>
<path d="M78.2122 214.799C79.1167 214.799 79.85 214.066 79.85 213.162C79.85 212.257 79.1167 211.524 78.2122 211.524C77.3076 211.524 76.5743 212.257 76.5743 213.162C76.5743 214.066 77.3076 214.799 78.2122 214.799Z" fill="#279145"/>
<path d="M82.0735 217.522C82.978 217.522 83.7113 216.789 83.7113 215.884C83.7113 214.98 82.978 214.246 82.0735 214.246C81.169 214.246 80.4357 214.98 80.4357 215.884C80.4357 216.789 81.169 217.522 82.0735 217.522Z" fill="#279145"/>
<path d="M75.4454 218.727C76.35 218.727 77.0832 217.994 77.0832 217.089C77.0832 216.185 76.35 215.452 75.4454 215.452C74.5409 215.452 73.8076 216.185 73.8076 217.089C73.8076 217.994 74.5409 218.727 75.4454 218.727Z" fill="#279145"/>
<path d="M79.2969 221.45C80.2015 221.45 80.9348 220.717 80.9348 219.812C80.9348 218.908 80.2015 218.174 79.2969 218.174C78.3924 218.174 77.6591 218.908 77.6591 219.812C77.6591 220.717 78.3924 221.45 79.2969 221.45Z" fill="#279145"/>
<path d="M55.9685 89.7264L53.6889 88.7083M51.5531 89.5272L50.546 91.8069L51.5531 89.5272ZM53.8881 84.3038L52.87 86.5725L53.8881 84.3038ZM50.7341 87.3914L48.4545 86.3843L50.7341 87.3914Z" stroke="white" stroke-width="10" stroke-miterlimit="10" stroke-linecap="round" stroke-linejoin="round"/>
<path d="M185.722 61.9609L183.443 60.9539M181.307 61.7728L180.3 64.0525L181.307 61.7728ZM183.642 56.5384L182.624 58.8181L183.642 56.5384ZM180.488 59.637L178.208 58.6299L180.488 59.637Z" stroke="#5288FF" stroke-width="10" stroke-miterlimit="10" stroke-linecap="round" stroke-linejoin="round"/>
<path d="M166.988 215.906L164.719 214.888M162.584 215.707L161.565 217.986L162.584 215.707ZM164.908 210.472L163.889 212.752L164.908 210.472ZM161.765 213.571L159.485 212.564L161.765 213.571Z" stroke="#FFC95F" stroke-width="10" stroke-miterlimit="10" stroke-linecap="round" stroke-linejoin="round"/>
<path d="M4.92064 12.8931L6.32607 7.16067L11.151 10.2593L4.92064 12.8931ZM32.6862 216.249L35.0434 212.066L39.6581 216.249H32.6862Z" fill="#CADDFF"/>
<path d="M50.247 125.227C71.2289 96.4658 75.8768 56.3722 60.5056 25.3973C59.7531 23.8813 60.3396 22.0221 61.8557 21.2474C70.233 16.9758 86.0026 19.4436 95.9402 56.3058C98.408 65.4466 100.754 71.2676 107.272 78.1619C123.141 74.7203 139.011 71.2897 155.267 66.9738C162.139 65.1479 169.432 67.9476 173.239 73.9456C177.588 80.8068 178.96 89.6378 176.105 97.2736C186.286 102.718 189.949 117.536 183.486 127.098C192.937 133.306 193.214 149.407 183.398 154.266C188.345 164.469 182.69 178.357 172.022 182.197C152.644 189.18 133.278 196.163 113.381 203.898C97.1243 210.217 78.6324 206.311 66.404 193.883C55.2159 182.518 47.3255 167.645 44.3044 151.787C42.5338 142.502 44.6806 132.863 50.247 125.227Z" fill="#FF8B6A"/>
<path d="M69.3922 31.1303C68.7614 29.26 67.9314 27.4562 66.8248 25.8184C65.7735 24.1916 64.5008 22.6977 63.0069 21.4693C64.5894 23.3616 65.7956 25.5307 66.869 27.7329C67.9314 29.9019 68.7171 32.0266 69.2926 34.6162C69.691 36.1323 70.0008 37.6705 70.2222 39.2198C70.3882 40.2047 70.4103 41.6876 69.9234 42.761C70.3771 42.2299 70.7976 40.7912 70.8087 39.8395C70.8972 36.8737 70.3328 33.9301 69.3922 31.1303ZM117.343 165.62C116.922 159.998 116.214 154.399 115.473 148.81C114.82 143.941 114.145 139.072 113.326 134.236C112.85 131.17 112.197 128.138 111.622 125.095C111.201 123.28 110.747 121.465 110.316 119.65C109.895 118.079 109.397 116.53 108.943 114.969C108.357 113.354 107.848 111.705 107.217 110.1C106.055 107.223 105.004 104.29 103.51 101.557C102.503 99.6866 101.208 97.9824 99.9244 96.2781C100.732 97.916 101.606 99.5206 102.381 101.181C103.067 102.686 104.152 105.231 104.617 106.293C105.247 107.887 105.889 109.48 106.52 111.085C106.996 112.468 107.483 113.841 107.959 115.224C108.611 117.415 109.298 119.595 109.796 121.83C111.854 130.197 113.06 138.751 114.255 147.283C114.953 152.529 115.838 159.191 116.269 164.967C116.524 168.309 117.011 171.629 117.409 174.96C117.62 171.851 117.575 168.719 117.343 165.62ZM153.287 80.9733C149.778 82.5337 146.425 84.415 143.249 86.5397C141.722 87.5246 140.217 88.5317 138.734 89.5719C137.794 88.9079 136.875 88.2107 135.934 87.5578C134.717 86.761 133.456 86.0085 132.271 85.1675C133.931 87.1705 136.123 88.7198 138.524 89.7268C137.196 90.6675 135.879 91.6413 134.584 92.6484C133.821 93.2459 133.068 93.8435 132.305 94.4411C131.718 94.8727 131.353 95.2379 130.534 95.7027C129.959 95.9904 128.21 96.3888 127.115 96.4995C126.639 96.5659 124.558 96.7761 123.562 96.9532C122.511 97.1634 121.482 97.4512 120.475 97.7942C116.336 99.2882 111.898 101.402 109.829 105.508C109.32 106.669 109.176 107.953 108.921 109.182C109.441 107.964 109.718 106.869 110.371 105.784C111.135 104.644 112.142 103.67 113.204 102.807C113.934 102.199 115.052 101.402 116.424 100.66C118.671 99.4985 120.707 98.6685 123.352 98.0488C125.1 97.6725 126.683 97.6504 128.675 97.2962C129.538 97.1302 130.412 96.92 131.198 96.5216C131.84 96.1343 132.415 95.6584 133.013 95.2047C135.735 93.0467 138.336 91.0437 141.423 88.9854C144.599 86.8717 147.842 84.8465 150.974 82.6554C151.826 82.0689 152.667 81.4602 153.541 80.8848C153.441 80.9069 153.364 80.9401 153.287 80.9733ZM124.791 112.203C123.828 111.616 122.688 111.428 121.592 111.229C120.054 110.952 118.472 110.864 116.933 111.107C115.937 111.24 114.975 111.506 114.045 111.893C113.127 112.302 112.252 112.8 111.356 113.265C112.695 112.889 114.731 112.203 115.738 112.114C117.409 111.893 119.102 111.915 120.785 112.015C122.046 112.125 122.965 112.136 124.06 112.413C124.934 112.679 125.798 113.099 126.462 113.73C126.251 113.276 125.388 112.557 124.791 112.203ZM172.974 97.1856C170.13 98.6021 167.341 100.14 164.718 101.944C160.159 105.164 155.699 108.573 150.786 111.251C148.362 112.579 146.37 113.652 143.88 114.339C140.826 115.168 138.314 115.401 135.116 115.644C133.124 115.777 131.121 115.777 129.129 115.899C126.119 116.131 123.108 116.485 120.121 116.961C117.31 117.47 114.532 118.201 111.843 119.152C114.189 118.798 116.247 118.533 118.616 118.19C121.836 117.714 124.492 117.337 127.823 117.017C129.981 116.795 132.15 116.817 134.319 116.707C136.775 116.574 139.232 116.33 141.656 115.899C143.172 115.6 144.688 115.224 146.138 114.659C147.964 113.951 149.701 113.011 151.416 112.059C156.706 109.17 161.442 105.419 166.4 102.022C168.381 100.638 170.34 99.2218 172.276 97.7832C172.575 97.5618 172.863 97.3405 173.162 97.1192L173.295 97.0196C173.184 97.0749 173.084 97.1302 172.974 97.1856ZM172.365 132.078C170.351 133.162 168.381 134.313 166.334 135.343C162.992 137.08 159.572 138.651 156.108 140.134C153.84 141.108 150.232 142.558 147.764 142.657C146.713 142.68 146.06 142.48 144.854 142.248C142.63 141.794 140.461 141.108 138.292 140.422C134.418 139.138 130.899 137.39 127.081 135.387C124.957 134.302 122.876 133.151 120.951 131.724C120.076 131.093 118.97 130.186 118.084 129.079C117.952 128.902 117.819 128.714 117.686 128.537C117.299 127.95 116.956 127.33 116.679 126.678C116.557 126.334 116.447 126.025 116.369 125.737C116.944 125.637 117.52 125.538 118.106 125.538C120.165 125.538 122.057 125.991 124.138 126.722C125.41 127.164 127.557 128.16 128.476 128.869C128.94 129.223 129.361 129.621 129.759 130.042C130.379 130.706 130.678 131.038 131.087 131.901C131.475 132.864 131.818 134.147 131.928 135.143L131.962 135.542C132.117 134.479 131.995 133.406 131.818 132.355C131.652 131.336 131.187 130.407 130.534 129.61C130.08 129.024 129.571 128.47 128.985 128.006C127.933 127.187 126.683 126.678 125.466 126.135C123.197 125.195 120.674 124.752 118.228 125.062C117.575 125.139 116.944 125.35 116.325 125.582C116.081 124.675 116.081 123.933 116.469 122.627C116.657 121.974 116.845 121.277 117.31 120.768C117.996 120.093 118.903 119.673 119.844 119.473C119.224 119.484 118.627 119.584 118.051 119.816C117.365 120.049 116.734 120.469 116.358 121.1C115.716 122.185 115.24 123.435 115.196 124.697C115.318 126.655 116.292 128.47 117.509 129.975C118.571 131.226 119.899 132.233 121.238 133.151C123.197 134.546 125.344 135.608 127.458 136.715C130.169 138.131 132.924 139.459 135.768 140.588C137.55 141.274 139.376 141.839 141.213 142.359C142.453 142.713 143.692 143.045 144.965 143.288C145.817 143.465 146.669 143.653 147.532 143.653C148.473 143.664 149.391 143.476 150.299 143.255C151.848 142.879 153.331 142.336 154.814 141.75C162.372 138.629 169.72 134.977 176.648 130.628C177.788 129.92 178.905 129.19 180.067 128.515C177.411 129.499 174.866 130.761 172.365 132.078ZM129.073 159.744C129.793 159.146 130.036 158.903 130.91 158.427C131.585 158.073 133.013 157.785 134.164 157.619C134.629 157.553 136.643 157.32 137.639 157.343C139.354 157.331 141.058 157.442 142.762 157.575C143.637 157.641 144.433 157.73 145.219 157.829C147.809 158.781 150.431 159.644 153.054 160.508C154.371 160.895 155.677 161.459 157.071 161.448C160.126 161.349 163.147 160.707 166.079 159.877C170.539 158.56 174.988 157.188 179.37 155.649C180.277 155.34 181.185 155.019 182.092 154.698C182.015 154.709 181.937 154.72 181.849 154.731C178.629 155.218 175.441 155.926 172.332 156.9C168.459 158.095 163.556 159.722 160.026 160.164C158.399 160.364 156.806 160.607 155.533 160.209C152.102 159.168 148.705 158.018 145.341 156.789C143.714 156.169 142.652 155.638 140.826 154.919C137.074 153.425 133.467 152.573 130.169 150.647C129.361 150.183 128.597 149.629 127.856 149.054C127.004 148.379 126.174 147.659 125.455 146.852C125.023 146.398 124.724 145.833 124.337 145.026C124.359 145.07 124.37 145.103 124.392 145.147C124.071 144.472 124.082 143.421 124.138 143.166C124.248 142.259 124.791 141.54 125.244 140.942C126.207 139.736 127.767 138.939 129.317 139.05C127.701 138.607 125.897 139.249 124.735 140.411C123.695 141.396 122.942 142.757 123.131 144.229C123.175 144.849 123.374 145.446 123.673 145.988C124.326 147.35 125.466 148.379 126.605 149.353C128.155 150.625 129.826 151.754 131.663 152.573C134.463 153.834 137.428 154.687 140.295 155.804C141.213 156.158 141.899 156.446 142.596 156.756C139.365 156.169 136.167 156.147 132.603 156.845C132.006 156.988 131.386 157.099 130.811 157.343C130.069 157.641 129.427 158.117 128.819 158.626C127.756 159.489 126.727 160.408 125.941 161.537C124.104 164.038 123.474 167.136 125.941 169.46C126.705 170.257 127.624 170.888 128.608 171.386C129.848 172.072 131.176 172.57 132.515 173.013C134.274 173.61 136.067 174.152 137.86 174.628C140.571 175.348 143.227 176.244 145.95 176.952C148.705 177.66 151.494 178.214 154.327 178.513C156.042 178.712 157.779 178.878 159.506 178.811C162.095 178.69 164.619 178.048 167.153 177.561C170.439 176.897 173.616 175.812 176.703 174.518C176.449 174.562 176.205 174.617 175.951 174.673C173.549 175.182 171.159 175.691 168.757 176.178C167.131 176.521 165.504 176.864 163.877 177.174C162.361 177.45 161.398 177.66 160.059 177.76C158.51 177.871 156.961 177.76 155.422 177.605C153.674 177.417 152.634 177.295 150.94 176.996C146.945 176.31 143.083 175.049 139.199 173.92C137.074 173.356 134.95 172.758 132.869 172.039C130.988 171.452 128.797 170.456 127.535 169.505C126.628 168.719 126.063 168.232 125.632 167.313C124.813 165.377 125.742 163.374 127.137 161.592C127.723 160.928 128.387 160.33 129.073 159.744Z" fill="#2E2E2E"/>
<path d="M137.462 146.232C137.208 145.612 136.887 145.015 136.444 144.506C136.101 144.118 135.691 143.797 135.282 143.476C134.198 142.691 133.002 142.06 131.741 141.639C131.099 141.429 130.424 141.319 129.76 141.241C128.996 141.141 128.222 141.142 127.469 141.33C126.838 141.485 126.163 141.673 125.721 142.182C126.086 141.905 126.54 141.805 126.993 141.75C127.469 141.695 127.956 141.673 128.443 141.717C130.092 141.949 131.531 142.447 132.903 143.189C134.319 143.941 135.603 144.539 136.499 145.668C137.064 146.42 137.695 147.46 137.838 148.501C137.861 148.578 137.849 148.866 137.872 148.645C137.982 147.826 137.75 146.996 137.462 146.232ZM141.512 169.305C140.55 166.904 138.502 165.111 136.256 163.938C134.64 163.053 132.803 162.688 130.966 162.71C129.848 162.732 127.967 162.854 127.204 163.739C128.155 162.987 130.236 163.263 131.021 163.341C132.98 163.584 134.419 164.049 135.968 164.945C137.783 165.963 139.188 167.015 140.45 168.619C141.225 169.682 141.767 170.844 142.01 172.127L142.044 172.36V172.271C142.099 171.253 141.867 170.246 141.512 169.305ZM108.734 79.3689C107.218 78.4282 106.266 77.6757 104.971 76.3367C103.909 75.2632 103.322 74.3558 102.503 72.9282C101.253 70.6264 99.9028 67.9041 99.0617 65.89C97.5013 62.0721 96.2398 58.1324 95.1995 54.1485C95.3655 56.5278 95.6865 58.896 96.3283 61.1978C97.103 64.053 98.276 66.7974 99.5708 69.4534C100.611 71.5228 101.585 73.6475 102.946 75.5288C103.521 76.3256 104.208 77.0339 104.916 77.72C105.702 78.4725 106.543 79.1807 107.472 79.7451C110.15 81.3276 112.386 81.9473 115.484 81.2612C112.696 81.3165 111.047 80.7743 108.734 79.3689Z" fill="#2E2E2E"/>
<path d="M65.7752 41.1454C66.6827 42.3295 68.5418 42.0639 69.0841 40.6695C69.6816 39.1424 69.914 36.4643 68.1102 32.0488C64.7792 23.915 63.075 22.6534 61.9462 22.3878C61.4372 22.2661 60.8396 22.6977 60.3416 23.2067C59.6112 23.9371 59.3456 25.0106 59.6334 26.0065C60.6183 29.3818 63.2853 37.8808 65.7752 41.1454ZM112.774 118.156C111.159 118.345 109.731 116.994 109.908 115.368C110.008 114.493 110.528 113.663 111.955 113.243C115.751 112.114 125.921 111.749 126.474 115.257C126.474 115.257 126.961 116.64 121.827 117.16C118.551 117.504 114.954 117.902 112.774 118.156ZM115.463 128.216C115.84 126.523 117.776 125.471 119.912 125.792C122.524 126.18 125.357 127.452 127.659 128.78C132.705 131.691 132.118 135.663 130.226 136.095C127.493 136.726 121.174 133.284 117.179 131.226C115.895 130.573 115.198 129.356 115.463 128.216ZM126.474 149.131C125.711 148.589 125.069 147.903 124.615 147.084C124.139 146.21 123.818 145.081 124.46 144.118C125.733 142.182 128.311 142.049 130.58 143.034C132.849 144.019 137.762 146.132 137.01 149.386C136.257 152.639 134.686 152.805 131.93 152.02C129.949 151.455 127.625 149.939 126.474 149.131ZM129.141 171.109C127.393 170.478 126.043 169.228 125.523 167.69C125.146 166.583 125.235 165.388 126.729 164.646C130.126 162.931 135.051 165.012 135.903 165.598C136.744 166.185 142.366 169.416 140.905 172.404C139.798 174.628 132.638 172.371 129.141 171.109Z" fill="#FFC95F"/>
<path d="M24.0079 186.481C26.3651 182.065 32.1085 180.859 37.1105 180.748C42.1126 180.638 47.5462 181.014 51.6629 178.17C55.2262 175.713 56.9858 171.375 60.0954 168.354C63.4264 165.122 68.1297 163.628 72.7443 163.319C77.3701 163.009 81.9959 163.794 86.5552 164.58" stroke="#5564D7" stroke-width="18" stroke-miterlimit="10" stroke-linecap="round" stroke-linejoin="round"/>
<path d="M25.9229 202.295C28.9219 197.237 35.8827 196.507 41.7589 196.883C47.6352 197.259 54.1865 197.956 58.7569 194.26C62.929 190.896 64.1684 184.732 68.5396 181.634C75.8102 176.477 87.5517 182.408 94.1251 176.388" stroke="#FFC95F" stroke-width="18" stroke-miterlimit="10" stroke-linecap="round" stroke-linejoin="round"/>
<path d="M10.2319 189.955C13.9784 189.955 17.0156 186.918 17.0156 183.172C17.0156 179.425 13.9784 176.388 10.2319 176.388C6.48533 176.388 3.44817 179.425 3.44817 183.172C3.44817 186.918 6.48533 189.955 10.2319 189.955Z" fill="#A288FF"/>
</svg>
