<svg width="20" height="20" viewBox="0 0 20 20" fill="none" xmlns="http://www.w3.org/2000/svg">
<path fill-rule="evenodd" clip-rule="evenodd" d="M3.33301 3.33317C3.11199 3.33317 2.90003 3.42097 2.74375 3.57725C2.58747 3.73353 2.49967 3.94549 2.49967 4.1665V15.8332C2.49967 16.0542 2.58747 16.2661 2.74375 16.4224C2.90003 16.5787 3.11199 16.6665 3.33301 16.6665H16.6663C16.8874 16.6665 17.0993 16.5787 17.2556 16.4224C17.4119 16.2661 17.4997 16.0542 17.4997 15.8332V6.6665C17.4997 6.44549 17.4119 6.23353 17.2556 6.07725C17.0993 5.92097 16.8874 5.83317 16.6663 5.83317H9.16634C8.88771 5.83317 8.62752 5.69392 8.47297 5.46209L7.05369 3.33317H3.33301ZM1.56524 2.39874C2.03408 1.9299 2.66997 1.6665 3.33301 1.6665H7.49967C7.7783 1.6665 8.03849 1.80575 8.19305 2.03759L9.61233 4.1665H16.6663C17.3294 4.1665 17.9653 4.4299 18.4341 4.89874C18.9029 5.36758 19.1663 6.00346 19.1663 6.6665V15.8332C19.1663 16.4962 18.9029 17.1321 18.4341 17.6009C17.9653 18.0698 17.3294 18.3332 16.6663 18.3332H3.33301C2.66997 18.3332 2.03408 18.0698 1.56524 17.6009C1.0964 17.1321 0.833008 16.4962 0.833008 15.8332V4.1665C0.833008 3.50346 1.0964 2.86758 1.56524 2.39874Z" fill="#E04343"/>
</svg>
