<svg width="20" height="20" viewBox="0 0 20 20" fill="none" xmlns="http://www.w3.org/2000/svg">
<g clip-path="url(#clip0_0_1492)">
<path fill-rule="evenodd" clip-rule="evenodd" d="M10.0007 2.49967C5.85851 2.49967 2.50065 5.85754 2.50065 9.99967C2.50065 14.1418 5.85851 17.4997 10.0007 17.4997C14.1428 17.4997 17.5006 14.1418 17.5006 9.99967C17.5006 5.85754 14.1428 2.49967 10.0007 2.49967ZM0.833984 9.99967C0.833984 4.93706 4.93804 0.833008 10.0007 0.833008C15.0633 0.833008 19.1673 4.93706 19.1673 9.99967C19.1673 15.0623 15.0633 19.1663 10.0007 19.1663C4.93804 19.1663 0.833984 15.0623 0.833984 9.99967Z" fill="#2D2D2D"/>
<path fill-rule="evenodd" clip-rule="evenodd" d="M0.833984 9.99967C0.833984 9.53944 1.20708 9.16634 1.66732 9.16634H18.334C18.7942 9.16634 19.1673 9.53944 19.1673 9.99967C19.1673 10.4599 18.7942 10.833 18.334 10.833H1.66732C1.20708 10.833 0.833984 10.4599 0.833984 9.99967Z" fill="#2D2D2D"/>
<path fill-rule="evenodd" clip-rule="evenodd" d="M7.50084 9.99967C7.55796 12.562 8.4392 15.029 10.0006 17.0407C11.5621 15.029 12.4433 12.562 12.5005 9.99967C12.4433 7.43731 11.5621 4.97038 10.0007 2.95867C8.4392 4.97038 7.55796 7.43731 7.50084 9.99967ZM10.0007 1.66634L9.38536 1.10432C7.16473 3.53543 5.90274 6.69039 5.83416 9.98232C5.83392 9.99389 5.83392 10.0055 5.83416 10.017C5.90274 13.309 7.16473 16.4639 9.38536 18.895C9.54325 19.0679 9.76655 19.1663 10.0007 19.1663C10.2348 19.1663 10.4581 19.0679 10.6159 18.895C12.8366 16.4639 14.0986 13.309 14.1671 10.017C14.1674 10.0055 14.1674 9.99389 14.1671 9.98232C14.0986 6.69039 12.8366 3.53543 10.6159 1.10432L10.0007 1.66634Z" fill="#2D2D2D"/>
</g>
<defs>
<clipPath id="clip0_0_1492">
<rect width="20" height="20" fill="white"/>
</clipPath>
</defs>
</svg>
