<svg width="24" height="24" viewBox="0 0 24 24" fill="none" xmlns="http://www.w3.org/2000/svg">
<path fill-rule="evenodd" clip-rule="evenodd" d="M12 1C12.5523 1 13 1.44772 13 2V6C13 6.55228 12.5523 7 12 7C11.4477 7 11 6.55228 11 6V2C11 1.44772 11.4477 1 12 1Z" fill="#828FA2"/>
<path fill-rule="evenodd" clip-rule="evenodd" d="M12 17C12.5523 17 13 17.4477 13 18V22C13 22.5523 12.5523 23 12 23C11.4477 23 11 22.5523 11 22V18C11 17.4477 11.4477 17 12 17Z" fill="#828FA2"/>
<path fill-rule="evenodd" clip-rule="evenodd" d="M4.22258 4.22258C4.6131 3.83206 5.24627 3.83206 5.63679 4.22258L8.46679 7.05258C8.85732 7.44311 8.85732 8.07627 8.46679 8.46679C8.07627 8.85732 7.44311 8.85732 7.05258 8.46679L4.22258 5.63679C3.83206 5.24627 3.83206 4.6131 4.22258 4.22258Z" fill="#828FA2"/>
<path fill-rule="evenodd" clip-rule="evenodd" d="M15.5331 15.5331C15.9237 15.1426 16.5568 15.1426 16.9473 15.5331L19.7773 18.3631C20.1679 18.7537 20.1679 19.3868 19.7773 19.7773C19.3868 20.1679 18.7537 20.1679 18.3631 19.7773L15.5331 16.9473C15.1426 16.5568 15.1426 15.9237 15.5331 15.5331Z" fill="#828FA2"/>
<path fill-rule="evenodd" clip-rule="evenodd" d="M1 12C1 11.4477 1.44772 11 2 11H6C6.55228 11 7 11.4477 7 12C7 12.5523 6.55228 13 6 13H2C1.44772 13 1 12.5523 1 12Z" fill="#828FA2"/>
<path fill-rule="evenodd" clip-rule="evenodd" d="M17 12C17 11.4477 17.4477 11 18 11H22C22.5523 11 23 11.4477 23 12C23 12.5523 22.5523 13 22 13H18C17.4477 13 17 12.5523 17 12Z" fill="#828FA2"/>
<path fill-rule="evenodd" clip-rule="evenodd" d="M8.46679 15.5331C8.85732 15.9237 8.85732 16.5568 8.46679 16.9473L5.63679 19.7773C5.24627 20.1679 4.6131 20.1679 4.22258 19.7773C3.83206 19.3868 3.83206 18.7537 4.22258 18.3631L7.05258 15.5331C7.44311 15.1426 8.07627 15.1426 8.46679 15.5331Z" fill="#828FA2"/>
<path fill-rule="evenodd" clip-rule="evenodd" d="M19.7773 4.22258C20.1679 4.6131 20.1679 5.24627 19.7773 5.63679L16.9473 8.46679C16.5568 8.85732 15.9237 8.85732 15.5331 8.46679C15.1426 8.07627 15.1426 7.44311 15.5331 7.05258L18.3631 4.22258C18.7537 3.83206 19.3868 3.83206 19.7773 4.22258Z" fill="#828FA2"/>
</svg>
