<svg width="20" height="20" viewBox="0 0 20 20" fill="none" xmlns="http://www.w3.org/2000/svg">
<path fill-rule="evenodd" clip-rule="evenodd" d="M9.16699 3.33366C5.94533 3.33366 3.33366 5.94533 3.33366 9.16699C3.33366 12.3887 5.94533 15.0003 9.16699 15.0003C12.3887 15.0003 15.0003 12.3887 15.0003 9.16699C15.0003 5.94533 12.3887 3.33366 9.16699 3.33366ZM1.66699 9.16699C1.66699 5.02486 5.02486 1.66699 9.16699 1.66699C13.3091 1.66699 16.667 5.02486 16.667 9.16699C16.667 13.3091 13.3091 16.667 9.16699 16.667C5.02486 16.667 1.66699 13.3091 1.66699 9.16699Z" fill="#2D2D2D"/>
<path fill-rule="evenodd" clip-rule="evenodd" d="M13.2861 13.2861C13.6115 12.9606 14.1391 12.9606 14.4646 13.2861L18.0896 16.9111C18.415 17.2365 18.415 17.7641 18.0896 18.0896C17.7641 18.415 17.2365 18.415 16.9111 18.0896L13.2861 14.4646C12.9606 14.1391 12.9606 13.6115 13.2861 13.2861Z" fill="#2D2D2D"/>
</svg>
