<svg width="129" height="120" viewBox="0 0 129 120" fill="none" xmlns="http://www.w3.org/2000/svg">
<path d="M9.58231 63.222L7.80614 62.8343L7.40178 61.0615C7.39495 61.0312 7.378 61.004 7.3537 60.9846C7.32941 60.9652 7.29922 60.9546 7.26811 60.9546C7.23686 60.9548 7.20659 60.9654 7.18207 60.9848C7.15755 61.0042 7.1402 61.0312 7.13277 61.0615L6.72841 62.8427L4.95224 63.2638C4.92161 63.2713 4.89441 63.2889 4.87501 63.3137C4.85561 63.3386 4.84514 63.3693 4.8453 63.4008C4.84545 63.4319 4.85634 63.4621 4.87612 63.4861C4.89591 63.5101 4.92338 63.5266 4.95391 63.5328L6.73008 63.9204L7.13277 65.6933C7.1402 65.7236 7.15755 65.7506 7.18207 65.77C7.20659 65.7893 7.23686 65.8 7.26811 65.8002C7.29922 65.8002 7.32941 65.7896 7.3537 65.7702C7.378 65.7507 7.39495 65.7236 7.40178 65.6933L7.80781 63.9121L9.58398 63.491C9.61521 63.485 9.64336 63.4682 9.6636 63.4437C9.68384 63.4191 9.69491 63.3883 9.69491 63.3565C9.69491 63.3247 9.68384 63.2939 9.6636 63.2693C9.64336 63.2448 9.61521 63.2281 9.58398 63.222H9.58231ZM54.4411 1.64918L53.1495 1.36847L52.8554 0.0785327C52.8505 0.0564196 52.8382 0.0366206 52.8206 0.02236C52.803 0.0080993 52.7811 0.000217204 52.7585 0C52.7357 0.000426615 52.7137 0.00835155 52.6959 0.0225486C52.678 0.0367457 52.6654 0.0564232 52.6599 0.0785327L52.3658 1.37349L51.0742 1.68093C51.0518 1.6859 51.0318 1.69839 51.0175 1.71634C51.0032 1.73428 50.9955 1.75658 50.9957 1.77951C50.9963 1.80231 51.0045 1.82425 51.019 1.84182C51.0336 1.85939 51.0536 1.87157 51.0759 1.87642L52.3675 2.15714L52.6599 3.44707C52.6654 3.46918 52.678 3.48886 52.6959 3.50306C52.7137 3.51725 52.7357 3.52518 52.7585 3.52561C52.7811 3.52539 52.803 3.51751 52.8206 3.50325C52.8382 3.48899 52.8505 3.46919 52.8554 3.44707L53.1511 2.15212L54.4427 1.84468C54.4651 1.83996 54.4851 1.82748 54.4992 1.80944C54.5133 1.79139 54.5205 1.76896 54.5196 1.74609C54.5197 1.72336 54.5119 1.7013 54.4976 1.68364C54.4833 1.66598 54.4633 1.65381 54.4411 1.64918ZM89.1675 38.3255L90.9436 37.9379L91.3463 36.1651C91.3538 36.1347 91.3711 36.1077 91.3956 36.0883C91.4202 36.069 91.4504 36.0583 91.4817 36.0581C91.5128 36.0581 91.543 36.0687 91.5673 36.0881C91.5916 36.1076 91.6085 36.1347 91.6154 36.1651L92.0214 37.9462L93.7976 38.3673C93.8288 38.3734 93.8569 38.3901 93.8772 38.4146C93.8974 38.4392 93.9085 38.47 93.9085 38.5018C93.9085 38.5336 93.8974 38.5644 93.8772 38.589C93.8569 38.6135 93.8288 38.6303 93.7976 38.6363L92.0214 39.024L91.617 40.7968C91.6102 40.8271 91.5932 40.8543 91.5689 40.8737C91.5447 40.8931 91.5145 40.9037 91.4833 40.9037C91.4521 40.9035 91.4218 40.8929 91.3973 40.8735C91.3728 40.8541 91.3554 40.8271 91.348 40.7968L90.9436 39.0156L89.1675 38.5945C89.1369 38.587 89.1096 38.5694 89.0902 38.5446C89.0708 38.5197 89.0604 38.4891 89.0605 38.4575C89.0606 38.4266 89.0713 38.3967 89.0907 38.3727C89.1102 38.3486 89.1373 38.332 89.1675 38.3255ZM96.6347 23.3592L97.5538 23.1587L97.7609 22.2414C97.7645 22.2254 97.7733 22.2111 97.7861 22.2008C97.7988 22.1906 97.8147 22.185 97.8311 22.185C97.8475 22.185 97.8634 22.1906 97.8761 22.2008C97.8889 22.2111 97.8978 22.2254 97.9013 22.2414L98.1102 23.1637L99.0291 23.381C99.0448 23.385 99.0586 23.394 99.0686 23.4067C99.0786 23.4194 99.0841 23.435 99.0843 23.4511C99.0842 23.4674 99.0785 23.4831 99.0681 23.4956C99.0578 23.508 99.0434 23.5166 99.0275 23.5196L98.1085 23.7202L97.9013 24.6375C97.8978 24.6535 97.8889 24.6678 97.8761 24.6781C97.8634 24.6883 97.8475 24.6939 97.8311 24.6939C97.8147 24.6939 97.7988 24.6883 97.7861 24.6781C97.7733 24.6678 97.7645 24.6535 97.7609 24.6375L97.5521 23.7151L96.6331 23.4979C96.6173 23.4942 96.6033 23.4852 96.5933 23.4724C96.5833 23.4597 96.5779 23.4439 96.5779 23.4277C96.578 23.4115 96.5837 23.3958 96.5941 23.3833C96.6045 23.3708 96.6188 23.3623 96.6347 23.3592Z" fill="#4F3CC9"/>
<path d="M37.8176 113.553V58.7822C37.8176 57.2955 38.4082 55.8696 39.4595 54.8183C40.5108 53.767 41.9367 53.1764 43.4235 53.1764H60.4667C61.5428 53.1766 62.5961 53.4864 63.501 54.0689C64.4058 54.6513 65.1239 55.4819 65.5696 56.4614L67.3943 60.4531C67.8397 61.4329 68.5577 62.2638 69.4626 62.8466C70.3675 63.4294 71.4209 63.7395 72.4972 63.7398H99.3186C100.056 63.7387 100.786 63.883 101.467 64.1645C102.148 64.4459 102.768 64.8589 103.289 65.38C103.811 65.901 104.224 66.5197 104.506 67.2008C104.788 67.8819 104.933 68.6119 104.933 69.349V113.553C104.932 115.039 104.342 116.465 103.29 117.516C102.239 118.567 100.813 119.157 99.3269 119.157H43.4235C41.937 119.157 40.5114 118.567 39.4601 117.516C38.4088 116.465 37.818 115.039 37.8176 113.553Z" fill="#5564D7"/>
<path d="M99.3186 119.658H43.4235C41.8046 119.657 40.2525 119.013 39.1076 117.868C37.9627 116.724 37.3185 115.172 37.3163 113.553V58.7822C37.3181 57.1631 37.9621 55.6107 39.107 54.4658C40.2519 53.3209 41.8043 52.6769 43.4235 52.6751H60.4667C61.6387 52.677 62.7855 53.0152 63.7709 53.6497C64.7563 54.2841 65.539 55.1881 66.0258 56.2542L67.8437 60.2526C68.25 61.144 68.9037 61.8999 69.7272 62.4305C70.5507 62.961 71.5093 63.2438 72.4888 63.2452H99.3186C100.939 63.2448 102.493 63.8873 103.639 65.0318C104.786 66.1762 105.431 67.729 105.434 69.349V113.553C105.432 115.173 104.787 116.726 103.64 117.871C102.493 119.016 100.939 119.659 99.3186 119.658ZM43.4235 53.6743C42.0696 53.6761 40.7718 54.2149 39.8147 55.1725C38.8577 56.1302 38.3197 57.4284 38.3189 58.7822V113.553C38.3206 114.906 38.8591 116.203 39.816 117.16C40.773 118.116 42.0703 118.654 43.4235 118.656H99.3186C100.673 118.657 101.973 118.12 102.931 117.163C103.89 116.206 104.43 114.907 104.432 113.553V69.349C104.43 67.9958 103.891 66.6984 102.934 65.7415C101.978 64.7846 100.68 64.2462 99.3269 64.2444H72.4972C71.325 64.2426 70.1779 63.9042 69.1925 63.2694C68.207 62.6346 67.4245 61.7302 66.9381 60.6637L65.1218 56.6652C64.7149 55.7741 64.0607 55.0186 63.237 54.4884C62.4133 53.9582 61.4546 53.6757 60.475 53.6743H43.4235Z" fill="#4F3CC9"/>
<path d="M96.4365 119.157C96.4365 119.157 89.8699 118.838 88.2675 110.508L82.5195 77.9826C82.2907 76.6861 81.6127 75.5115 80.6045 74.6649C79.5962 73.8183 78.3221 73.3537 77.0056 73.3525H26.1633C25.3386 73.3518 24.5239 73.5329 23.7773 73.8832C23.0307 74.2334 22.3705 74.744 21.8439 75.3787C21.3173 76.0133 20.9372 76.7564 20.7307 77.5548C20.5242 78.3532 20.4964 79.1873 20.6493 79.9977L27.1859 114.59C27.4286 115.875 28.1125 117.034 29.1194 117.868C30.1262 118.701 31.3927 119.157 32.6999 119.155L96.4365 119.157Z" fill="#FF8B6A"/>
<path d="M96.4365 119.658H32.6948C31.2723 119.658 29.8945 119.161 28.7992 118.253C27.7038 117.345 26.9595 116.084 26.6946 114.686L20.1631 80.0981C19.9962 79.2158 20.026 78.3075 20.2504 77.4379C20.4748 76.5684 20.8883 75.7591 21.4613 75.0677C22.0343 74.3763 22.7528 73.8198 23.5655 73.4378C24.3783 73.0559 25.2653 72.858 26.1633 72.8581H76.9989C78.435 72.8558 79.8259 73.3606 80.9264 74.2834C82.0268 75.2063 82.7662 76.488 83.0141 77.9026L88.7637 110.428C90.2675 118.272 96.3997 118.661 96.4616 118.664L96.4365 119.658ZM26.1633 73.854C25.4129 73.8545 24.6719 74.0203 23.993 74.3398C23.314 74.6593 22.7139 75.1246 22.2352 75.7025C21.7566 76.2803 21.4113 76.9566 21.2238 77.6832C21.0363 78.4097 21.0113 79.1687 21.1506 79.906L27.6821 114.494C27.9034 115.662 28.5251 116.716 29.4401 117.475C30.3551 118.234 31.5061 118.65 32.6948 118.651H93.1682C93.0128 118.567 92.8524 118.484 92.692 118.38C90.9242 117.304 88.6367 115.082 87.7762 110.599L82.0266 78.0697C81.8186 76.8877 81.2004 75.817 80.2808 75.0459C79.3611 74.2748 78.199 73.8527 76.9989 73.854H26.1633Z" fill="#4F3CC9"/>
<path d="M59.1181 22.4216L42.7833 28.9883L55.4354 33.9542C55.4354 33.9542 66.8059 30.7511 59.1181 22.4216Z" fill="#4F3CC9"/>
<path d="M0.501271 17.1368C0.501271 17.1368 0.501271 69.5096 57.1967 32.8332C57.1967 32.8332 43.5839 35.3947 37.6572 4.64508L0.501271 17.1368Z" fill="white"/>
<path d="M23.543 46.3758C19.5897 46.3758 16.0774 45.5404 13.0063 43.8695C7.67279 40.9688 3.7328 35.4164 1.61075 27.8154C0.635151 24.336 0.0941187 20.7491 0 17.1367V16.7774L38.0415 3.98667L38.1501 4.54977C41.1811 20.2813 46.2439 27.0034 49.96 29.8757C53.88 32.905 57.0764 32.3486 57.1082 32.3419L59.6145 31.8707L57.4724 33.2559C43.9632 41.9897 32.606 46.3758 23.543 46.3758ZM1.00254 17.4959C1.13986 20.9054 1.66855 24.2878 2.5782 27.5765C4.00683 32.6811 7.0579 39.5017 13.4825 42.9939C23.0033 48.167 37.1241 44.9138 55.474 33.3344C54.012 33.1673 51.798 32.5692 49.3368 30.661C46.8755 28.7528 44.6583 25.9256 42.7584 22.248C40.466 17.8101 38.6213 12.1089 37.2695 5.29666L1.00254 17.4959Z" fill="#4F3CC9"/>
<path d="M18.4234 41.8007L18.1343 40.8416C18.2513 40.8065 29.9192 37.2709 40.496 32.5355L40.9054 33.4495C30.2684 38.2133 18.547 41.7656 18.4234 41.8007ZM15.0615 37.4764L14.7691 36.5173C14.8677 36.4872 24.8163 33.4228 36.8251 28.3666L37.2127 29.2906C25.1555 34.3668 15.1618 37.4446 15.0615 37.4764ZM11.3772 32.6709L11.0848 31.7134C11.18 31.685 20.6641 28.7793 33.1507 23.8786L33.5167 24.8126C20.9916 29.7267 11.4724 32.6425 11.3772 32.6709ZM8.81068 27.3875L8.52161 26.4267C8.61852 26.3966 18.3114 23.5294 22.8713 21.4842L23.2824 22.3998C18.6673 24.4718 8.90926 27.3591 8.81068 27.3875Z" fill="#4F3CC9"/>
<path d="M104.584 79.1847L108.513 76.7081L116.369 89.1732L112.439 91.6498L104.584 79.1847Z" fill="#4F3CC9"/>
<path d="M98.7742 83.0857C108.416 83.0857 116.232 75.2697 116.232 65.6281C116.232 55.9865 108.416 48.1705 98.7742 48.1705C89.1326 48.1705 81.3166 55.9865 81.3166 65.6281C81.3166 75.2697 89.1326 83.0857 98.7742 83.0857Z" fill="#FF8B6A"/>
<path d="M98.809 83.5918C97.4596 83.5915 96.1145 83.4402 94.7988 83.1406C90.3508 82.1216 86.4613 79.4391 83.9283 75.6435C81.3952 71.8479 80.4106 67.2268 81.1764 62.7283C81.9423 58.2298 84.4004 54.1948 88.0467 51.4511C91.693 48.7074 96.251 47.463 100.786 47.9732C105.32 48.4833 109.488 50.7093 112.433 54.1946C115.379 57.6799 116.879 62.1602 116.626 66.7164C116.373 71.2726 114.387 75.5594 111.074 78.6973C107.76 81.8353 103.372 83.5865 98.809 83.5918ZM98.7471 48.6699C94.9886 48.6767 91.339 49.9325 88.372 52.2398C85.405 54.5471 83.289 57.775 82.3566 61.416C81.4242 65.0571 81.7284 68.9048 83.2212 72.3541C84.7141 75.8034 87.311 78.6588 90.6036 80.4713C93.8962 82.2838 97.6979 82.9505 101.411 82.3668C105.124 81.7831 108.537 79.9819 111.115 77.2465C113.693 74.5111 115.288 70.9966 115.65 67.2556C116.013 63.5146 115.122 59.7592 113.117 56.5799C111.594 54.1477 109.475 52.145 106.961 50.7618C104.446 49.3786 101.62 48.6608 98.7505 48.6766L98.7471 48.6699Z" fill="#4F3CC9"/>
<path d="M98.7737 78.9418C106.127 78.9418 112.087 72.9811 112.087 65.6281C112.087 58.2751 106.127 52.3143 98.7737 52.3143C91.4207 52.3143 85.4599 58.2751 85.4599 65.6281C85.4599 72.9811 91.4207 78.9418 98.7737 78.9418Z" fill="white"/>
<path d="M98.7976 79.4379C96.3949 79.4414 94.0329 78.8182 91.9448 77.6296C89.8567 76.4411 88.1148 74.7284 86.8911 72.6607C85.6674 70.593 85.0042 68.2419 84.9671 65.8395C84.93 63.4371 85.5202 61.0666 86.6795 58.9621C87.8388 56.8577 89.527 55.092 91.5774 53.8395C93.6278 52.5871 95.9694 51.8911 98.371 51.8205C100.773 51.7498 103.151 52.3069 105.272 53.4367C107.392 54.5664 109.181 56.2298 110.462 58.2625C111.779 60.3504 112.512 62.7531 112.586 65.2205C112.659 67.6879 112.069 70.1298 110.878 72.292C109.687 74.4542 107.938 76.2575 105.813 77.5143C103.689 78.7711 101.266 79.4353 98.7976 79.4379ZM98.7508 52.8104C95.9088 52.8137 93.1485 53.7615 90.9039 55.5048C88.6593 57.248 87.0577 59.6878 86.351 62.4406C85.6443 65.1933 85.8725 68.1029 86.9997 70.7118C88.127 73.3207 90.0894 75.4809 92.5783 76.8529C95.0672 78.2249 97.9415 78.7308 100.749 78.291C103.557 77.8512 106.139 76.4907 108.089 74.4234C110.04 72.3561 111.247 69.6993 111.523 66.8707C111.799 64.042 111.126 61.202 109.612 58.7972C108.718 57.3705 107.551 56.1352 106.177 55.1629C104.802 54.1906 103.249 53.5006 101.606 53.1328C100.669 52.9194 99.7117 52.8112 98.7508 52.8104Z" fill="#4F3CC9"/>
<path d="M118.608 90.0818C117.396 88.1273 114.829 87.5253 112.875 88.7371C110.92 89.9489 110.318 92.5157 111.53 94.4702L120.899 109.58C122.11 111.534 124.677 112.136 126.632 110.925C128.586 109.713 129.188 107.146 127.976 105.192L118.608 90.0818Z" fill="#FF8B6A"/>
<path d="M124.336 110.968C123.547 110.969 122.77 110.771 122.078 110.391C121.387 110.011 120.803 109.462 120.381 108.796L110.903 93.7574C110.243 92.71 110.026 91.4432 110.299 90.2355C110.573 89.0278 111.315 87.9783 112.362 87.3178C113.41 86.6572 114.676 86.4398 115.884 86.7134C117.092 86.987 118.141 87.7291 118.802 88.7765L128.281 103.815C128.726 104.52 128.973 105.331 128.998 106.165C129.023 106.998 128.823 107.823 128.421 108.553C128.019 109.283 127.428 109.892 126.71 110.317C125.993 110.741 125.175 110.965 124.341 110.966L124.336 110.968ZM114.843 87.6001C114.189 87.6015 113.547 87.7781 112.983 88.1117C112.42 88.4453 111.957 88.9237 111.641 89.4971C111.325 90.0706 111.169 90.7181 111.188 91.3724C111.207 92.0267 111.402 92.6639 111.751 93.2177L121.23 108.256C121.486 108.663 121.82 109.015 122.213 109.293C122.606 109.571 123.049 109.768 123.518 109.875C123.988 109.981 124.473 109.994 124.947 109.913C125.421 109.832 125.875 109.658 126.282 109.401C126.689 109.145 127.041 108.811 127.319 108.418C127.597 108.025 127.794 107.582 127.901 107.112C128.007 106.643 128.02 106.158 127.939 105.684C127.857 105.21 127.684 104.756 127.427 104.349L117.948 89.3112C117.693 88.9029 117.359 88.5493 116.967 88.2708C116.574 87.9924 116.13 87.7945 115.661 87.6887C115.392 87.6289 115.118 87.5991 114.843 87.6001Z" fill="#4F3CC9"/>
</svg>
