<svg width="291" height="279" viewBox="0 0 291 279" fill="none" xmlns="http://www.w3.org/2000/svg">
<path d="M110.276 42.6318H48.6328V104.275H110.276V42.6318ZM101.47 95.4691H57.439V51.4381H101.47V95.4691Z" fill="#36414F"/>
<path d="M176.322 218.756H167.516V236.368H242.368V227.562H176.322V218.756Z" fill="#36414F"/>
<path d="M92.6628 60.2441H66.2441V86.6628H92.6628V60.2441Z" fill="#36414F"/>
<path d="M48.6309 236.369H110.274V174.725H48.6309V236.369ZM57.4371 183.531H101.468V227.562H57.4371V183.531Z" fill="#36414F"/>
<path d="M92.6628 192.338H66.2441V218.757H92.6628V192.338Z" fill="#36414F"/>
<path d="M180.725 42.6318V104.275H242.368V42.6318H180.725ZM233.562 95.4691H189.531V51.4381H233.562V95.4691Z" fill="#36414F"/>
<path d="M224.757 60.2441H198.338V86.6628H224.757V60.2441Z" fill="#36414F"/>
<path d="M242.37 113.082H224.758V130.694H242.37V113.082Z" fill="#36414F"/>
<path d="M66.2433 148.307H48.6309V165.919H66.2433V148.307Z" fill="#36414F"/>
<path d="M141.096 113.082H105.871V121.888H149.902V104.275V95.4691H158.708V77.8567H149.902H141.096H132.29V60.2443H141.096V69.0505H171.918V42.6318H163.111V60.2443H149.902V42.6318H145.499H127.887H123.484V86.6629H141.096V95.4691H123.484V104.275H141.096V113.082Z" fill="#36414F"/>
<path d="M61.8402 139.5H79.4526H88.2588H92.6619V148.306H75.0495V157.113H92.6619V165.919H127.887V157.113H101.468V148.306V130.694H88.2588V117.485H79.4526V130.694H70.6464V113.082H48.6309V121.888H61.8402V139.5Z" fill="#36414F"/>
<path d="M145.501 218.756V196.74H127.888V179.128H119.082V205.547H136.694V218.756H119.082V227.562H136.694V236.368H158.71V227.562H145.501V218.756Z" fill="#36414F"/>
<path d="M189.53 130.694H171.918V108.679H163.111V139.5H207.142V130.694H198.336V121.888H211.546V113.082H198.336H189.53H180.724V121.888H189.53V130.694Z" fill="#36414F"/>
<path d="M180.724 209.95H193.934V218.756H211.546V209.95V201.144V187.934H193.934V201.144H180.724V187.934H171.918V201.144H163.112V165.919H154.306V157.112H145.499V130.694H114.678V148.306H123.484V139.5H136.693V157.112V174.725H154.306V201.144V209.95H163.112H171.918H180.724Z" fill="#36414F"/>
<path d="M233.561 152.709H220.352H211.546H189.53V170.322H180.724V152.709H171.918V179.128H198.337V161.516H211.546V174.725H220.352V161.516H233.561V187.934H220.352V214.353H242.368V205.547H229.158V196.74H242.368V161.516V152.709V139.5H233.561V152.709Z" fill="#36414F"/>
<rect x="0.825583" y="0.825583" width="289.349" height="277.349" stroke="#E2E8ED" stroke-width="1.65117"/>
</svg>
