<svg width="20" height="20" viewBox="0 0 20 20" fill="none" xmlns="http://www.w3.org/2000/svg">
<path fill-rule="evenodd" clip-rule="evenodd" d="M8.92291 3.0886C9.24835 2.76317 9.24835 2.23553 8.92291 1.91009C8.59748 1.58466 8.06984 1.58466 7.7444 1.91009L4.65515 4.99935H4.16699C2.78628 4.99935 1.66699 6.11864 1.66699 7.49935C1.66699 8.3314 2.07346 9.06851 2.69867 9.52294L3.70274 15.5473C3.97062 17.1546 5.36125 18.3327 6.99072 18.3327H13.0099C14.6393 18.3327 16.03 17.1546 16.2979 15.5473L17.3019 9.52299C17.9272 9.06856 18.3337 8.33143 18.3337 7.49935C18.3337 6.11864 17.2144 4.99935 15.8337 4.99935H15.3455L12.2562 1.91009C11.9308 1.58466 11.4032 1.58466 11.0777 1.91009C10.7523 2.23553 10.7523 2.76317 11.0777 3.0886L12.9885 4.99935H7.01217L8.92291 3.0886ZM5.00077 6.66602C5.00047 6.66602 5.00018 6.66602 4.99988 6.66602H4.16699C3.70676 6.66602 3.33366 7.03911 3.33366 7.49935C3.33366 7.95959 3.70676 8.33268 4.16699 8.33268H15.8337C16.2939 8.33268 16.667 7.95959 16.667 7.49935C16.667 7.03911 16.2939 6.66602 15.8337 6.66602H15.0008C15.0005 6.66602 15.0002 6.66602 14.9999 6.66602H5.00077ZM8.33366 11.666C8.7939 11.666 9.16699 12.0391 9.16699 12.4993V14.166C9.16699 14.6263 8.7939 14.9993 8.33366 14.9993C7.87342 14.9993 7.50033 14.6263 7.50033 14.166V12.4993C7.50033 12.0391 7.87342 11.666 8.33366 11.666ZM11.667 11.666C12.1272 11.666 12.5003 12.0391 12.5003 12.4993V14.166C12.5003 14.6263 12.1272 14.9993 11.667 14.9993C11.2068 14.9993 10.8337 14.6263 10.8337 14.166V12.4993C10.8337 12.0391 11.2068 11.666 11.667 11.666Z" fill="#FF8B6A"/>
</svg>
