<svg width="32" height="32" viewBox="0 0 32 32" fill="none" xmlns="http://www.w3.org/2000/svg">
<path fill-rule="evenodd" clip-rule="evenodd" d="M13.333 16.0002C13.333 14.5274 14.5269 13.3335 15.9997 13.3335C17.4724 13.3335 18.6663 14.5274 18.6663 16.0002C18.6663 17.4729 17.4724 18.6668 15.9997 18.6668C14.5269 18.6668 13.333 17.4729 13.333 16.0002Z" fill="#828FA2"/>
<path fill-rule="evenodd" clip-rule="evenodd" d="M22.667 16.0002C22.667 14.5274 23.8609 13.3335 25.3337 13.3335C26.8064 13.3335 28.0003 14.5274 28.0003 16.0002C28.0003 17.4729 26.8064 18.6668 25.3337 18.6668C23.8609 18.6668 22.667 17.4729 22.667 16.0002Z" fill="#828FA2"/>
<path fill-rule="evenodd" clip-rule="evenodd" d="M4 16.0002C4 14.5274 5.19391 13.3335 6.66667 13.3335C8.13943 13.3335 9.33333 14.5274 9.33333 16.0002C9.33333 17.4729 8.13943 18.6668 6.66667 18.6668C5.19391 18.6668 4 17.4729 4 16.0002Z" fill="#828FA2"/>
</svg>
