<svg width="20" height="20" viewBox="0 0 20 20" fill="none" xmlns="http://www.w3.org/2000/svg">
<path fill-rule="evenodd" clip-rule="evenodd" d="M4.95951 9.99967C4.70203 9.99967 4.50618 10.2309 4.54851 10.4848L5.34665 15.2737C5.48059 16.0773 6.1759 16.6663 6.99064 16.6663H13.0098C13.8245 16.6663 14.5198 16.0773 14.6538 15.2737L15.4519 10.4848C15.4942 10.2309 15.2984 9.99967 15.0409 9.99967H4.95951ZM3.48393 8.33301C2.96898 8.33301 2.57728 8.7954 2.66194 9.30334L3.70266 15.5477C3.97054 17.155 5.36117 18.333 6.99064 18.333H13.0098C14.6393 18.333 16.0299 17.155 16.2978 15.5477L17.3385 9.30334C17.4231 8.7954 17.0314 8.33301 16.5165 8.33301H3.48393Z" fill="#828FA2"/>
<path d="M8.33333 11.667C7.8731 11.667 7.5 12.0401 7.5 12.5003V14.167C7.5 14.6272 7.8731 15.0003 8.33333 15.0003C8.79357 15.0003 9.16667 14.6272 9.16667 14.167V12.5003C9.16667 12.0401 8.79357 11.667 8.33333 11.667Z" fill="#828FA2"/>
<path d="M11.6667 11.667C11.2064 11.667 10.8333 12.0401 10.8333 12.5003V14.167C10.8333 14.6272 11.2064 15.0003 11.6667 15.0003C12.1269 15.0003 12.5 14.6272 12.5 14.167V12.5003C12.5 12.0401 12.1269 11.667 11.6667 11.667Z" fill="#828FA2"/>
<path d="M8.92194 3.08958C9.24737 2.76414 9.24737 2.23651 8.92194 1.91107C8.5965 1.58563 8.06886 1.58563 7.74343 1.91107L4.41009 5.2444C4.08466 5.56984 4.08466 6.09748 4.41009 6.42291C4.73553 6.74835 5.26317 6.74835 5.5886 6.42291L8.92194 3.08958Z" fill="#828FA2"/>
<path d="M11.0768 3.08958C10.7513 2.76414 10.7513 2.23651 11.0768 1.91107C11.4022 1.58563 11.9298 1.58563 12.2553 1.91107L15.5886 5.2444C15.914 5.56984 15.914 6.09748 15.5886 6.42291C15.2632 6.74835 14.7355 6.74835 14.4101 6.42291L11.0768 3.08958Z" fill="#828FA2"/>
<path fill-rule="evenodd" clip-rule="evenodd" d="M15.8327 6.66667H4.16602C3.70578 6.66667 3.33268 7.03976 3.33268 7.5C3.33268 7.96024 3.70578 8.33333 4.16602 8.33333H15.8327C16.2929 8.33333 16.666 7.96024 16.666 7.5C16.666 7.03976 16.2929 6.66667 15.8327 6.66667ZM4.16602 5C2.7853 5 1.66602 6.11929 1.66602 7.5C1.66602 8.88071 2.7853 10 4.16602 10H15.8327C17.2134 10 18.3327 8.88071 18.3327 7.5C18.3327 6.11929 17.2134 5 15.8327 5H4.16602Z" fill="#828FA2"/>
</svg>
