<svg width="20" height="20" viewBox="0 0 20 20" fill="none" xmlns="http://www.w3.org/2000/svg">
<path fill-rule="evenodd" clip-rule="evenodd" d="M4.16602 10.0007C3.70578 10.0007 3.33268 10.3737 3.33268 10.834V16.6673C3.33268 17.1276 3.70578 17.5007 4.16602 17.5007H15.8327C16.2929 17.5007 16.666 17.1276 16.666 16.6673V10.834C16.666 10.3737 16.2929 10.0007 15.8327 10.0007H4.16602ZM1.66602 10.834C1.66602 9.45327 2.7853 8.33398 4.16602 8.33398H15.8327C17.2134 8.33398 18.3327 9.45327 18.3327 10.834V16.6673C18.3327 18.048 17.2134 19.1673 15.8327 19.1673H4.16602C2.7853 19.1673 1.66602 18.048 1.66602 16.6673V10.834Z" fill="#2D2D2D"/>
<path fill-rule="evenodd" clip-rule="evenodd" d="M10 2.50065C9.11594 2.50065 8.2681 2.85184 7.64298 3.47696C7.01786 4.10208 6.66667 4.94993 6.66667 5.83398V9.16732C6.66667 9.62756 6.29357 10.0007 5.83333 10.0007C5.3731 10.0007 5 9.62756 5 9.16732V5.83398C5 4.5079 5.52678 3.23613 6.46447 2.29845C7.40215 1.36077 8.67392 0.833984 10 0.833984C11.3261 0.833984 12.5979 1.36077 13.5355 2.29845C14.4732 3.23613 15 4.5079 15 5.83398V9.16732C15 9.62756 14.6269 10.0007 14.1667 10.0007C13.7064 10.0007 13.3333 9.62756 13.3333 9.16732V5.83398C13.3333 4.94993 12.9821 4.10208 12.357 3.47696C11.7319 2.85184 10.8841 2.50065 10 2.50065Z" fill="#2D2D2D"/>
</svg>
