<svg width="20" height="20" viewBox="0 0 20 20" fill="none" xmlns="http://www.w3.org/2000/svg">
<path fill-rule="evenodd" clip-rule="evenodd" d="M4.33268 1.16634C4.49006 0.956503 4.73705 0.833008 4.99935 0.833008H14.9993C15.2616 0.833008 15.5086 0.956503 15.666 1.16634L18.166 4.49967C18.2742 4.64392 18.3327 4.81937 18.3327 4.99967V16.6663C18.3327 17.3294 18.0693 17.9653 17.6005 18.4341C17.1316 18.9029 16.4957 19.1663 15.8327 19.1663H4.16602C3.50297 19.1663 2.86709 18.9029 2.39825 18.4341C1.92941 17.9653 1.66602 17.3294 1.66602 16.6663V4.99967C1.66602 4.81937 1.7245 4.64392 1.83268 4.49967L4.33268 1.16634ZM5.41602 2.49967L3.33268 5.27745V16.6663C3.33268 16.8874 3.42048 17.0993 3.57676 17.2556C3.73304 17.4119 3.945 17.4997 4.16602 17.4997H15.8327C16.0537 17.4997 16.2657 17.4119 16.4219 17.2556C16.5782 17.0993 16.666 16.8874 16.666 16.6663V5.27745L14.5827 2.49967H5.41602Z" fill="#828FA2"/>
<path fill-rule="evenodd" clip-rule="evenodd" d="M1.66602 4.99967C1.66602 4.53944 2.03911 4.16634 2.49935 4.16634H17.4993C17.9596 4.16634 18.3327 4.53944 18.3327 4.99967C18.3327 5.45991 17.9596 5.83301 17.4993 5.83301H2.49935C2.03911 5.83301 1.66602 5.45991 1.66602 4.99967Z" fill="#828FA2"/>
<path fill-rule="evenodd" clip-rule="evenodd" d="M6.66602 7.49967C7.12625 7.49967 7.49935 7.87277 7.49935 8.33301C7.49935 8.99605 7.76274 9.63193 8.23158 10.1008C8.70042 10.5696 9.33631 10.833 9.99935 10.833C10.6624 10.833 11.2983 10.5696 11.7671 10.1008C12.236 9.63193 12.4993 8.99605 12.4993 8.33301C12.4993 7.87277 12.8724 7.49967 13.3327 7.49967C13.7929 7.49967 14.166 7.87277 14.166 8.33301C14.166 9.43808 13.727 10.4979 12.9456 11.2793C12.1642 12.0607 11.1044 12.4997 9.99935 12.4997C8.89428 12.4997 7.83447 12.0607 7.05307 11.2793C6.27167 10.4979 5.83268 9.43808 5.83268 8.33301C5.83268 7.87277 6.20578 7.49967 6.66602 7.49967Z" fill="#828FA2"/>
</svg>
