<svg width="24" height="24" viewBox="0 0 24 24" fill="none" xmlns="http://www.w3.org/2000/svg">
<path fill-rule="evenodd" clip-rule="evenodd" d="M20 11.4992C20 6.06902 14.0662 2.30907 9.15088 4.79183L9.14709 4.79374L9.14709 4.79373C5.52862 6.60218 3.95647 11.2132 5.79263 14.8484C5.91284 15.0864 5.93303 15.3625 5.84871 15.6155L4.58117 19.4181L8.3838 18.1505C8.63674 18.0662 8.91289 18.0864 9.15088 18.2066C14.0075 20.6597 20.0139 16.8402 20 11.5018L20 11.4992ZM22 11.4981C21.9992 4.61301 14.5263 -0.162246 8.25106 3.00568C3.78432 5.23937 1.77608 10.7949 3.82401 15.365L2.05134 20.683C1.93157 21.0423 2.02509 21.4385 2.29292 21.7063C2.56075 21.9742 2.95692 22.0677 3.31625 21.9479L8.63399 20.1753C14.7713 22.9315 22.0163 18.1588 22 11.4981Z" fill="#36414F"/>
</svg>
