<svg width="32" height="32" viewBox="0 0 32 32" fill="none" xmlns="http://www.w3.org/2000/svg">
<path fill-rule="evenodd" clip-rule="evenodd" d="M24.9422 7.05654C25.4629 7.57724 25.4629 8.42146 24.9422 8.94216L8.94216 24.9422C8.42146 25.4629 7.57724 25.4629 7.05654 24.9422C6.53584 24.4215 6.53584 23.5772 7.05654 23.0565L23.0565 7.05654C23.5772 6.53584 24.4215 6.53584 24.9422 7.05654Z" fill="#2D2D2D"/>
<path fill-rule="evenodd" clip-rule="evenodd" d="M7.05654 7.05654C7.57724 6.53584 8.42146 6.53584 8.94216 7.05654L24.9422 23.0565C25.4629 23.5772 25.4629 24.4215 24.9422 24.9422C24.4215 25.4629 23.5772 25.4629 23.0565 24.9422L7.05654 8.94216C6.53584 8.42146 6.53584 7.57724 7.05654 7.05654Z" fill="#2D2D2D"/>
</svg>
