<svg width="20" height="20" viewBox="0 0 20 20" fill="none" xmlns="http://www.w3.org/2000/svg">
<g clip-path="url(#clip0_0_1518)">
<path fill-rule="evenodd" clip-rule="evenodd" d="M9.62816 0.920985C9.86276 0.803682 10.1389 0.803682 10.3735 0.920985L18.7068 5.08765C18.9892 5.22881 19.1675 5.51736 19.1675 5.83301C19.1675 6.14865 18.9892 6.4372 18.7068 6.57836L10.3735 10.745C10.1389 10.8623 9.86276 10.8623 9.62816 10.745L1.29482 6.57836C1.0125 6.4372 0.834167 6.14865 0.834167 5.83301C0.834167 5.51736 1.0125 5.22881 1.29482 5.08765L9.62816 0.920985ZM3.53089 5.83301L10.0008 9.06798L16.4708 5.83301L10.0008 2.59804L3.53089 5.83301Z" fill="#FF8B6A"/>
<path fill-rule="evenodd" clip-rule="evenodd" d="M0.922144 13.7937C1.12797 13.382 1.62853 13.2152 2.04018 13.421L10.0008 17.4013L17.9615 13.421C18.3731 13.2152 18.8737 13.382 19.0795 13.7937C19.2853 14.2053 19.1185 14.7059 18.7068 14.9117L10.3735 19.0784C10.1389 19.1957 9.86276 19.1957 9.62816 19.0784L1.29482 14.9117C0.883174 14.7059 0.71632 14.2053 0.922144 13.7937Z" fill="#FF8B6A"/>
<path fill-rule="evenodd" clip-rule="evenodd" d="M0.922144 9.627C1.12797 9.21535 1.62853 9.04849 2.04018 9.25432L10.0008 13.2346L17.9615 9.25432C18.3731 9.04849 18.8737 9.21535 19.0795 9.627C19.2853 10.0386 19.1185 10.5392 18.7068 10.745L10.3735 14.9117C10.1389 15.029 9.86276 15.029 9.62816 14.9117L1.29482 10.745C0.883174 10.5392 0.71632 10.0386 0.922144 9.627Z" fill="#FF8B6A"/>
</g>
<defs>
<clipPath id="clip0_0_1518">
<rect width="20" height="20" fill="white"/>
</clipPath>
</defs>
</svg>
