<svg width="28" height="28" viewBox="0 0 28 28" fill="none" xmlns="http://www.w3.org/2000/svg">
<path fill-rule="evenodd" clip-rule="evenodd" d="M9.52927 2.85252C9.74565 2.52796 10.1099 2.33301 10.5 2.33301H17.5C17.8901 2.33301 18.2543 2.52796 18.4707 2.85252L20.4577 5.83301H24.5C25.4283 5.83301 26.3185 6.20176 26.9749 6.85813C27.6313 7.51451 28 8.40475 28 9.33301V22.1663C28 23.0946 27.6313 23.9848 26.9749 24.6412C26.3185 25.2976 25.4283 25.6663 24.5 25.6663H3.5C2.57174 25.6663 1.6815 25.2976 1.02513 24.6412C0.368749 23.9848 0 23.0946 0 22.1663V9.33301C0 8.40475 0.368749 7.51451 1.02513 6.85813C1.6815 6.20176 2.57174 5.83301 3.5 5.83301H7.54228L9.52927 2.85252ZM11.1244 4.66634L9.13739 7.64682C8.92101 7.97139 8.55674 8.16634 8.16667 8.16634H3.5C3.19058 8.16634 2.89383 8.28926 2.67504 8.50805C2.45625 8.72684 2.33333 9.02359 2.33333 9.33301V22.1663C2.33333 22.4758 2.45625 22.7725 2.67504 22.9913C2.89384 23.2101 3.19058 23.333 3.5 23.333H24.5C24.8094 23.333 25.1062 23.2101 25.325 22.9913C25.5438 22.7725 25.6667 22.4758 25.6667 22.1663V9.33301C25.6667 9.02359 25.5438 8.72684 25.325 8.50805C25.1062 8.28926 24.8094 8.16634 24.5 8.16634H19.8333C19.4433 8.16634 19.079 7.97139 18.8626 7.64682L16.8756 4.66634H11.1244Z" fill="white"/>
<path fill-rule="evenodd" clip-rule="evenodd" d="M14 11.6663C12.067 11.6663 10.5 13.2333 10.5 15.1663C10.5 17.0993 12.067 18.6663 14 18.6663C15.933 18.6663 17.5 17.0993 17.5 15.1663C17.5 13.2333 15.933 11.6663 14 11.6663ZM8.16667 15.1663C8.16667 11.9447 10.7783 9.33301 14 9.33301C17.2217 9.33301 19.8333 11.9447 19.8333 15.1663C19.8333 18.388 17.2217 20.9997 14 20.9997C10.7783 20.9997 8.16667 18.388 8.16667 15.1663Z" fill="white"/>
</svg>
