<svg width="200" height="153" viewBox="0 0 200 153" fill="none" xmlns="http://www.w3.org/2000/svg">
<path d="M128.094 15.577L126.185 15.1627L125.751 13.2561C125.744 13.2231 125.726 13.1937 125.7 13.1726C125.673 13.1515 125.64 13.1399 125.607 13.1399C125.573 13.1399 125.54 13.1515 125.514 13.1726C125.488 13.1937 125.469 13.2231 125.462 13.2561L125.026 15.1698L123.117 15.6241C123.084 15.6312 123.054 15.6497 123.033 15.6763C123.012 15.7029 123.001 15.7361 123.002 15.77C123.003 15.8036 123.015 15.8358 123.036 15.8617C123.058 15.8877 123.087 15.9059 123.12 15.9136L125.029 16.3279L125.462 18.2322C125.469 18.2651 125.488 18.2946 125.514 18.3157C125.54 18.3368 125.573 18.3483 125.607 18.3483C125.64 18.3483 125.673 18.3368 125.7 18.3157C125.726 18.2946 125.744 18.2651 125.751 18.2322L126.187 16.3185L128.096 15.8665C128.129 15.8592 128.159 15.8409 128.18 15.8146C128.201 15.7882 128.212 15.7555 128.212 15.7218C128.212 15.688 128.201 15.6553 128.18 15.629C128.159 15.6027 128.129 15.5843 128.096 15.577H128.094ZM21.6184 23.8462L24.2433 23.2742L24.8506 20.6543C24.8615 20.6098 24.8871 20.5703 24.9231 20.542C24.9592 20.5137 25.0037 20.4983 25.0495 20.4983C25.0954 20.4983 25.1399 20.5137 25.176 20.542C25.212 20.5703 25.2376 20.6098 25.2485 20.6543L25.8464 23.286L28.4736 23.9098C28.5189 23.92 28.5592 23.9455 28.5879 23.9819C28.6166 24.0183 28.632 24.0635 28.6314 24.1098C28.6301 24.1558 28.6137 24.2001 28.5848 24.2358C28.5558 24.2715 28.516 24.2967 28.4713 24.3076L25.8441 24.8772L25.2485 27.4971C25.2376 27.5416 25.212 27.5812 25.176 27.6095C25.1399 27.6378 25.0954 27.6531 25.0495 27.6531C25.0037 27.6531 24.9592 27.6378 24.9231 27.6095C24.8871 27.5812 24.8615 27.5416 24.8506 27.4971L24.2527 24.8654L21.6278 24.2417C21.5827 24.2318 21.5424 24.2068 21.5134 24.1708C21.4845 24.1349 21.4688 24.0901 21.4688 24.0439C21.4688 23.9978 21.4845 23.953 21.5134 23.9171C21.5424 23.8811 21.5827 23.8561 21.6278 23.8462H21.6184ZM32.6546 1.73379L34.0106 1.43956L34.319 0.0837165C34.3241 0.0600189 34.3371 0.0387831 34.356 0.0235475C34.3748 0.0083119 34.3983 0 34.4226 0C34.4468 0 34.4703 0.0083119 34.4891 0.0235475C34.508 0.0387831 34.5211 0.0600189 34.5261 0.0837165L34.8345 1.44426L36.1929 1.76674C36.2174 1.77047 36.2397 1.78285 36.2559 1.80163C36.272 1.82042 36.2809 1.84437 36.2809 1.86915C36.2809 1.89392 36.272 1.91786 36.2559 1.93665C36.2397 1.95543 36.2174 1.96782 36.1929 1.97154L34.8369 2.26812L34.5285 3.62397C34.5234 3.64766 34.5104 3.6689 34.4915 3.68413C34.4727 3.69937 34.4492 3.70768 34.4249 3.70768C34.4007 3.70768 34.3772 3.69937 34.3583 3.68413C34.3395 3.6689 34.3264 3.64766 34.3213 3.62397L34.0129 2.26106L32.6546 1.93858C32.6309 1.93364 32.6097 1.92059 32.5947 1.90167C32.5797 1.88276 32.5717 1.85917 32.5722 1.83501C32.5734 1.81158 32.5821 1.78916 32.5969 1.77096C32.6117 1.75277 32.6319 1.73975 32.6546 1.73379Z" fill="#4F3CC9"/>
<path d="M8.74023 65.1875L18.6182 152.102H138.016L147.894 65.1875H8.74023Z" fill="#FF8B6A"/>
<path d="M138.648 152.81H17.9892L17.9186 152.184L7.95117 64.4824H148.679L148.59 65.2686L138.648 152.81ZM19.251 151.397H137.38L147.097 65.8948H9.53315L19.251 151.397Z" fill="#4F3CC9"/>
<path d="M147.892 55.5566H8.98793C4.48679 55.5566 0.837891 59.2046 0.837891 63.7046C0.837891 68.2046 4.48679 71.8526 8.98793 71.8526H147.892C152.393 71.8526 156.042 68.2046 156.042 63.7046C156.042 59.2046 152.393 55.5566 147.892 55.5566Z" fill="#5564D7"/>
<path d="M147.895 72.561H9.00066C7.82565 72.5802 6.65857 72.3653 5.56743 71.929C4.47629 71.4926 3.48292 70.8435 2.6452 70.0194C1.80748 69.1953 1.14216 68.2128 0.688023 67.129C0.233882 66.0452 0 64.8819 0 63.7069C0 62.5319 0.233882 61.3685 0.688023 60.2848C1.14216 59.201 1.80748 58.2185 2.6452 57.3944C3.48292 56.5703 4.47629 55.9212 5.56743 55.4848C6.65857 55.0485 7.82565 54.8336 9.00066 54.8527H147.895C150.219 54.8906 152.434 55.8401 154.064 57.4965C155.694 59.1528 156.607 61.3833 156.607 63.7069C156.607 66.0305 155.694 68.261 154.064 69.9173C152.434 71.5737 150.219 72.5232 147.895 72.561ZM9.00066 56.2651C8.01215 56.2475 7.03003 56.427 6.11165 56.7931C5.19327 57.1592 4.35703 57.7045 3.65175 58.3973C2.94646 59.0901 2.38626 59.9164 2.00385 60.828C1.62145 61.7397 1.4245 62.7183 1.4245 63.7069C1.4245 64.6955 1.62145 65.6741 2.00385 66.5857C2.38626 67.4974 2.94646 68.3237 3.65175 69.0165C4.35703 69.7093 5.19327 70.2546 6.11165 70.6207C7.03003 70.9868 8.01215 71.1663 9.00066 71.1487H147.895C149.846 71.114 151.705 70.3147 153.073 68.9229C154.44 67.531 155.206 65.658 155.206 63.7069C155.206 61.7558 154.44 59.8827 153.073 58.4909C151.705 57.0991 149.846 56.2998 147.895 56.2651H9.00066Z" fill="#4F3CC9"/>
<path d="M65.721 15.3357L37.4762 62.2082C36.6361 63.6023 37.0854 65.4134 38.4796 66.2534L43.8997 69.5188C45.294 70.3587 47.1053 69.9095 47.9454 68.5154L76.1902 21.643C77.0303 20.2488 76.5811 18.4378 75.1868 17.5978L69.7667 14.3324C68.3724 13.4924 66.5611 13.9416 65.721 15.3357Z" fill="#FF8B6A"/>
<path d="M45.4166 70.6393C44.7527 70.6399 44.1012 70.4584 43.5333 70.1144L38.1188 66.8495C37.289 66.3489 36.692 65.5393 36.4589 64.5987C36.2258 63.6581 36.3758 62.6635 36.8758 61.8334L65.1067 14.9604C65.6074 14.1307 66.417 13.5337 67.3577 13.3007C68.2984 13.0676 69.2932 13.2176 70.1234 13.7176L75.5379 16.98C75.9492 17.2275 76.3077 17.5536 76.5929 17.9398C76.878 18.3259 77.0842 18.7645 77.1997 19.2304C77.3152 19.6963 77.3376 20.1804 77.2657 20.655C77.1938 21.1296 77.0291 21.5853 76.7809 21.9962L48.5312 68.8692C48.2849 69.2815 47.9592 69.6407 47.5728 69.926C47.1864 70.2113 46.7472 70.417 46.2806 70.531C45.9979 70.6012 45.7079 70.6376 45.4166 70.6393ZM68.2518 14.6167C68.0685 14.6166 67.8859 14.6387 67.708 14.6827C67.4219 14.7526 67.1527 14.8787 66.9158 15.0537C66.679 15.2286 66.4793 15.449 66.3285 15.7019L38.0788 62.5748C37.9265 62.8268 37.8254 63.1064 37.7813 63.3975C37.7372 63.6886 37.751 63.9856 37.8218 64.2713C37.8927 64.5571 38.0192 64.8261 38.1942 65.0629C38.3692 65.2997 38.5891 65.4997 38.8415 65.6514L44.256 68.9162C44.7653 69.2225 45.3754 69.3143 45.9523 69.1713C46.5291 69.0283 47.0257 68.6623 47.3329 68.1536L75.5826 21.2806C75.8889 20.7707 75.9803 20.1602 75.8369 19.5829C75.6934 19.0057 75.3268 18.509 74.8175 18.2017L69.403 14.9392C69.0559 14.7234 68.6558 14.6077 68.2471 14.605L68.2518 14.6167Z" fill="#4F3CC9"/>
<path d="M86.4651 14.0348L81.023 17.3249C79.6231 18.1713 79.1745 19.9921 80.0209 21.3919L108.48 68.4538C109.327 69.8536 111.148 70.3022 112.547 69.4558L117.989 66.1657C119.389 65.3193 119.838 63.4985 118.992 62.0987L90.5325 15.0368C89.686 13.637 87.865 13.1884 86.4651 14.0348Z" fill="#FF8B6A"/>
<path d="M109.982 70.6363C109.351 70.6383 108.73 70.4764 108.181 70.1666C107.631 69.8567 107.171 69.4094 106.846 68.8685L78.5966 21.9955C78.0997 21.1653 77.9525 20.1718 78.1873 19.2332C78.4221 18.2946 79.0197 17.4874 79.849 16.9888L85.2635 13.7263C85.6746 13.4761 86.131 13.3096 86.6066 13.2361C87.0822 13.1627 87.5677 13.1839 88.0351 13.2985C88.5025 13.4131 88.9426 13.6189 89.3303 13.9039C89.718 14.189 90.0456 14.5478 90.2943 14.9598L118.544 61.8327C118.792 62.2438 118.956 62.6997 119.028 63.1743C119.099 63.6489 119.077 64.133 118.961 64.5988C118.845 65.0647 118.639 65.5032 118.354 65.8892C118.068 66.2753 117.71 66.6014 117.299 66.8489L111.884 70.1137C111.311 70.4603 110.652 70.6412 109.982 70.6363ZM87.1468 14.6137C86.7408 14.6135 86.3425 14.725 85.9957 14.9362L80.5811 18.1987C80.0718 18.506 79.7052 19.0027 79.5618 19.5799C79.4184 20.1572 79.5098 20.7677 79.816 21.2776L108.066 68.1506C108.373 68.6594 108.87 69.0255 109.448 69.1685C110.025 69.3114 110.635 69.2197 111.145 68.9132L116.559 65.6484C116.812 65.4967 117.032 65.2967 117.207 65.0599C117.382 64.8231 117.508 64.5541 117.579 64.2683C117.65 63.9826 117.664 63.6856 117.62 63.3945C117.576 63.1034 117.475 62.8238 117.322 62.5719L89.0725 15.6989C88.9214 15.4462 88.7216 15.2261 88.4848 15.0511C88.248 14.8762 87.9789 14.7499 87.693 14.6797C87.5154 14.6327 87.3328 14.6074 87.1492 14.6043L87.1468 14.6137Z" fill="#4F3CC9"/>
<path d="M44.6701 65.557C46.6474 65.557 48.2504 63.9541 48.2504 61.9768C48.2504 59.9994 46.6474 58.3965 44.6701 58.3965C42.6928 58.3965 41.0898 59.9994 41.0898 61.9768C41.0898 63.9541 42.6928 65.557 44.6701 65.557Z" fill="white"/>
<path d="M44.6692 66.2643C43.8215 66.2643 42.9927 66.0129 42.2878 65.5419C41.5829 65.0709 41.0335 64.4014 40.7091 63.6182C40.3847 62.8349 40.2998 61.9731 40.4652 61.1416C40.6306 60.3101 41.0388 59.5463 41.6383 58.9469C42.2378 58.3474 43.0015 57.9392 43.833 57.7738C44.6645 57.6084 45.5263 57.6933 46.3096 58.0177C47.0928 58.3421 47.7623 58.8915 48.2333 59.5964C48.7043 60.3013 48.9557 61.1301 48.9557 61.9778C48.9544 63.1143 48.5024 64.2038 47.6988 65.0074C46.8952 65.811 45.8057 66.263 44.6692 66.2643ZM44.6692 59.1037C44.1008 59.1037 43.5451 59.2723 43.0725 59.5881C42.5998 59.9039 42.2315 60.3528 42.0139 60.878C41.7964 61.4031 41.7395 61.981 41.8504 62.5386C41.9613 63.0961 42.235 63.6082 42.6369 64.0101C43.0389 64.4121 43.551 64.6858 44.1085 64.7967C44.6661 64.9076 45.2439 64.8507 45.7691 64.6332C46.2943 64.4156 46.7432 64.0472 47.059 63.5746C47.3748 63.102 47.5433 62.5463 47.5433 61.9778C47.5421 61.216 47.2389 60.4856 46.7002 59.9469C46.1614 59.4082 45.4311 59.105 44.6692 59.1037Z" fill="#4F3CC9"/>
<path d="M110.36 65.309C112.337 65.309 113.94 63.706 113.94 61.7287C113.94 59.7514 112.337 58.1484 110.36 58.1484C108.382 58.1484 106.779 59.7514 106.779 61.7287C106.779 63.706 108.382 65.309 110.36 65.309Z" fill="white"/>
<path d="M110.359 66.0162C109.511 66.0162 108.682 65.7648 107.977 65.2938C107.272 64.8228 106.723 64.1534 106.399 63.3701C106.074 62.5869 105.989 61.725 106.155 60.8935C106.32 60.0621 106.728 59.2983 107.328 58.6988C107.927 58.0994 108.691 57.6911 109.522 57.5257C110.354 57.3603 111.216 57.4452 111.999 57.7696C112.782 58.0941 113.452 58.6435 113.923 59.3484C114.394 60.0533 114.645 60.882 114.645 61.7298C114.644 62.8662 114.192 63.9558 113.388 64.7594C112.585 65.563 111.495 66.015 110.359 66.0162ZM110.359 58.8557C109.79 58.8557 109.235 59.0243 108.762 59.3401C108.289 59.6559 107.921 60.1048 107.703 60.6299C107.486 61.1551 107.429 61.733 107.54 62.2905C107.651 62.848 107.924 63.3601 108.326 63.7621C108.728 64.164 109.24 64.4378 109.798 64.5487C110.356 64.6596 110.933 64.6026 111.459 64.3851C111.984 64.1676 112.433 63.7992 112.748 63.3266C113.064 62.8539 113.233 62.2982 113.233 61.7298C113.232 60.9679 112.928 60.2376 112.39 59.6989C111.851 59.1601 111.121 58.8569 110.359 58.8557Z" fill="#4F3CC9"/>
<path d="M28.7422 80.125H37.1385V108.52H28.7422V80.125Z" fill="white"/>
<path d="M37.8458 109.23H28.0371V79.4199H37.8458V109.23ZM29.4494 107.817H36.4334V80.8323H29.4494V107.817Z" fill="#4F3CC9"/>
<path d="M51.957 80.125H60.3533V108.52H51.957V80.125Z" fill="white"/>
<path d="M61.0563 109.23H51.25V79.4199H61.0563V109.23ZM52.6623 107.817H59.644V80.8323H52.6623V107.817Z" fill="#4F3CC9"/>
<path d="M75.168 80.125H83.5643V108.52H75.168V80.125Z" fill="white"/>
<path d="M84.2715 109.23H74.4629V79.4199H84.2715V109.23ZM75.8752 107.817H82.8592V80.8323H75.8752V107.817Z" fill="#4F3CC9"/>
<path d="M98.1348 80.125H106.531V108.52H98.1348V80.125Z" fill="white"/>
<path d="M107.245 109.23H97.4297V79.4199H107.245V109.23ZM98.8514 107.817H105.833V80.8323H98.842L98.8514 107.817Z" fill="#4F3CC9"/>
<path d="M121.348 80.125H129.744V108.52H121.348V80.125Z" fill="white"/>
<path d="M130.449 109.23H120.641V79.4199H130.449V109.23ZM122.053 107.817H129.037V80.8323H122.053V107.817Z" fill="#4F3CC9"/>
<path d="M28.7422 114.941H37.1385V143.336H28.7422V114.941Z" fill="white"/>
<path d="M37.8458 144.044H28.0371V114.236H37.8458V144.044ZM29.4494 142.631H36.4334V115.649H29.4494V142.631Z" fill="#4F3CC9"/>
<path d="M51.957 114.941H60.3533V143.336H51.957V114.941Z" fill="white"/>
<path d="M61.0563 144.044H51.25V114.236H61.0563V144.044ZM52.6623 142.631H59.644V115.649H52.6623V142.631Z" fill="#4F3CC9"/>
<path d="M75.168 114.941H83.5643V143.336H75.168V114.941Z" fill="white"/>
<path d="M84.2715 144.044H74.4629V114.236H84.2715V144.044ZM75.8752 142.631H82.8592V115.649H75.8752V142.631Z" fill="#4F3CC9"/>
<path d="M98.1348 114.941H106.531V143.336H98.1348V114.941Z" fill="white"/>
<path d="M107.245 144.044H97.4297V114.236H107.245V144.044ZM98.8514 142.631H105.833V115.649H98.842L98.8514 142.631Z" fill="#4F3CC9"/>
<path d="M121.348 114.941H129.744V143.336H121.348V114.941Z" fill="white"/>
<path d="M130.449 144.044H120.641V114.236H130.449V144.044ZM122.053 142.631H129.037V115.649H122.053V142.631Z" fill="#4F3CC9"/>
<path d="M145.58 86.739C158.878 86.739 169.658 75.96 169.658 62.6635C169.658 49.3669 158.878 38.5879 145.58 38.5879C132.282 38.5879 121.502 49.3669 121.502 62.6635C121.502 75.96 132.282 86.739 145.58 86.739Z" fill="white"/>
<path d="M145.579 87.4414C140.678 87.4414 135.886 85.9881 131.81 83.2653C127.735 80.5424 124.558 76.6723 122.682 72.1443C120.806 67.6163 120.315 62.6338 121.271 57.8267C122.227 53.0197 124.587 48.604 128.052 45.138C131.518 41.672 135.934 39.3114 140.741 38.3547C145.549 37.3979 150.532 37.888 155.061 39.763C159.589 41.6379 163.461 44.8135 166.185 48.8882C168.908 52.963 170.363 57.7538 170.364 62.655C170.359 69.2264 167.746 75.5273 163.099 80.1744C158.453 84.8216 152.151 87.4352 145.579 87.4414ZM145.579 39.2926C140.957 39.2926 136.438 40.6634 132.594 43.2316C128.75 45.7997 125.755 49.45 123.986 53.7206C122.217 57.9912 121.755 62.6903 122.657 67.2238C123.559 71.7572 125.786 75.9212 129.055 79.1892C132.325 82.4572 136.49 84.6823 141.024 85.5832C145.558 86.4842 150.258 86.0204 154.528 84.2505C158.799 82.4806 162.449 79.4842 165.016 75.6402C167.583 71.7962 168.953 67.2773 168.951 62.655C168.943 56.4603 166.477 50.522 162.096 46.1424C157.714 41.7628 151.775 39.2995 145.579 39.2926ZM158.424 9.26172H159.836V33.954H158.424V9.26172Z" fill="#4F3CC9"/>
<path d="M170.123 38.0234L187.656 20.9873L188.64 22.0001L171.107 39.0363L170.123 38.0234Z" fill="#4F3CC9"/>
<path d="M175.059 48.9258H200.001V50.3381H175.059V48.9258Z" fill="#4F3CC9"/>
<path d="M140.518 73.3391C139.037 72.3865 137.871 70.9962 137.02 69.168C136.17 67.3398 135.74 65.1687 135.732 62.6548C135.732 60.144 136.159 57.9745 137.011 56.1463C137.863 54.3181 139.029 52.9277 140.509 51.9752C142.029 51.0413 143.778 50.5469 145.562 50.5469C147.346 50.5469 149.095 51.0413 150.615 51.9752C152.108 52.9293 153.28 54.3196 154.132 56.1463C154.985 57.9729 155.413 60.1424 155.418 62.6548C155.418 65.1656 154.992 67.3343 154.142 69.1609C153.291 70.9875 152.119 72.3779 150.625 73.332C149.105 74.2659 147.356 74.7603 145.572 74.7603C143.788 74.7603 142.038 74.2659 140.518 73.332V73.3391ZM149.549 68.8832C150.523 67.4912 151.012 65.4175 151.013 62.6618C151.015 59.9062 150.527 57.8317 149.549 56.4382C149.117 55.7799 148.525 55.2428 147.827 54.8778C147.129 54.5128 146.35 54.332 145.563 54.3526C143.904 54.3526 142.587 55.0478 141.611 56.4382C140.635 57.8285 140.147 59.9007 140.149 62.6548C140.149 65.412 140.636 67.4857 141.611 68.8761C142.054 69.5194 142.646 70.0454 143.338 70.4087C144.029 70.7721 144.799 70.962 145.58 70.962C146.361 70.962 147.13 70.7721 147.822 70.4087C148.513 70.0454 149.106 69.5194 149.549 68.8761V68.8832Z" fill="#FF8B6A"/>
<path d="M145.564 75.4738C143.643 75.5004 141.756 74.9645 140.136 73.932C138.549 72.9104 137.285 71.4086 136.369 69.4596C135.453 67.5106 135.027 65.265 135.027 62.6545C135.027 60.0441 135.479 57.7608 136.372 55.8471C137.264 53.9334 138.54 52.4033 140.138 51.3747C141.772 50.3674 143.654 49.834 145.574 49.834C147.494 49.834 149.376 50.3674 151.01 51.3747C152.669 52.4728 153.976 54.0255 154.776 55.8471C155.668 57.7608 156.12 60.0511 156.12 62.6545C156.12 65.2579 155.668 67.5459 154.776 69.4596C153.884 71.3733 152.601 72.9057 151.01 73.932C149.382 74.9629 147.491 75.4986 145.564 75.4738ZM145.564 51.2593C143.919 51.2371 142.303 51.6943 140.913 52.5752C139.554 53.4508 138.462 54.7549 137.673 56.452C136.885 58.1492 136.44 60.2653 136.44 62.6545C136.44 65.0437 136.847 67.1387 137.652 68.8641C138.457 70.5895 139.536 71.8629 140.892 72.7386C142.298 73.6 143.915 74.056 145.564 74.056C147.214 74.056 148.831 73.6 150.237 72.7386C151.605 71.8653 152.702 70.5612 153.493 68.8664C154.284 67.1716 154.703 65.0508 154.703 62.6569C154.703 60.263 154.296 58.1845 153.493 56.4473C152.802 54.8706 151.672 53.5257 150.237 52.5728C148.84 51.6924 147.216 51.2362 145.564 51.2593ZM145.564 71.6746C143.681 71.6746 142.144 70.8719 141.035 69.2878C139.978 67.7836 139.441 65.5545 139.441 62.6616C139.441 59.7687 139.978 57.5395 141.035 56.033C141.544 55.2975 142.223 54.6962 143.015 54.2809C143.807 53.8657 144.688 53.6487 145.582 53.6487C146.476 53.6487 147.357 53.8657 148.149 54.2809C148.941 54.6962 149.621 55.2975 150.129 56.033C151.184 57.5372 151.721 59.7687 151.721 62.6616C151.721 65.5545 151.184 67.7836 150.129 69.2878C149.633 70.0403 148.954 70.6543 148.156 71.0719C147.357 71.4895 146.465 71.6969 145.564 71.6746ZM145.564 55.0609C144.896 55.0428 144.234 55.1976 143.643 55.5102C143.052 55.8227 142.552 56.2826 142.191 56.8451C141.303 58.1068 140.854 60.0652 140.854 62.6616C140.854 65.2579 141.303 67.214 142.191 68.478C142.569 69.0281 143.075 69.4779 143.666 69.7887C144.257 70.0995 144.915 70.2618 145.582 70.2618C146.25 70.2618 146.907 70.0995 147.498 69.7887C148.089 69.4779 148.595 69.0281 148.973 68.478C149.858 67.214 150.308 65.2579 150.308 62.6616C150.308 60.0652 149.858 58.1068 148.973 56.8451C148.606 56.2798 148.1 55.8185 147.503 55.506C146.906 55.1935 146.238 55.0401 145.564 55.0609Z" fill="#4F3CC9"/>
</svg>
