<svg width="20" height="20" viewBox="0 0 20 20" fill="none" xmlns="http://www.w3.org/2000/svg">
<path fill-rule="evenodd" clip-rule="evenodd" d="M1.66699 2.50008C1.66699 2.03984 2.04009 1.66675 2.50033 1.66675H8.33366C8.7939 1.66675 9.16699 2.03984 9.16699 2.50008V8.33342C9.16699 8.79365 8.7939 9.16675 8.33366 9.16675H2.50033C2.04009 9.16675 1.66699 8.79365 1.66699 8.33342V2.50008ZM3.33366 3.33341V7.50008H7.50033V3.33341H3.33366Z" fill="#FF8B6A"/>
<path d="M3.33366 7.50008V3.33341H7.50033V7.50008H3.33366Z" fill="#FF8B6A"/>
<path fill-rule="evenodd" clip-rule="evenodd" d="M10.833 2.50008C10.833 2.03984 11.2061 1.66675 11.6663 1.66675H17.4997C17.9599 1.66675 18.333 2.03984 18.333 2.50008V8.33342C18.333 8.79365 17.9599 9.16675 17.4997 9.16675H11.6663C11.2061 9.16675 10.833 8.79365 10.833 8.33342V2.50008ZM12.4997 3.33341V7.50008H16.6663V3.33341H12.4997Z" fill="#FF8B6A"/>
<path d="M12.4997 7.50008V3.33341H16.6663V7.50008H12.4997Z" fill="#FF8B6A"/>
<path fill-rule="evenodd" clip-rule="evenodd" d="M10.833 11.6666C10.833 11.2063 11.2061 10.8333 11.6663 10.8333H17.4997C17.9599 10.8333 18.333 11.2063 18.333 11.6666V17.4999C18.333 17.9602 17.9599 18.3333 17.4997 18.3333H11.6663C11.2061 18.3333 10.833 17.9602 10.833 17.4999V11.6666ZM12.4997 12.4999V16.6666H16.6663V12.4999H12.4997Z" fill="#FF8B6A"/>
<path d="M12.4997 16.6666V12.4999H16.6663V16.6666H12.4997Z" fill="#FF8B6A"/>
<path fill-rule="evenodd" clip-rule="evenodd" d="M1.66699 11.6666C1.66699 11.2063 2.04009 10.8333 2.50033 10.8333H8.33366C8.7939 10.8333 9.16699 11.2063 9.16699 11.6666V17.4999C9.16699 17.9602 8.7939 18.3333 8.33366 18.3333H2.50033C2.04009 18.3333 1.66699 17.9602 1.66699 17.4999V11.6666ZM3.33366 12.4999V16.6666H7.50033V12.4999H3.33366Z" fill="#FF8B6A"/>
<path d="M3.33366 16.6666V12.4999H7.50033V16.6666H3.33366Z" fill="#FF8B6A"/>
</svg>
