<svg width="186" height="153" viewBox="0 0 186 153" fill="none" xmlns="http://www.w3.org/2000/svg">
<path d="M158.107 55.7841C173.512 55.7841 185.999 43.2964 185.999 27.892C185.999 12.4877 173.512 0 158.107 0C142.703 0 130.215 12.4877 130.215 27.892C130.215 43.2964 142.703 55.7841 158.107 55.7841Z" fill="#F79A45"/>
<path d="M158.107 50.8446C170.783 50.8446 181.059 40.5683 181.059 27.892C181.059 15.2156 170.783 4.93934 158.107 4.93934C145.43 4.93934 135.154 15.2156 135.154 27.892C135.154 40.5683 145.43 50.8446 158.107 50.8446Z" fill="#F8AD43"/>
<path opacity="0.55" d="M165.832 6.27556L141.692 43.9287C142.657 44.915 143.708 45.8128 144.833 46.6113L169.577 8.01422C168.384 7.32268 167.13 6.74075 165.832 6.27556ZM172.088 9.69401L147.404 48.1963C150.526 49.8446 153.989 50.7461 157.519 50.8299L178.711 17.7747C177.151 14.6096 174.885 11.845 172.088 9.69401ZM158.694 4.95399L137.502 38.0092C138.171 39.3676 138.973 40.6564 139.896 41.8567L163.196 5.51264C161.718 5.17842 160.21 4.99129 158.694 4.95399Z" fill="#F8D24A"/>
<path d="M156.909 47.8157V43.0712C153.935 43.0242 150.859 42.1785 149.064 41.0041L150.295 37.8568C152.532 39.176 155.081 39.8733 157.678 39.8766C161.319 39.8766 163.78 37.9506 163.78 35.2732C163.78 32.6892 161.78 31.0922 157.986 29.6827C152.756 27.8039 149.526 25.6428 149.526 21.5559C149.526 17.6568 152.551 14.6973 157.268 13.9927V9.24813H160.447V13.8049C162.768 13.8163 165.052 14.3799 167.112 15.4489L165.831 18.5494C163.848 17.4757 161.624 16.9259 159.37 16.9522C155.422 16.9522 153.935 19.1132 153.935 20.9923C153.935 23.435 155.832 24.6564 160.293 26.3474C165.574 28.3205 168.24 30.7634 168.24 34.9441C168.24 38.6555 165.42 42.1315 160.139 42.9302V47.8157H156.909Z" fill="#FFE900"/>
<path d="M43.9945 51.6557H137.587C139.404 51.6557 141.146 52.3776 142.431 53.6625C143.716 54.9474 144.438 56.6901 144.438 58.5072V130.601C144.438 132.418 143.716 134.161 142.431 135.446C141.146 136.731 139.404 137.452 137.587 137.452H43.9944C42.1773 137.452 40.4346 136.731 39.1497 135.446C37.8648 134.161 37.143 132.418 37.143 130.601V58.5072C37.143 56.6901 37.8648 54.9474 39.1497 53.6625C40.4346 52.3776 42.1773 51.6557 43.9945 51.6557Z" fill="#FF8B6A"/>
<path d="M137.641 51.6557H43.94C42.1373 51.6557 40.4084 52.3718 39.1337 53.6465C37.8591 54.9212 37.143 56.65 37.143 58.4527C37.143 60.2554 37.8591 61.9842 39.1337 63.2589C40.4084 64.5336 42.1373 65.2497 43.94 65.2497H137.641C139.444 65.2497 141.173 64.5336 142.447 63.2589C143.722 61.9842 144.438 60.2554 144.438 58.4527C144.438 56.65 143.722 54.9212 142.447 53.6465C141.173 52.3718 139.444 51.6557 137.641 51.6557ZM144.438 108.379H99.4266C97.1362 108.379 94.9395 107.469 93.3199 105.849C91.7004 104.23 90.7905 102.033 90.7905 99.7427C90.7905 97.4523 91.7003 95.2557 93.3199 93.6361C94.9395 92.0165 97.1361 91.1066 99.4266 91.1066H144.438V108.379Z" fill="#5564D7"/>
<path d="M104.157 99.7428C104.157 100.547 103.918 101.333 103.472 102.002C103.025 102.671 102.39 103.192 101.647 103.5C100.904 103.807 100.086 103.888 99.2973 103.731C98.5085 103.574 97.784 103.187 97.2153 102.618C96.6466 102.049 96.2593 101.325 96.1024 100.536C95.9455 99.7473 96.026 98.9297 96.3338 98.1867C96.6416 97.4437 97.1628 96.8086 97.8315 96.3618C98.5002 95.915 99.2864 95.6765 100.091 95.6765C101.169 95.6765 102.203 96.1049 102.966 96.8675C103.728 97.6301 104.157 98.6643 104.157 99.7428Z" fill="#FF8B6A"/>
<path d="M104.941 60.1183L124.11 40.9493L90.9818 7.82147L41.2535 60.1183H104.941Z" fill="#FF8B6A"/>
<path d="M139.294 34.4954L109.669 4.87145L58.0451 56.4954H117.294L139.294 34.4954Z" fill="#E6F1FF"/>
<path d="M109.668 9.28574L62.4585 56.4951H66.8733L103.757 19.6113C105.452 21.0976 107.602 21.9639 109.854 22.068C112.106 22.1722 114.327 21.5081 116.152 20.1846L123.979 28.0116C122.655 29.8365 121.991 32.0571 122.095 34.3091C122.199 36.561 123.066 38.7108 124.552 40.4059L108.463 56.4951H112.877L134.877 34.4952L109.668 9.28574ZM85.1409 43.1025C83.4167 44.8282 82.2998 47.0673 81.9585 49.4828C81.6172 51.8983 82.0699 54.3593 83.2485 56.4951H102.953C104.264 54.1209 104.673 51.3534 104.105 48.7016C103.537 46.0499 102.031 43.6923 99.8638 42.0626C97.6963 40.4329 95.0131 39.6407 92.308 39.8317C89.603 40.0228 87.0578 41.1843 85.1409 43.1025Z" fill="#7EA8C4"/>
<path d="M132.027 60.118L148.594 43.5512L118.969 13.9267L72.7777 60.118H132.027Z" fill="#E6F1FF"/>
<path d="M118.97 18.3414L77.193 60.118H81.6078L113.059 28.6669C114.754 30.1532 116.904 31.0195 119.156 31.1237C121.408 31.2279 123.628 30.5638 125.453 29.2402L133.281 37.0672C131.957 38.8922 131.293 41.1127 131.397 43.3647C131.501 45.6167 132.367 47.7665 133.854 49.4615L123.197 60.118H127.612L144.179 43.5509L118.97 18.3414ZM94.4426 52.158C93.3969 53.2024 92.5683 54.4435 92.0047 55.8096C91.441 57.1758 91.1534 58.6401 91.1585 60.118H113.647C113.65 57.8914 112.993 55.7139 111.758 53.8615C110.522 52.009 108.765 50.565 106.708 49.7124C104.651 48.8599 102.387 48.6372 100.204 49.0726C98.0204 49.508 96.0152 50.5818 94.4426 52.158Z" fill="#7EA8C4"/>
<path d="M135.168 39.4869H46.415V60.1182H135.168V39.4869Z" fill="#E6F1FF"/>
<path d="M49.535 42.6083V60.1178H52.6568V54.8998C54.8832 54.5452 56.923 53.4446 58.4418 51.7785C59.9606 50.1124 60.8682 47.9797 61.0157 45.7301H120.565C120.712 47.9797 121.62 50.1124 123.138 51.7785C124.657 53.4446 126.697 54.5451 128.923 54.8997V60.1178H132.045V42.6083H49.535ZM90.7902 49.1772C87.8608 49.1783 85.0474 50.322 82.9482 52.3651C80.849 54.4082 79.6295 57.1895 79.5491 60.1178H102.031C101.951 57.1895 100.731 54.4082 98.6321 52.3651C96.5329 50.322 93.7195 49.1783 90.7902 49.1772Z" fill="#8DBAD3"/>
<path d="M59.6652 143.53H7.56066V152.803H59.6652V143.53Z" fill="#F79A45"/>
<path d="M56.1074 143.53H25.6984V152.803H56.1074V143.53Z" fill="#F8AD43"/>
<path d="M50.7764 143.53H45.9051V152.803H50.7764V143.53Z" fill="#F8D24A"/>
<g style="mix-blend-mode:multiply" opacity="0.5">
<path d="M59.6652 151.421H7.56066V152.804H59.6652V151.421Z" fill="#F79A45"/>
</g>
<path d="M55.8849 134.257H3.78033V143.53H55.8849V134.257Z" fill="#F79A45"/>
<path d="M52.329 134.257H21.92V143.53H52.329V134.257Z" fill="#F8AD43"/>
<path d="M46.9961 134.257H42.1248V143.53H46.9961V134.257Z" fill="#F8D24A"/>
<g style="mix-blend-mode:multiply" opacity="0.5">
<path d="M55.8849 142.148H3.78033V143.531H55.8849V142.148Z" fill="#F79A45"/>
</g>
<path d="M59.6652 124.985H7.56066V134.258H59.6652V124.985Z" fill="#F79A45"/>
<path d="M56.1074 124.985H25.6984V134.258H56.1074V124.985Z" fill="#F8AD43"/>
<path d="M50.7764 124.985H45.9051V134.258H50.7764V124.985Z" fill="#F8D24A"/>
<g style="mix-blend-mode:multiply" opacity="0.5">
<path d="M59.6652 132.875H7.56066V134.258H59.6652V132.875Z" fill="#F79A45"/>
</g>
<path d="M52.1045 115.712H0V124.985H52.1045V115.712Z" fill="#F79A45"/>
<path d="M48.5487 115.712H18.1397V124.985H48.5487V115.712Z" fill="#F8AD43"/>
<path d="M43.2158 115.712H38.3445V124.985H43.2158V115.712Z" fill="#F8D24A"/>
<g style="mix-blend-mode:multiply" opacity="0.5">
<path d="M52.1045 123.602H0V124.985H52.1045V123.602Z" fill="#F79A45"/>
</g>
<path d="M55.8849 106.439H3.78033V115.712H55.8849V106.439Z" fill="#F79A45"/>
<path d="M52.329 106.439H21.92V115.712H52.329V106.439Z" fill="#F8AD43"/>
<path d="M46.9961 106.439H42.1248V115.712H46.9961V106.439Z" fill="#F8D24A"/>
<g style="mix-blend-mode:multiply" opacity="0.5">
<path d="M55.8849 114.33H3.78033V115.712H55.8849V114.33Z" fill="#F79A45"/>
</g>
<path d="M59.6652 97.1662H7.56066V106.439H59.6652V97.1662Z" fill="#F79A45"/>
<path d="M56.1074 97.1662H25.6984V106.439H56.1074V97.1662Z" fill="#F8AD43"/>
<path d="M50.7764 97.1662H45.9051V106.439H50.7764V97.1662Z" fill="#F8D24A"/>
<g style="mix-blend-mode:multiply" opacity="0.5">
<path d="M59.6652 105.057H7.56066V106.439H59.6652V105.057Z" fill="#F79A45"/>
</g>
</svg>
