<svg width="41" height="12" viewBox="0 0 41 12" fill="none" xmlns="http://www.w3.org/2000/svg">
<path d="M14.3281 11.8281H17.6187L19.679 0.202148H16.3864L14.3281 11.8281Z" fill="white"/>
<path d="M26.3197 4.87C25.1685 4.332 24.4641 3.973 24.4713 3.429C24.4713 2.946 25.0677 2.429 26.3571 2.429C27.4117 2.413 28.2616 2.62 29.1167 3.009L29.5635 0.489C28.91 0.253 27.8876 0 26.6117 0C23.3586 0 21.0665 1.577 21.0478 3.837C21.0291 5.507 22.6842 6.439 23.9331 6.995C25.2142 7.565 25.6454 7.928 25.6392 8.437C25.6309 9.216 24.6158 9.572 23.6692 9.572C22.2084 9.572 21.4717 9.355 20.146 8.777L19.6836 11.38C20.4525 11.704 21.8749 11.986 23.3513 12C26.8122 12 29.0586 10.441 29.0845 8.028C29.096 6.706 28.219 5.699 26.3197 4.87Z" fill="white"/>
<path d="M38.0016 0.212891H35.457C34.6684 0.212891 34.0793 0.419891 33.7333 1.17689L28.8438 11.8309H32.3005C32.3005 11.8309 32.8657 10.3979 32.9935 10.0839C33.3717 10.0839 36.7298 10.0889 37.2098 10.0889C37.3085 10.4959 37.6109 11.8309 37.6109 11.8309H40.6656L38.0016 0.212891ZM33.9411 7.70589C34.0772 7.37089 35.4217 4.04989 35.6898 3.34689C36.1345 5.35089 35.7012 3.40689 36.6748 7.70589H33.9411Z" fill="white"/>
<path d="M11.5642 0.211079L8.34116 8.13908L7.99725 6.52808L6.84291 1.18608C6.64342 0.450079 6.06573 0.230078 5.35089 0.205078H0.0415603L0 0.447079C1.29149 0.748079 2.44583 1.18208 3.45782 1.72208L6.38471 11.8191L9.8685 11.8151L15.0521 0.212078H11.5642V0.211079Z" fill="white"/>
</svg>
