<svg width="20" height="20" viewBox="0 0 20 20" fill="none" xmlns="http://www.w3.org/2000/svg">
<path fill-rule="evenodd" clip-rule="evenodd" d="M1.66602 5.8335C1.66602 4.45278 2.7853 3.3335 4.16602 3.3335H15.8327C17.2134 3.3335 18.3327 4.45278 18.3327 5.8335V15.8335C18.3327 17.2142 17.2134 18.3335 15.8327 18.3335H4.16602C2.7853 18.3335 1.66602 17.2142 1.66602 15.8335V5.8335ZM7.49935 10.8335C7.49935 10.3733 7.87245 10.0002 8.33268 10.0002H14.166C14.6263 10.0002 14.9993 10.3733 14.9993 10.8335C14.9993 11.2937 14.6263 11.6668 14.166 11.6668H8.33268C7.87245 11.6668 7.49935 11.2937 7.49935 10.8335ZM4.99935 14.1668C4.99935 13.7066 5.37245 13.3335 5.83268 13.3335H10.8327C11.2929 13.3335 11.666 13.7066 11.666 14.1668C11.666 14.6271 11.2929 15.0002 10.8327 15.0002H5.83268C5.37245 15.0002 4.99935 14.6271 4.99935 14.1668Z" fill="#FF8B6A"/>
<path fill-rule="evenodd" clip-rule="evenodd" d="M5.83333 1.6665C5.3731 1.6665 5 2.0396 5 2.49984V5.83317C5 6.29341 5.3731 6.6665 5.83333 6.6665C6.29357 6.6665 6.66667 6.29341 6.66667 5.83317V2.49984C6.66667 2.0396 6.29357 1.6665 5.83333 1.6665ZM14.1667 1.6665C13.7064 1.6665 13.3333 2.0396 13.3333 2.49984V5.83317C13.3333 6.29341 13.7064 6.6665 14.1667 6.6665C14.6269 6.6665 15 6.29341 15 5.83317V2.49984C15 2.0396 14.6269 1.6665 14.1667 1.6665Z" fill="#FF8B6A"/>
</svg>
