<svg width="20" height="20" viewBox="0 0 20 20" fill="none" xmlns="http://www.w3.org/2000/svg">
<path fill-rule="evenodd" clip-rule="evenodd" d="M4.74597 2.07476C3.33759 2.28906 2.2217 3.32106 1.97987 4.72497C1.81134 5.70342 1.66699 6.94637 1.66699 8.33366C1.66699 9.72095 1.81134 10.9639 1.97987 11.9424C2.18746 13.1475 3.03913 14.0786 4.16699 14.4536V17.29C4.16699 17.9352 4.86875 18.3356 5.42426 18.0074L10.5204 14.996C12.3657 14.9658 14.0202 14.7804 15.2547 14.5926C16.6631 14.3783 17.779 13.3463 18.0208 11.9424C18.1893 10.9639 18.3337 9.72095 18.3337 8.33366C18.3337 6.94637 18.1893 5.70342 18.0208 4.72497C17.779 3.32105 16.6631 2.28906 15.2547 2.07476C13.9052 1.86944 12.054 1.66699 10.0003 1.66699C7.94665 1.66699 6.09541 1.86944 4.74597 2.07476ZM5.00033 6.66699C5.00033 6.20676 5.37342 5.83366 5.83366 5.83366H14.167C14.6272 5.83366 15.0003 6.20676 15.0003 6.66699C15.0003 7.12723 14.6272 7.50033 14.167 7.50033H5.83366C5.37342 7.50033 5.00033 7.12723 5.00033 6.66699ZM5.00033 10.0003C5.00033 9.54009 5.37342 9.16699 5.83366 9.16699H9.16699C9.62723 9.16699 10.0003 9.54009 10.0003 10.0003C10.0003 10.4606 9.62723 10.8337 9.16699 10.8337H5.83366C5.37342 10.8337 5.00033 10.4606 5.00033 10.0003Z" fill="#FF8B6A"/>
</svg>
