<svg width="20" height="20" viewBox="0 0 20 20" fill="none" xmlns="http://www.w3.org/2000/svg">
<path fill-rule="evenodd" clip-rule="evenodd" d="M1.66602 2.50033C1.66602 2.04009 2.03911 1.66699 2.49935 1.66699H8.33268C8.79292 1.66699 9.16602 2.04009 9.16602 2.50033V8.33366C9.16602 8.7939 8.79292 9.16699 8.33268 9.16699H2.49935C2.03911 9.16699 1.66602 8.7939 1.66602 8.33366V2.50033ZM3.33268 3.33366V7.50033H7.49935V3.33366H3.33268Z" fill="#828FA2"/>
<path fill-rule="evenodd" clip-rule="evenodd" d="M10.834 2.50033C10.834 2.04009 11.2071 1.66699 11.6673 1.66699H17.5007C17.9609 1.66699 18.334 2.04009 18.334 2.50033V8.33366C18.334 8.7939 17.9609 9.16699 17.5007 9.16699H11.6673C11.2071 9.16699 10.834 8.7939 10.834 8.33366V2.50033ZM12.5007 3.33366V7.50033H16.6673V3.33366H12.5007Z" fill="#828FA2"/>
<path fill-rule="evenodd" clip-rule="evenodd" d="M10.834 11.6663C10.834 11.2061 11.2071 10.833 11.6673 10.833H17.5007C17.9609 10.833 18.334 11.2061 18.334 11.6663V17.4997C18.334 17.9599 17.9609 18.333 17.5007 18.333H11.6673C11.2071 18.333 10.834 17.9599 10.834 17.4997V11.6663ZM12.5007 12.4997V16.6663H16.6673V12.4997H12.5007Z" fill="#828FA2"/>
<path fill-rule="evenodd" clip-rule="evenodd" d="M1.66602 11.6663C1.66602 11.2061 2.03911 10.833 2.49935 10.833H8.33268C8.79292 10.833 9.16602 11.2061 9.16602 11.6663V17.4997C9.16602 17.9599 8.79292 18.333 8.33268 18.333H2.49935C2.03911 18.333 1.66602 17.9599 1.66602 17.4997V11.6663ZM3.33268 12.4997V16.6663H7.49935V12.4997H3.33268Z" fill="#828FA2"/>
</svg>
