<svg width="28" height="28" viewBox="0 0 28 28" fill="none" xmlns="http://www.w3.org/2000/svg">
<path fill-rule="evenodd" clip-rule="evenodd" d="M5.83301 4.66732C5.18868 4.66732 4.66634 5.18965 4.66634 5.83398V22.1673C4.66634 22.8116 5.18868 23.334 5.83301 23.334H22.1663C22.8107 23.334 23.333 22.8116 23.333 22.1673V5.83398C23.333 5.18965 22.8107 4.66732 22.1663 4.66732H5.83301ZM2.33301 5.83398C2.33301 3.90099 3.90001 2.33398 5.83301 2.33398H22.1663C24.0993 2.33398 25.6663 3.90099 25.6663 5.83398V22.1673C25.6663 24.1003 24.0993 25.6673 22.1663 25.6673H5.83301C3.90001 25.6673 2.33301 24.1003 2.33301 22.1673V5.83398Z" fill="#2D2D2D"/>
<path fill-rule="evenodd" clip-rule="evenodd" d="M9.91634 9.33398C9.59417 9.33398 9.33301 9.59515 9.33301 9.91732C9.33301 10.2395 9.59417 10.5007 9.91634 10.5007C10.2385 10.5007 10.4997 10.2395 10.4997 9.91732C10.4997 9.59515 10.2385 9.33398 9.91634 9.33398ZM6.99967 9.91732C6.99967 8.30649 8.30551 7.00065 9.91634 7.00065C11.5272 7.00065 12.833 8.30649 12.833 9.91732C12.833 11.5281 11.5272 12.834 9.91634 12.834C8.30551 12.834 6.99967 11.5281 6.99967 9.91732Z" fill="#2D2D2D"/>
<path fill-rule="evenodd" clip-rule="evenodd" d="M17.8414 10.8424C18.297 10.3867 19.0357 10.3867 19.4913 10.8424L25.3246 16.6757C25.7802 17.1313 25.7802 17.87 25.3246 18.3256C24.869 18.7812 24.1303 18.7812 23.6747 18.3256L18.6663 13.3172L6.65797 25.3256C6.20235 25.7812 5.46366 25.7812 5.00805 25.3256C4.55244 24.87 4.55244 24.1313 5.00805 23.6757L17.8414 10.8424Z" fill="#2D2D2D"/>
</svg>
