<svg width="20" height="20" viewBox="0 0 20 20" fill="none" xmlns="http://www.w3.org/2000/svg">
<path fill-rule="evenodd" clip-rule="evenodd" d="M12.4273 2.07858C13.0846 1.80621 13.7892 1.66602 14.5007 1.66602C15.2123 1.66602 15.9169 1.80621 16.5742 2.07858C17.2314 2.3509 17.8286 2.75002 18.3315 3.25314C18.8347 3.7561 19.2341 4.35352 19.5064 5.01075C19.7787 5.66809 19.9189 6.37266 19.9189 7.0842C19.9189 7.79575 19.7787 8.50031 19.5064 9.15766C19.234 9.81494 18.8349 10.4121 18.3317 10.9151C18.3316 10.9152 18.3317 10.9151 18.3317 10.9151L10.965 18.2818C10.6396 18.6072 10.1119 18.6072 9.78649 18.2818L2.41983 10.9151C1.4038 9.8991 0.833008 8.52108 0.833008 7.0842C0.833008 5.64733 1.4038 4.2693 2.41983 3.25328C3.43585 2.23726 4.81388 1.66646 6.25075 1.66646C7.68762 1.66646 9.06565 2.23726 10.0817 3.25328L10.3758 3.54736L10.6697 3.25342C10.6697 3.25337 10.6696 3.25347 10.6697 3.25342C11.1727 2.75023 11.77 2.35093 12.4273 2.07858ZM14.5007 3.33268C14.0081 3.33268 13.5204 3.42974 13.0653 3.6183C12.6102 3.80687 12.1967 4.08325 11.8485 4.43165L10.965 5.31513C10.6396 5.64056 10.1119 5.64056 9.78649 5.31513L8.90316 4.43179C8.1997 3.72833 7.2456 3.33313 6.25075 3.33313C5.2559 3.33313 4.3018 3.72833 3.59834 4.43179C2.89488 5.13526 2.49967 6.08936 2.49967 7.0842C2.49967 8.07905 2.89488 9.03315 3.59834 9.73661L10.3758 16.514L17.1532 9.73661C17.5016 9.38837 17.7781 8.97476 17.9667 8.51967C18.1552 8.06459 18.2523 7.57681 18.2523 7.0842C18.2523 6.5916 18.1552 6.10382 17.9667 5.64873C17.7781 5.19365 17.5017 4.78017 17.1533 4.43193C16.8051 4.08352 16.3913 3.80687 15.9362 3.6183C15.4811 3.42974 14.9934 3.33268 14.5007 3.33268Z" fill="#C0C7D0"/>
</svg>
